<svg xmlns="http://www.w3.org/2000/svg" viewBox="0 0 1240 948" role="img" width="100%" height="auto">
  <defs><clipPath id="map"><rect x="2" y="120" width="1236" height="826" rx="18"/></clipPath></defs>
  <rect x="0" y="0" width="1240" height="948" rx="20" fill="#ffffff" stroke="#e7eef2" stroke-width="1.5"/>
  <text x="48" y="58" font-size="34" font-weight="700" fill="#0f172a" font-family="Georgia, serif">Where Kansas City roofing searches actually live</text>
  <text x="48" y="92" font-size="19" fill="#64748b" font-family="-apple-system, Helvetica, Arial, sans-serif">Darker = more monthly Google searches for &quot;roofers [area]&quot; · US · Ahrefs, June 2026</text>
  <line x1="48" y1="110" x2="1192" y2="110" stroke="#eef2f6" stroke-width="1.5"/>
  <g clip-path="url(#map)">
  <path d="M590 736L590 774L589 828L589 847L589 849L589 852L220 851L221 774L221 593L342 583L372 511L591 527L590 635L590 638L590 640L590 641L590 697L590 713L590 714L590 715L590 721L590 728L590 736Z" fill="#eef2f6" stroke="#d8e3ea" stroke-width="1" fill-rule="evenodd"/><path d="M815 379L770 369L711 446L660 416L591 453L605 425L603 409L600 407L595 404L596 90L598 90L918 91L916 354L852 322L815 379Z" fill="#eef2f6" stroke="#d8e3ea" stroke-width="1" fill-rule="evenodd"/><path d="M591 453L660 416L711 446L770 369L815 379L852 322L916 354L1005 422L1001 554L1000 557L1000 588L999 592L998 615L997 650L997 662L997 664L993 751L992 751L762 745L590 736L590 728L590 721L590 715L590 714L590 713L590 697L590 641L590 640L590 638L590 635L591 527L591 504L591 487L591 479L591 453Z" fill="#eef2f6" stroke="#d8e3ea" stroke-width="1" fill-rule="evenodd"/><path d="M591 453L591 479L591 487L591 504L591 527L372 511L342 583L349 359L437 360L471 390L484 394L495 395L503 393L509 389L595 404L600 407L603 409L605 425L591 453Z" fill="#eef2f6" stroke="#d8e3ea" stroke-width="1" fill-rule="evenodd"/><path d="M762 745L992 751L993 751L992 1032L1038 1033L1037 1161L834 1135L586 1128L586 1122L586 1121L586 1113L586 1054L587 1052L587 1023L587 1020L587 1020L587 989L587 977L587 961L589 852L589 849L589 847L589 828L590 774L590 736L762 745Z" fill="#eef2f6" stroke="#d8e3ea" stroke-width="1" fill-rule="evenodd"/><path d="M596 90L595 404L509 389L503 393L495 395L484 394L471 390L437 360L405 333L349 254L343 234L341 204L342 196L341 184L311 150L292 129L182 8L596 9L596 11L596 90Z" fill="#eef2f6" stroke="#d8e3ea" stroke-width="1" fill-rule="evenodd"/>
  <text x="521.4" y="708.9" text-anchor="middle" font-size="14" letter-spacing="1.5" fill="#aab6c2" font-family="-apple-system, Helvetica, Arial, sans-serif">JOHNSON COUNTY</text><text x="709.6" y="335.7" text-anchor="middle" font-size="14" letter-spacing="1.5" fill="#aab6c2" font-family="-apple-system, Helvetica, Arial, sans-serif">CLAY COUNTY</text><text x="757.1" y="580.5" text-anchor="middle" font-size="14" letter-spacing="1.5" fill="#aab6c2" font-family="-apple-system, Helvetica, Arial, sans-serif">JACKSON COUNTY</text><text x="521.5" y="438.1" text-anchor="middle" font-size="14" letter-spacing="1.5" fill="#aab6c2" font-family="-apple-system, Helvetica, Arial, sans-serif">WYANDOTTE COUNTY</text><text x="439.1" y="230.8" text-anchor="middle" font-size="14" letter-spacing="1.5" fill="#aab6c2" font-family="-apple-system, Helvetica, Arial, sans-serif">PLATTE COUNTY</text>
  <path d="M342.0 584.7L342.1 584.6L342.1 584.5L342.1 583.0L342.7 582.3L343.9 580.4L345.5 577.9L345.5 577.8L346.3 576.7L346.5 576.4L347.4 575.2L347.7 574.7L348.0 574.3L348.3 573.9L348.5 573.7L348.6 573.5L348.7 573.3L349.1 572.8L349.3 572.4L349.4 572.2L349.7 571.9L350.1 571.2L351.3 569.4L352.2 568.2L352.2 568.2L352.9 567.2L353.0 567.2L353.7 566.2L354.4 564.8L355.0 563.7L355.1 563.5L355.7 562.4L357.3 559.8L357.6 559.3L358.0 558.7L358.3 558.2L358.5 557.6L358.7 557.1L358.9 556.7L359.0 556.4L359.0 556.1L359.0 553.2L359.0 552.6L359.0 552.5L358.9 552.4L358.1 550.5L358.0 550.3L357.5 549.3L357.2 548.0L356.9 546.4L356.7 545.4L356.6 544.3L356.6 544.0L356.6 543.5L356.5 542.8L356.6 541.9L356.7 541.3L357.2 539.7L357.9 537.6L358.9 535.5L359.0 535.3L359.4 534.5L359.6 533.9L359.9 533.1L360.5 531.0L360.9 529.8L361.6 526.6L361.7 526.4L362.1 524.6L362.2 523.5L362.3 522.7L362.3 522.4L362.5 521.6L362.7 520.9L362.7 520.8L362.9 520.1L363.4 519.4L363.8 518.9L363.9 518.8L364.4 518.2L365.3 517.1L366.2 516.0L366.6 515.6L367.7 514.2L368.6 513.4L368.8 513.2L369.6 512.6L370.1 512.3L370.1 512.3L370.6 512.0L371.3 511.6L372.1 511.2L372.6 510.9L372.7 510.9L372.7 510.9L372.7 510.9L372.8 510.9L372.8 510.9L373.2 510.7L375.5 510.1L375.9 510.0L375.9 510.3L375.9 510.6L375.9 510.9L375.9 511.5L375.9 514.9L377.2 516.7L377.2 515.8L378.5 517.6L378.5 517.6L378.5 518.3L379.0 519.0L380.1 519.2L380.4 519.4L380.6 519.5L380.7 519.6L380.9 519.7L381.3 520.0L381.5 520.1L381.6 520.1L382.2 520.1L382.5 520.1L382.7 520.1L382.7 520.1L383.9 520.1L384.0 516.2L384.0 512.4L384.6 512.4L385.8 512.4L387.8 512.4L387.8 516.4L387.8 518.9L387.7 519.8L387.7 520.1L387.9 520.1L391.6 520.1L391.6 519.8L391.6 518.1L391.6 516.6L391.6 516.3L391.7 515.4L391.7 514.7L391.7 514.5L391.7 512.4L391.7 509.7L391.6 508.8L391.9 508.8L392.9 508.8L393.6 508.8L393.6 508.8L394.5 508.8L395.6 508.9L396.8 509.2L398.3 509.8L398.7 510.0L399.4 510.3L400.1 510.6L401.0 511.1L401.1 511.1L401.4 511.3L402.2 511.7L403.1 512.2L403.6 512.5L405.8 514.0L406.1 514.2L406.2 514.2L407.6 515.0L409.8 516.6L410.1 516.9L411.6 518.1L413.5 519.4L413.8 519.6L413.9 519.7L414.4 520.1L414.9 520.6L417.0 521.7L419.4 522.8L421.5 523.8L422.3 524.2L423.4 524.7L426.0 525.9L426.8 526.4L429.0 527.7L431.0 527.7L431.1 527.7L432.1 527.7L433.2 527.7L434.1 527.7L434.3 527.7L436.4 527.7L437.5 527.7L437.7 527.6L437.8 527.6L437.9 527.6L438.0 527.6L438.8 527.6L440.3 527.6L440.7 527.6L440.8 527.6L441.5 527.4L441.5 527.4L441.5 527.4L441.6 527.4L442.0 527.4L442.1 527.4L443.5 527.6L448.3 527.5L448.4 527.5L448.5 527.5L448.9 527.5L448.8 527.6L448.7 527.7L448.6 527.9L448.5 528.1L448.4 528.4L448.3 528.7L448.2 529.1L448.1 529.3L448.1 529.5L447.9 530.1L447.9 530.1L447.9 530.3L447.8 530.5L447.7 530.8L447.6 530.9L447.5 531.1L447.5 531.2L447.5 531.4L447.5 531.8L447.5 532.5L447.5 532.6L447.5 532.9L447.6 533.1L447.7 533.6L447.8 533.8L447.8 533.9L447.9 534.2L448.1 534.5L448.3 534.8L448.4 534.9L448.4 535.0L448.4 535.1L448.4 535.2L448.4 535.7L448.4 537.5L448.4 538.6L448.4 539.0L448.4 539.4L448.4 540.5L448.4 540.7L448.3 542.8L448.4 542.8L448.5 542.8L449.1 542.8L451.0 542.8L451.6 542.8L454.5 542.9L456.1 542.9L456.1 544.8L456.8 544.8L458.5 544.7L458.5 543.8L458.5 542.8L457.9 542.8L457.9 539.9L459.8 539.9L459.8 538.9L460.8 538.9L460.8 538.9L460.8 538.9L460.8 538.9L460.9 538.9L460.9 538.9L460.9 538.9L460.9 538.9L461.0 539.0L461.0 539.0L461.0 539.0L461.0 538.9L461.0 538.9L461.0 538.9L463.7 538.9L463.7 539.2L463.7 539.3L463.7 542.7L463.7 542.7L467.5 542.8L467.6 541.3L467.6 540.3L467.6 538.9L469.5 538.9L470.9 538.9L471.4 538.9L471.4 537.8L471.5 536.4L471.5 536.0L471.5 535.2L471.5 535.1L471.5 535.0L471.3 535.0L471.0 535.0L471.0 535.0L470.5 535.0L468.9 535.1L467.5 535.1L466.8 535.1L466.5 535.1L466.1 534.7L465.2 534.7L464.5 534.1L465.1 532.5L465.6 531.2L465.8 531.2L465.8 529.6L465.8 527.5L465.8 527.5L467.2 527.5L468.5 527.5L471.6 527.4L472.6 527.4L473.6 527.4L478.4 527.3L479.2 527.3L479.3 527.3L481.1 527.2L481.8 527.2L483.6 527.2L485.0 527.2L485.2 527.2L485.5 527.2L486.8 527.2L486.8 527.2L487.6 527.2L487.7 527.2L488.2 527.2L489.0 527.2L489.1 527.2L489.1 527.2L489.2 527.2L489.2 527.2L489.5 527.2L489.7 527.2L490.0 527.2L490.7 527.2L491.7 527.2L493.1 527.2L493.2 527.2L493.6 527.2L493.8 527.2L494.1 527.2L494.5 527.2L495.4 527.2L495.7 527.2L496.9 527.2L497.1 527.2L502.2 527.2L503.7 527.2L503.9 527.2L504.7 527.2L504.9 527.2L505.7 527.2L506.5 527.2L506.9 527.2L507.2 527.2L507.4 527.2L507.7 527.2L508.0 527.2L508.2 527.2L509.0 527.2L509.8 527.2L509.9 527.8L509.9 527.9L509.9 529.1L509.9 529.5L509.9 530.0L509.9 531.0L509.9 532.5L509.9 533.8L509.9 534.5L509.9 534.9L509.9 535.7L509.9 536.6L509.9 537.9L509.9 538.1L509.9 538.3L509.9 538.7L509.8 539.2L509.8 539.7L509.8 540.6L509.8 541.1L509.8 541.5L509.8 542.7L509.7 542.7L509.7 543.0L509.7 543.5L509.7 544.6L509.7 546.0L509.7 546.1L509.7 546.5L509.8 546.5L509.8 547.0L509.8 547.2L509.9 548.6L509.9 549.5L509.8 549.8L509.9 549.9L509.9 550.1L509.8 550.1L509.8 550.2L509.8 550.3L509.8 550.3L509.8 550.6L509.8 551.4L509.8 552.3L509.8 552.5L509.9 553.1L509.9 554.2L509.9 555.5L509.9 556.4L509.9 556.5L509.9 556.7L509.9 558.0L509.9 558.1L509.9 558.4L509.9 558.8L509.9 560.2L509.9 560.5L509.9 565.9L509.9 566.5L509.9 566.8L509.9 567.2L509.9 567.8L509.9 568.2L510.0 569.7L510.0 570.6L510.0 570.7L510.0 571.5L510.0 571.9L510.0 573.1L510.0 573.6L510.0 575.3L510.0 575.5L510.0 576.5L510.0 576.7L510.0 577.1L510.0 578.0L510.0 579.0L510.0 579.6L510.0 580.3L510.0 580.8L510.0 581.3L510.0 582.5L510.0 583.3L510.0 584.7L510.0 586.4L510.0 587.2L510.0 587.3L510.0 587.5L510.0 587.6L510.0 587.7L510.0 588.2L510.0 589.0L510.0 589.1L509.9 589.1L509.8 589.1L509.5 589.1L507.9 589.1L507.0 589.1L506.5 589.1L505.7 589.1L503.4 589.1L502.4 589.1L502.3 587.2L500.8 587.2L500.3 587.2L499.7 587.2L498.5 587.2L498.5 586.5L498.5 585.7L498.5 585.3L496.0 585.3L495.4 585.3L494.7 585.3L494.7 584.7L494.7 583.9L494.7 582.3L494.7 581.5L493.2 581.5L492.8 581.5L492.1 581.5L491.2 581.5L490.8 581.5L490.3 581.5L489.4 581.5L488.4 581.5L488.3 581.5L487.4 581.5L487.0 581.5L487.0 581.6L487.0 582.0L487.0 582.0L487.0 582.9L487.0 583.0L487.0 583.9L487.0 583.9L487.0 584.4L487.0 585.3L486.7 585.3L484.1 585.3L483.6 585.3L483.2 585.3L483.2 584.6L483.2 583.9L483.1 583.1L483.1 582.4L483.1 582.3L482.7 581.9L482.3 581.5L482.3 581.5L481.5 581.5L481.0 581.5L480.9 581.5L480.2 581.5L479.3 581.5L479.3 581.5L479.1 581.5L478.6 581.5L478.1 581.5L476.5 581.5L476.0 581.5L475.2 581.5L474.8 581.5L474.0 581.5L471.5 581.5L471.5 581.9L469.0 581.9L468.2 581.9L467.9 581.9L467.6 581.9L466.3 581.9L465.3 581.9L465.1 581.9L465.1 581.6L465.1 581.5L463.8 581.5L462.1 581.5L461.1 581.5L459.8 581.5L458.1 581.5L456.3 581.5L456.1 581.5L456.2 584.2L456.2 586.3L456.2 588.2L456.2 588.9L456.2 589.2L456.1 589.2L455.1 589.2L454.7 589.2L452.3 589.2L452.2 589.2L451.6 589.2L451.2 589.2L451.0 589.2L449.6 589.2L448.5 589.2L448.3 589.2L447.8 589.2L447.7 589.2L446.7 589.2L443.7 589.3L443.6 589.3L442.1 589.3L440.9 589.4L439.2 589.4L436.8 589.4L436.3 589.3L436.1 589.3L435.0 589.3L434.0 589.3L433.4 589.3L432.7 589.3L432.5 589.3L430.0 589.4L429.0 589.4L426.2 589.4L424.3 589.5L424.1 589.5L422.3 589.5L421.4 589.5L421.2 589.5L420.1 589.5L419.3 589.5L418.4 589.5L418.3 589.5L418.1 589.5L417.9 589.5L417.7 589.5L414.7 589.5L414.6 589.5L414.6 589.7L414.6 590.5L414.6 591.0L414.6 591.4L414.7 593.4L413.2 593.4L413.1 593.5L411.2 593.5L410.8 593.5L409.5 593.4L407.5 593.4L405.7 593.4L404.6 593.4L403.1 593.4L400.0 593.4L396.3 593.4L395.4 593.4L395.4 593.7L395.4 595.5L395.4 596.1L395.4 596.2L395.4 597.2L394.0 597.3L393.9 597.3L393.6 597.4L393.0 597.4L392.6 597.4L391.6 597.4L391.1 597.4L390.6 597.4L389.7 597.3L389.5 597.3L389.0 597.3L388.2 597.3L387.7 597.3L387.3 597.3L387.2 597.3L387.1 597.3L387.1 597.4L387.1 597.9L387.2 598.5L387.2 599.3L387.3 599.9L387.3 600.3L387.4 600.7L387.5 601.5L387.5 601.6L387.6 602.3L387.6 602.7L387.6 602.9L387.7 603.6L387.7 604.3L387.7 604.7L387.8 604.9L387.8 605.0L387.4 605.0L379.9 605.1L379.9 604.4L379.9 604.0L379.9 603.5L379.9 602.3L379.9 601.9L380.0 601.3L380.0 600.0L380.0 598.9L380.0 597.3L380.1 597.3L380.9 597.3L380.8 594.8L380.8 594.3L380.8 593.8L380.8 593.4L380.6 593.4L380.4 593.4L380.0 593.4L380.0 593.4L380.0 592.9L380.0 591.5L380.0 590.0L380.0 589.5L378.1 589.5L376.9 589.5L375.6 589.5L374.5 589.5L372.5 589.5L372.2 589.5L371.7 589.5L370.2 589.5L369.6 589.5L369.4 589.5L367.7 589.5L367.4 589.5L366.8 589.5L365.4 589.5L364.9 589.5L364.6 589.5L363.8 589.5L360.2 589.5L356.9 589.5L355.1 589.5L354.1 589.5L351.4 589.5L350.5 589.5L348.3 589.5L343.3 589.5L342.1 589.5L342.1 588.4L342.1 587.6L342.1 587.0L342.1 586.0L342.0 585.6L342.0 585.3L342.0 585.2L342.0 584.7Z" fill="#9ed5dc" stroke="#ffffff" stroke-width="1.2"/><path d="M342.0 609.7L342.2 609.7L342.2 609.4L342.2 608.7L342.1 605.4L342.0 605.0L342.1 601.9L342.1 601.1L342.1 600.4L342.1 597.3L342.1 596.0L342.1 595.9L342.1 595.7L342.1 595.6L342.1 589.5L343.3 589.5L348.3 589.5L350.5 589.5L351.4 589.5L354.1 589.5L355.1 589.5L356.9 589.5L360.2 589.5L363.8 589.5L364.6 589.5L364.9 589.5L365.4 589.5L366.8 589.5L367.4 589.5L367.7 589.5L369.4 589.5L369.6 589.5L370.2 589.5L371.7 589.5L372.2 589.5L372.5 589.5L374.5 589.5L375.6 589.5L376.9 589.5L378.1 589.5L380.0 589.5L380.0 590.0L380.0 591.5L380.0 592.9L380.0 593.4L380.0 593.4L380.4 593.4L380.6 593.4L380.8 593.4L380.8 593.8L380.8 594.3L380.8 594.8L380.9 597.3L380.1 597.3L380.0 597.3L380.0 598.9L380.0 600.0L380.0 601.3L379.9 601.9L379.9 602.3L379.9 603.5L379.9 604.0L379.9 604.4L379.9 605.1L387.4 605.0L387.8 605.0L387.8 604.9L387.7 604.7L387.7 604.3L387.7 603.6L387.6 602.9L387.6 602.7L387.6 602.3L387.5 601.6L387.5 601.5L387.4 600.7L387.3 600.3L387.3 599.9L387.2 599.3L387.2 598.5L387.1 597.9L387.1 597.4L387.1 597.3L387.2 597.3L387.3 597.3L387.7 597.3L388.2 597.3L389.0 597.3L389.5 597.3L389.7 597.3L390.6 597.4L391.1 597.4L391.6 597.4L392.6 597.4L393.0 597.4L393.6 597.4L393.9 597.3L394.0 597.3L395.4 597.2L395.4 596.2L395.4 596.1L395.4 595.5L395.4 593.7L395.4 593.4L396.3 593.4L400.0 593.4L403.1 593.4L404.6 593.4L405.7 593.4L407.5 593.4L409.5 593.4L410.8 593.5L411.2 593.5L413.1 593.5L413.2 593.4L414.7 593.4L414.6 591.4L414.6 591.0L414.6 590.5L414.6 589.7L414.6 589.5L414.7 589.5L417.7 589.5L417.9 589.5L418.1 589.5L418.3 589.5L418.4 589.5L419.3 589.5L420.1 589.5L421.2 589.5L421.4 589.5L422.3 589.5L424.1 589.5L424.3 589.5L426.2 589.4L429.0 589.4L430.0 589.4L432.5 589.3L432.7 589.3L433.4 589.3L434.0 589.3L435.0 589.3L436.1 589.3L436.3 589.3L436.8 589.4L439.2 589.4L440.9 589.4L442.1 589.3L443.6 589.3L443.7 589.3L446.7 589.2L447.7 589.2L447.8 589.2L448.3 589.2L448.5 589.2L449.6 589.2L451.0 589.2L451.2 589.2L451.6 589.2L452.2 589.2L452.3 589.2L454.7 589.2L455.1 589.2L456.1 589.2L456.2 589.2L456.2 588.9L456.2 588.2L456.2 586.3L456.2 584.2L456.1 581.5L456.3 581.5L458.1 581.5L459.8 581.5L461.1 581.5L462.1 581.5L463.8 581.5L465.1 581.5L465.1 581.6L465.1 581.9L465.3 581.9L466.3 581.9L467.6 581.9L467.9 581.9L468.2 581.9L469.0 581.9L471.5 581.9L471.5 581.5L474.0 581.5L474.8 581.5L475.2 581.5L476.0 581.5L476.5 581.5L478.1 581.5L478.6 581.5L479.1 581.5L479.3 581.5L479.3 581.5L480.2 581.5L480.9 581.5L481.0 581.5L481.5 581.5L482.3 581.5L482.3 581.5L482.7 581.9L483.1 582.3L483.1 582.4L483.1 583.1L483.2 583.9L483.2 584.6L483.2 585.3L483.6 585.3L484.1 585.3L486.7 585.3L487.0 585.3L487.0 584.4L487.0 583.9L487.0 583.9L487.0 583.0L487.0 582.9L487.0 582.0L487.0 582.0L487.0 581.6L487.0 581.5L487.4 581.5L488.3 581.5L488.4 581.5L489.4 581.5L490.3 581.5L490.8 581.5L491.2 581.5L492.1 581.5L492.8 581.5L493.2 581.5L494.7 581.5L494.7 582.3L494.7 583.9L494.7 584.7L494.7 585.3L495.4 585.3L496.0 585.3L498.5 585.3L498.5 585.7L498.5 586.5L498.5 587.2L499.7 587.2L500.3 587.2L500.8 587.2L502.3 587.2L502.4 589.1L503.4 589.1L505.7 589.1L506.5 589.1L507.0 589.1L507.9 589.1L509.5 589.1L509.8 589.1L509.9 589.1L510.0 589.1L510.0 589.4L510.0 590.0L510.0 590.1L510.0 592.2L510.0 593.0L510.1 595.3L510.1 595.6L510.1 596.2L510.1 596.8L510.1 597.4L510.1 598.3L510.1 599.5L510.1 599.7L510.1 599.7L510.1 600.6L510.1 600.7L510.0 600.7L509.9 600.7L509.3 600.7L509.2 600.7L509.1 600.7L508.2 600.7L508.2 600.7L507.2 600.7L506.5 600.7L506.3 600.7L506.2 600.7L506.2 601.4L506.2 603.8L506.2 604.1L506.2 604.4L506.2 604.5L506.1 604.5L505.4 604.5L505.2 604.5L504.9 604.5L504.3 604.5L504.2 604.6L503.6 604.5L503.0 604.5L502.9 604.6L502.8 604.6L502.4 604.5L502.2 604.5L501.9 604.5L501.6 604.5L500.7 604.6L500.0 604.6L499.6 604.5L499.6 604.5L499.1 604.5L498.8 604.5L498.6 604.5L498.6 604.5L498.5 604.5L498.5 604.6L498.5 604.7L498.5 604.9L498.5 605.6L498.5 605.6L498.5 605.8L498.2 606.0L498.1 606.0L498.0 606.2L497.4 607.0L494.7 610.6L494.7 610.7L494.7 611.5L494.7 612.1L494.7 612.2L494.7 612.3L494.7 612.4L494.7 612.6L494.7 612.8L494.7 612.9L494.7 613.7L494.7 613.8L494.7 613.9L494.7 614.7L494.7 614.9L494.7 615.0L494.7 615.7L494.7 616.0L494.7 616.2L494.7 616.4L494.7 618.2L494.7 620.0L494.7 621.7L494.7 623.1L494.8 623.5L494.7 624.1L494.8 624.9L494.7 625.4L494.8 626.0L494.8 626.5L494.8 627.3L494.8 627.6L494.8 628.1L494.8 628.1L494.8 628.2L494.7 628.6L494.8 629.4L494.8 629.9L494.8 630.1L494.8 630.2L494.8 631.0L494.8 632.5L494.8 633.2L494.8 633.7L494.8 634.1L494.8 635.4L492.5 635.4L491.6 635.4L490.7 635.4L489.8 635.4L488.9 635.4L488.0 635.4L487.2 635.4L487.1 635.4L486.3 635.4L485.8 635.4L485.5 635.4L485.3 635.4L484.7 635.4L484.5 635.4L484.4 635.4L484.1 635.4L483.7 635.4L483.4 635.4L483.3 635.4L483.3 635.5L483.3 635.8L483.3 636.0L483.3 636.8L483.3 637.2L483.3 637.8L483.3 638.0L483.3 638.2L483.3 638.2L483.3 638.6L483.3 638.8L483.3 639.3L482.6 639.3L481.9 639.3L481.4 639.3L480.8 639.3L480.2 639.3L479.8 639.3L479.4 639.3L479.4 639.5L479.4 640.0L479.4 640.8L479.4 641.2L479.4 641.6L479.4 642.1L479.4 642.2L479.4 642.3L479.4 642.5L479.4 643.1L479.7 643.1L479.7 642.3L479.9 642.4L481.0 642.9L482.1 643.1L483.3 643.1L483.3 643.4L483.3 643.5L483.3 643.7L483.3 645.0L483.3 645.6L483.3 646.0L483.3 646.8L483.4 647.2L483.4 647.3L483.4 647.8L483.4 647.9L483.4 648.2L483.4 648.4L483.4 648.5L483.4 648.6L483.4 648.8L483.4 648.9L483.4 649.0L483.4 649.3L483.3 650.0L483.3 650.1L483.3 650.4L483.3 650.7L483.3 650.9L483.3 650.9L482.3 650.9L482.1 650.9L481.9 650.9L479.9 650.9L479.7 650.9L479.5 650.9L479.4 650.9L479.3 650.9L478.4 650.9L478.1 650.9L478.0 650.9L477.6 650.9L477.2 651.0L477.1 651.0L475.5 651.0L475.4 650.9L475.2 651.0L473.1 651.0L472.6 651.0L472.0 651.0L471.7 651.0L471.7 652.7L471.7 653.3L471.7 655.0L471.7 655.3L471.7 656.3L471.7 657.7L471.7 658.2L471.7 658.6L471.7 658.6L469.4 658.7L469.3 658.7L468.8 658.7L468.7 658.7L468.7 658.7L467.8 658.7L467.2 658.7L466.6 658.7L465.9 658.7L465.9 658.7L465.8 658.7L464.6 658.7L464.2 658.7L464.0 658.7L464.0 658.7L464.0 658.7L463.9 658.7L463.9 658.7L463.8 658.7L463.1 658.7L462.9 658.7L462.0 658.7L461.6 658.7L461.3 658.7L461.2 658.7L460.9 658.7L460.7 658.7L460.2 658.7L459.9 659.7L459.7 659.9L459.5 660.2L459.3 660.4L458.8 661.0L458.4 661.4L458.2 661.6L457.6 662.1L457.6 662.3L457.4 662.4L456.8 663.0L456.6 663.2L456.3 663.5L456.3 663.5L456.3 663.4L456.3 663.2L456.3 662.6L455.8 662.6L455.8 662.6L453.3 662.6L453.3 662.6L452.6 662.6L452.1 662.6L451.6 662.6L450.1 662.5L448.6 662.5L448.6 662.4L448.6 662.2L448.6 662.1L448.6 662.1L447.4 662.1L447.4 662.5L443.3 662.6L441.6 662.6L440.9 662.6L441.0 660.2L441.0 659.4L441.0 658.9L441.0 654.0L441.0 653.3L441.0 652.4L441.0 651.0L440.6 651.0L440.4 651.0L439.8 651.0L439.4 651.1L439.2 651.1L439.1 651.1L438.8 651.1L437.6 651.1L437.5 651.1L437.2 651.1L437.2 643.4L437.5 643.4L439.9 643.3L444.9 643.3L444.9 643.1L444.9 642.6L444.9 639.4L441.5 639.4L441.0 639.5L441.0 639.2L441.0 638.8L441.0 638.5L441.0 636.6L441.0 636.4L441.1 636.2L441.0 636.0L440.9 636.0L440.1 636.0L440.1 636.0L438.6 636.1L438.3 636.1L437.2 636.1L436.5 636.1L434.0 636.1L433.9 636.1L433.6 636.1L433.3 636.1L432.2 636.1L430.4 636.0L430.0 636.0L429.2 635.9L426.0 635.8L425.9 635.8L425.7 635.8L425.5 635.8L423.3 635.7L422.7 635.7L421.7 635.7L421.3 635.6L421.0 635.6L420.5 635.6L419.7 635.6L418.5 635.6L417.2 635.7L416.0 635.7L415.4 635.8L414.7 635.8L414.3 635.8L414.1 635.9L413.7 635.9L412.8 635.9L411.5 635.9L410.3 635.9L407.4 635.8L406.8 635.8L405.6 635.8L403.3 635.8L403.3 635.8L403.2 635.8L403.2 635.8L396.4 635.8L395.7 635.8L395.3 635.8L393.5 635.8L393.1 635.8L392.7 635.8L392.1 635.8L391.2 635.8L389.6 635.8L388.4 635.8L388.1 635.8L387.5 635.8L387.2 635.8L386.8 635.8L386.0 635.8L385.3 635.8L384.0 635.8L381.1 635.8L380.5 635.8L378.8 635.8L376.6 635.4L376.4 635.3L373.8 634.4L372.9 634.3L371.6 633.6L371.0 633.4L370.9 633.4L369.9 632.9L369.5 632.7L368.6 632.3L368.1 632.1L367.1 631.7L366.2 631.2L365.6 631.0L364.3 630.5L364.1 630.4L363.6 630.2L363.1 630.0L362.6 629.9L362.0 629.8L361.7 629.7L361.2 629.6L360.8 629.5L360.3 629.5L359.8 629.4L359.3 629.4L359.0 629.4L358.5 629.4L358.1 629.4L357.4 629.4L356.9 629.4L353.6 629.8L353.1 629.8L352.7 629.8L352.2 629.8L351.6 629.8L351.2 629.7L350.8 629.6L350.5 629.6L350.0 629.5L349.8 629.4L349.5 629.3L349.1 629.2L348.7 629.0L348.4 628.9L348.0 628.7L347.7 628.5L347.4 628.3L347.3 628.2L347.0 628.0L346.9 628.0L346.6 627.7L346.6 627.7L346.4 627.6L345.1 626.4L342.2 624.0L342.2 623.7L342.2 621.5L342.1 620.3L342.1 614.5L342.1 613.3L342.1 611.9L342.1 610.7L342.2 610.4L342.0 610.4L342.0 610.4L342.0 609.7Z" fill="#9ed5dc" stroke="#ffffff" stroke-width="1.2"/><path d="M694.3 457.8L694.4 456.7L694.4 456.0L694.4 455.8L697.2 455.8L697.2 455.9L697.7 455.8L697.7 454.8L697.7 454.6L698.1 454.8L698.4 454.9L698.7 455.1L700.4 455.7L700.4 455.7L700.5 455.6L700.6 455.5L700.6 455.4L700.7 455.4L700.7 455.4L700.8 455.3L700.9 455.2L701.1 455.2L701.2 455.2L701.4 455.2L701.5 455.2L701.7 455.3L701.8 455.3L702.1 455.5L702.7 455.9L702.8 455.9L703.0 455.8L703.2 455.5L703.2 455.4L703.3 455.2L703.4 455.0L703.4 454.9L703.4 454.8L703.4 454.7L703.4 454.6L703.3 454.3L703.3 453.9L703.3 453.8L703.3 453.8L703.3 453.7L703.2 453.4L703.2 452.8L703.2 452.5L704.6 452.4L704.6 452.4L705.5 452.5L705.5 451.7L705.5 451.5L705.6 451.1L705.5 450.8L705.7 446.5L705.7 446.4L705.7 445.8L705.7 445.7L705.7 445.5L705.7 445.3L705.7 444.3L705.8 443.9L705.8 443.8L705.8 442.0L705.8 441.4L705.8 440.9L705.9 437.4L705.9 436.4L705.9 434.4L706.0 434.5L706.3 434.6L706.4 434.7L706.4 434.8L707.9 435.4L708.6 435.9L709.0 436.3L710.2 436.8L715.8 437.9L715.8 440.3L715.8 443.2L715.7 443.8L715.8 444.8L715.8 444.9L715.0 445.3L714.4 445.7L713.3 446.3L712.9 446.6L712.6 446.8L712.3 447.2L712.0 447.6L711.4 448.1L711.4 449.9L713.1 449.8L714.9 451.4L715.0 450.4L715.1 449.8L716.1 449.9L717.6 449.7L717.7 450.7L717.6 451.6L717.6 452.5L717.6 453.3L717.5 455.3L717.4 457.2L717.3 461.0L717.2 464.8L717.4 464.8L718.3 464.9L718.4 464.9L719.2 464.9L720.2 465.0L721.5 465.0L723.0 465.1L723.7 465.1L724.2 465.1L726.1 465.2L727.8 465.3L728.0 465.3L728.8 465.3L730.6 465.4L730.9 465.4L730.9 464.8L731.7 464.9L731.9 464.9L733.8 464.9L734.7 464.9L734.8 464.8L735.0 462.8L735.0 461.7L735.0 460.8L735.0 459.9L735.1 458.9L735.3 458.0L735.6 457.3L737.2 457.4L738.6 457.4L739.1 454.3L739.1 453.5L739.2 453.3L740.1 453.3L740.5 453.4L741.1 453.4L741.2 453.1L741.2 452.7L742.1 452.7L742.6 452.6L742.7 450.6L742.7 449.3L742.7 446.1L742.1 446.1L742.0 444.9L742.1 443.3L741.0 443.3L741.1 439.3L741.8 439.2L741.9 437.8L742.0 435.9L741.9 435.2L742.0 434.9L742.2 435.0L744.6 434.9L748.4 435.1L748.5 435.1L755.3 435.5L756.0 435.5L756.6 435.5L759.9 435.8L760.1 435.8L762.0 435.8L763.9 435.9L768.0 436.3L773.6 436.4L774.2 436.5L774.4 436.5L778.6 437.1L779.5 437.1L783.1 437.3L786.7 437.3L790.3 437.0L790.7 437.0L791.1 437.0L791.5 437.0L793.4 437.1L793.7 437.2L794.3 437.2L795.1 437.2L796.0 437.1L796.5 437.1L797.5 437.2L797.8 437.3L798.2 437.4L798.9 436.8L800.7 435.4L800.5 435.2L800.4 435.0L800.4 434.8L800.4 434.6L800.4 433.8L800.4 433.7L800.4 433.5L800.4 433.4L800.4 433.3L800.4 433.2L800.4 433.1L800.4 433.0L800.4 432.9L800.4 432.9L800.4 432.7L800.4 432.6L800.4 432.5L800.4 432.3L800.5 432.0L800.5 431.8L800.5 431.7L800.5 431.3L801.1 431.4L801.4 431.4L801.6 431.3L801.7 431.3L801.8 431.3L801.9 431.2L802.0 431.1L802.1 431.1L802.2 431.0L802.7 431.6L802.8 431.7L803.8 433.0L805.1 432.0L805.1 431.9L805.3 431.8L805.5 431.6L805.6 431.6L805.9 431.4L806.1 431.3L806.6 431.2L807.1 431.2L808.9 431.1L810.4 431.0L812.6 431.0L813.4 431.0L816.4 431.1L819.4 431.2L820.3 431.3L821.4 431.3L821.6 431.3L822.0 431.3L822.4 431.3L822.7 431.2L823.1 431.0L823.5 430.8L825.7 429.7L826.7 429.3L827.4 429.1L827.7 429.0L828.0 428.9L828.4 428.9L828.6 428.8L828.9 428.8L829.1 428.8L829.7 428.8L832.5 428.8L840.9 429.0L848.0 429.3L848.7 429.3L849.0 429.3L849.5 429.3L850.4 429.3L851.1 429.2L853.6 428.9L853.9 428.9L854.2 428.8L855.5 428.7L856.0 428.7L856.4 428.7L858.7 428.7L863.3 428.8L866.3 428.9L869.7 429.0L870.1 429.0L870.5 428.9L870.9 428.8L871.4 428.6L874.5 427.1L877.4 425.7L877.6 425.6L877.9 425.6L878.2 425.5L878.5 425.5L881.2 425.6L882.3 425.6L886.1 425.8L890.0 425.9L899.6 426.1L901.6 426.2L905.4 426.4L909.4 426.6L913.1 426.7L913.1 427.0L912.8 429.5L912.7 434.4L912.5 439.9L912.5 440.3L912.4 442.0L912.0 449.7L911.9 452.3L911.7 456.0L911.7 457.3L911.7 457.4L911.7 457.6L911.7 458.4L911.5 459.4L911.4 461.1L911.1 472.7L911.1 472.8L911.1 473.0L910.7 485.2L910.7 488.6L909.2 488.4L908.6 488.4L908.1 488.3L907.5 488.4L906.8 488.4L904.2 488.8L903.8 488.9L903.4 488.9L903.0 488.9L897.3 488.6L897.3 488.6L895.3 488.5L893.9 488.4L892.4 488.4L891.2 488.4L890.4 488.3L889.3 488.3L888.6 488.2L886.8 488.1L884.4 488.0L884.2 487.9L880.4 487.8L880.3 488.2L880.3 488.3L880.2 488.5L880.2 490.6L880.1 490.6L879.2 490.6L877.5 490.5L872.6 490.2L872.6 491.1L868.7 490.9L868.8 488.1L868.8 487.2L868.8 487.2L868.8 487.1L868.8 487.1L868.8 487.0L868.2 487.0L868.1 487.0L867.0 486.8L866.5 486.7L865.8 486.6L865.5 486.6L863.9 486.5L863.8 488.5L862.2 488.6L862.1 494.2L862.1 503.3L862.1 503.5L862.1 503.6L862.4 503.6L862.6 505.1L862.6 505.4L868.7 513.8L868.7 517.2L867.9 517.2L866.6 517.1L864.6 517.1L864.4 517.1L864.5 517.6L864.3 517.6L864.2 517.6L864.0 517.6L863.4 517.6L862.7 517.5L861.7 517.5L861.5 517.5L861.0 517.5L860.8 517.5L860.1 517.4L859.0 517.4L858.7 517.4L858.2 517.4L857.1 517.4L857.0 517.4L856.6 517.3L856.4 517.3L856.2 517.2L856.0 517.2L855.7 517.1L855.4 517.0L855.0 516.9L854.8 516.8L854.7 516.8L854.5 516.8L854.2 516.8L853.4 516.9L853.1 516.9L849.6 516.7L849.2 516.7L848.9 516.7L848.6 516.7L848.5 516.7L847.4 517.1L846.3 517.4L846.0 517.5L845.7 517.5L845.4 517.6L845.0 517.5L842.3 517.3L842.1 517.3L840.1 517.1L837.7 516.8L837.4 516.8L836.4 516.7L836.1 516.7L835.7 516.6L834.3 516.6L833.0 516.5L832.6 516.5L832.2 516.5L831.7 516.5L831.2 516.5L831.3 517.0L831.4 517.2L831.4 517.4L831.4 517.6L831.2 518.5L831.1 518.9L831.1 519.1L831.2 519.2L831.2 519.3L831.2 519.3L831.3 519.4L831.4 519.4L833.0 520.5L833.2 520.5L833.2 520.6L833.3 520.7L833.4 520.8L833.4 520.9L833.5 521.0L833.5 521.2L833.5 521.3L833.6 521.5L833.5 523.4L833.4 524.0L833.4 524.3L833.4 524.4L833.4 525.1L833.4 526.2L833.4 526.4L833.4 526.5L833.5 526.7L834.0 527.4L834.2 527.6L834.4 527.8L834.5 528.0L834.6 528.1L834.6 528.2L834.7 528.3L835.4 529.2L836.9 531.1L838.4 533.0L838.6 533.3L839.3 534.3L839.4 534.4L839.4 534.5L839.4 534.7L839.4 535.2L839.4 535.7L839.4 536.2L839.4 537.0L837.6 536.8L837.2 536.7L834.6 536.3L832.6 536.0L832.4 536.0L829.6 535.5L828.0 535.3L826.3 535.0L818.6 533.5L818.5 533.7L818.5 533.9L818.6 534.0L818.5 534.0L817.5 533.8L817.3 533.8L817.3 533.9L817.3 535.2L817.3 536.0L817.3 537.3L817.2 538.9L817.1 538.9L816.9 539.0L816.7 539.1L816.5 539.1L816.4 539.2L816.4 539.2L816.3 539.2L815.7 539.2L815.1 539.1L813.3 539.2L813.3 539.5L813.3 539.7L813.3 539.9L813.3 540.7L813.4 540.9L813.4 541.4L813.4 541.9L813.4 542.1L813.4 542.2L814.0 542.2L814.3 542.3L814.7 542.4L814.8 542.5L815.1 542.6L815.5 542.7L815.8 542.8L816.0 543.1L816.5 543.4L816.8 543.6L817.7 544.2L817.9 544.5L818.2 544.7L818.9 544.8L819.4 545.0L819.9 545.1L820.2 545.0L820.9 545.3L820.9 546.2L820.9 547.0L820.9 547.1L818.6 547.0L818.4 548.0L818.3 549.0L817.9 551.0L817.7 551.0L817.2 550.7L817.4 549.1L816.8 549.2L816.7 549.2L816.8 547.9L816.2 547.8L814.4 548.2L813.7 548.3L812.7 548.5L812.5 548.3L812.2 548.0L811.7 547.4L811.5 547.2L811.1 546.7L810.9 546.5L809.4 546.5L808.0 546.4L807.0 546.4L801.4 546.2L800.8 546.1L799.9 546.1L798.9 546.1L798.9 546.1L794.1 546.1L793.9 546.1L791.3 546.1L791.1 546.3L790.9 546.7L790.8 546.9L790.7 547.0L790.7 547.2L790.7 547.5L790.6 547.6L790.4 548.0L790.2 548.1L790.1 548.3L789.9 548.3L789.7 548.4L789.3 548.4L789.1 548.5L788.8 548.5L788.3 548.4L788.2 548.3L787.5 548.5L787.2 548.5L786.9 548.5L786.8 548.5L786.6 548.4L786.3 548.4L786.1 548.4L785.9 548.4L785.7 548.5L785.6 548.6L785.5 548.7L785.4 548.8L785.1 549.2L785.0 549.4L784.8 549.6L784.7 549.6L784.4 549.6L784.3 549.6L784.0 549.5L783.5 549.3L783.3 549.2L783.3 549.2L782.7 549.3L782.6 549.3L782.6 549.3L782.5 549.4L782.5 549.6L782.5 549.8L782.6 550.0L782.7 550.2L782.8 550.3L783.0 550.4L783.0 550.5L783.1 550.7L783.1 550.9L782.9 551.3L782.8 551.5L782.7 551.8L782.6 552.1L782.5 552.3L782.2 552.5L781.8 552.7L781.4 552.9L780.9 552.8L780.7 552.8L780.6 552.8L780.4 552.8L780.4 553.0L780.3 553.0L780.2 553.0L779.8 553.0L779.6 553.0L779.6 553.0L779.4 553.0L779.4 552.9L779.2 552.8L779.0 552.7L778.9 552.5L778.7 552.4L778.4 552.3L778.1 552.3L777.8 552.2L777.6 552.1L777.6 552.0L777.5 552.0L777.2 551.9L777.0 551.9L776.6 551.9L776.5 551.9L776.2 552.1L776.0 552.2L776.0 552.3L775.6 552.8L775.4 553.2L774.5 553.9L774.3 554.6L774.2 554.7L774.1 554.7L773.9 554.9L773.7 554.9L773.5 554.9L773.0 554.9L772.9 554.9L772.8 554.9L772.6 554.9L772.2 555.1L771.7 554.2L771.6 553.9L771.3 553.3L771.2 552.3L771.3 552.0L771.5 551.1L771.6 550.3L771.7 548.4L771.7 545.9L771.9 542.3L772.1 537.4L772.1 536.5L771.3 536.4L765.5 536.1L761.9 535.9L761.3 535.9L760.6 535.8L760.6 535.8L760.0 535.8L759.1 535.8L755.0 535.5L749.5 535.2L749.4 536.1L749.3 536.7L748.5 536.7L742.9 536.6L740.8 536.5L740.7 537.7L740.7 539.4L740.7 539.8L740.7 540.8L740.6 543.4L740.6 543.4L740.6 544.9L740.5 546.0L739.6 545.9L738.5 545.9L737.6 545.8L736.7 545.8L734.0 545.7L732.9 545.6L731.1 545.5L730.4 545.5L730.4 544.6L730.4 544.1L730.4 542.9L730.4 541.8L730.4 541.7L730.6 540.0L730.6 539.2L730.6 538.2L730.6 537.2L730.6 537.1L730.7 536.3L730.8 536.4L730.7 536.2L730.7 535.7L731.0 535.7L731.2 535.7L731.8 535.8L731.8 535.6L731.8 535.2L731.9 534.4L731.9 534.3L732.0 533.5L732.0 532.7L732.0 532.0L732.1 531.6L733.4 531.7L733.6 531.7L733.8 531.7L733.8 531.5L734.0 529.6L733.5 529.2L731.4 527.4L729.4 526.3L726.3 524.3L725.6 523.9L725.3 523.7L725.2 523.7L724.8 523.4L724.8 523.4L724.7 523.4L722.2 522.1L721.4 521.9L721.2 521.7L720.0 521.0L720.0 521.0L719.9 520.9L718.1 519.8L716.6 519.0L714.7 517.9L711.0 516.0L710.5 515.8L709.4 515.2L705.3 513.0L703.7 512.2L702.7 511.7L701.7 511.2L700.7 510.5L699.6 509.5L699.7 508.7L699.6 508.7L699.7 508.3L699.9 505.8L699.9 504.5L699.9 502.7L701.8 502.8L702.7 502.8L704.6 503.0L705.0 501.2L705.0 501.0L705.0 500.9L705.0 500.8L704.7 500.3L704.0 499.3L703.9 499.2L703.9 499.2L703.9 499.1L703.8 498.9L703.5 498.1L703.2 497.3L703.1 497.1L703.1 496.7L703.1 496.1L703.1 495.5L703.4 495.5L703.4 495.1L703.5 492.5L703.5 489.6L703.6 487.6L703.6 487.4L703.6 486.8L702.8 486.7L702.7 486.6L702.7 485.6L702.6 484.9L702.5 484.7L702.4 484.4L702.3 484.2L702.2 484.0L702.0 483.6L701.7 483.3L700.7 482.5L700.3 482.2L700.3 482.2L700.1 481.9L699.8 481.7L698.8 480.0L698.7 479.8L698.5 479.6L698.5 479.6L698.4 479.6L698.2 479.5L698.1 479.5L697.3 479.1L697.2 479.0L697.1 479.0L697.0 478.8L697.0 478.7L696.9 477.7L696.9 477.6L696.9 477.5L697.1 477.1L697.4 476.4L697.5 476.2L697.6 475.9L697.7 475.5L697.6 475.2L697.6 475.1L697.5 474.9L697.5 474.8L697.4 474.7L696.9 474.2L696.8 474.0L696.7 473.8L696.6 473.6L696.5 473.3L696.5 473.1L696.5 470.7L696.5 470.5L696.5 470.2L696.6 469.9L697.3 468.5L697.3 468.4L698.0 468.5L698.5 467.7L698.6 466.8L698.5 466.1L698.3 465.6L697.9 464.7L697.5 463.8L697.5 463.7L696.4 462.6L696.3 462.3L696.2 462.1L696.2 461.9L696.2 461.7L696.3 460.8L696.3 460.0L696.4 459.4L696.3 458.5L695.8 458.7L694.3 459.2L694.3 457.8Z" fill="#9ed5dc" stroke="#ffffff" stroke-width="1.2"/><path d="M326.9 640.0L326.9 638.7L326.9 630.1L329.7 630.1L335.4 630.1L338.6 630.1L338.6 627.0L338.6 627.0L335.0 626.9L334.8 626.9L334.8 626.8L334.8 625.2L334.8 624.1L336.4 624.1L340.1 624.2L340.1 627.0L340.8 627.0L341.8 627.0L342.2 627.0L342.2 626.8L342.2 624.5L342.2 624.2L342.2 624.1L342.2 624.0L345.1 626.4L346.4 627.6L346.6 627.7L346.6 627.7L346.9 628.0L347.0 628.0L347.3 628.2L347.4 628.3L347.7 628.5L348.0 628.7L348.4 628.9L348.7 629.0L349.1 629.2L349.5 629.3L349.8 629.4L350.0 629.5L350.5 629.6L350.8 629.6L351.2 629.7L351.6 629.8L352.2 629.8L352.7 629.8L353.1 629.8L353.6 629.8L356.9 629.4L357.4 629.4L358.1 629.4L358.5 629.4L359.0 629.4L359.3 629.4L359.8 629.4L360.3 629.5L360.8 629.5L361.2 629.6L361.7 629.7L362.0 629.8L362.6 629.9L363.1 630.0L363.6 630.2L364.1 630.4L364.3 630.5L365.6 631.0L366.2 631.2L367.1 631.7L368.1 632.1L368.6 632.3L369.5 632.7L369.9 632.9L370.9 633.4L371.0 633.4L371.6 633.6L372.9 634.3L373.8 634.4L376.4 635.3L376.6 635.4L378.8 635.8L380.5 635.8L381.1 635.8L384.0 635.8L385.3 635.8L386.0 635.8L386.8 635.8L387.2 635.8L387.5 635.8L388.1 635.8L388.4 635.8L389.6 635.8L391.2 635.8L392.1 635.8L392.7 635.8L393.1 635.8L393.5 635.8L395.3 635.8L395.7 635.8L396.4 635.8L403.2 635.8L403.2 635.8L403.3 635.8L403.3 635.8L405.6 635.8L406.8 635.8L407.4 635.8L410.3 635.9L411.5 635.9L412.8 635.9L413.7 635.9L414.1 635.9L414.3 635.8L414.7 635.8L415.4 635.8L416.0 635.7L417.2 635.7L418.5 635.6L419.7 635.6L420.5 635.6L421.0 635.6L421.3 635.6L421.7 635.7L422.7 635.7L423.3 635.7L425.5 635.8L425.7 635.8L425.9 635.8L426.0 635.8L429.2 635.9L430.0 636.0L430.4 636.0L432.2 636.1L433.3 636.1L433.6 636.1L433.9 636.1L434.0 636.1L436.5 636.1L437.2 636.1L438.3 636.1L438.6 636.1L440.1 636.0L440.1 636.0L440.9 636.0L441.0 636.0L441.1 636.2L441.0 636.4L441.0 636.6L441.0 638.5L441.0 638.8L441.0 639.2L441.0 639.5L441.5 639.4L444.9 639.4L444.9 642.6L444.9 643.1L444.9 643.3L439.9 643.3L437.5 643.4L437.2 643.4L437.2 651.1L437.5 651.1L437.6 651.1L438.8 651.1L439.1 651.1L439.2 651.1L439.4 651.1L439.8 651.0L440.4 651.0L440.6 651.0L441.0 651.0L441.0 652.4L441.0 653.3L441.0 654.0L441.0 658.9L441.0 659.4L441.0 660.2L440.9 662.6L441.6 662.6L443.3 662.6L447.4 662.5L447.4 662.1L448.6 662.1L448.6 662.1L448.6 662.2L448.6 662.4L448.6 662.5L450.1 662.5L451.6 662.6L452.1 662.6L452.6 662.6L453.3 662.6L453.3 662.6L455.8 662.6L455.8 662.6L456.3 662.6L456.3 663.2L456.3 663.4L456.3 663.5L456.3 663.5L456.6 663.2L456.8 663.0L457.4 662.4L457.6 662.3L457.6 662.1L458.2 661.6L458.4 661.4L458.8 661.0L459.3 660.4L459.5 660.2L459.7 659.9L459.9 659.7L460.2 658.7L460.7 658.7L460.9 658.7L461.2 658.7L461.3 658.7L461.6 658.7L462.0 658.7L462.9 658.7L463.1 658.7L463.8 658.7L463.9 658.7L463.9 658.7L464.0 658.7L464.0 658.7L464.0 658.7L464.2 658.7L464.6 658.7L465.8 658.7L465.9 658.7L465.9 658.7L466.6 658.7L467.2 658.7L467.8 658.7L468.7 658.7L468.7 658.7L468.8 658.7L469.3 658.7L469.4 658.7L471.7 658.6L471.7 658.6L471.7 658.2L471.7 657.7L471.7 656.3L471.7 655.3L471.7 655.0L471.7 653.3L471.7 652.7L471.7 651.0L472.0 651.0L472.6 651.0L473.1 651.0L475.2 651.0L475.4 650.9L475.5 651.0L477.1 651.0L477.2 651.0L477.6 650.9L478.0 650.9L478.1 650.9L478.4 650.9L479.3 650.9L479.4 650.9L479.5 650.9L479.5 651.0L479.5 651.3L479.4 652.2L479.4 652.5L479.4 652.8L479.4 654.2L479.4 655.7L479.4 658.2L479.4 658.6L479.3 660.6L479.3 662.1L479.3 662.3L479.3 662.6L479.2 662.8L479.2 663.0L479.2 663.1L479.2 664.0L479.2 664.9L479.2 666.3L479.2 666.3L479.2 666.4L479.3 666.4L479.3 668.4L479.3 668.5L479.3 670.6L479.3 673.1L479.3 673.4L479.3 676.6L479.3 678.4L479.3 679.0L479.3 679.3L479.3 681.9L479.3 684.2L479.3 685.7L479.3 686.0L479.3 686.6L479.3 688.0L479.3 688.5L479.3 689.9L479.3 691.1L479.3 693.4L479.3 693.5L479.3 694.4L479.3 697.0L479.3 697.2L479.3 697.4L479.3 697.5L479.3 698.0L479.3 699.6L479.3 700.3L479.3 701.3L479.3 702.5L479.3 704.5L479.3 705.1L479.3 705.5L479.3 706.6L479.3 707.2L479.3 708.3L479.3 709.1L479.3 710.8L479.3 711.7L479.3 712.3L479.3 712.6L479.3 712.8L480.6 712.8L481.6 712.8L482.0 712.8L482.1 712.8L483.6 712.8L485.9 712.8L486.1 712.8L486.4 712.8L487.7 712.8L488.5 712.8L488.6 712.8L488.8 712.8L491.9 712.8L491.9 712.8L494.7 712.8L494.8 712.8L495.1 712.8L495.5 712.8L495.7 712.8L495.7 712.8L495.9 712.8L497.0 712.8L498.0 712.8L498.2 712.8L498.4 712.8L498.5 712.8L498.5 713.2L498.5 716.6L502.3 716.6L502.3 716.7L502.3 717.1L502.3 717.2L502.3 717.3L502.3 717.6L502.3 717.7L502.3 718.2L502.3 719.0L502.3 720.4L500.2 720.4L499.4 720.4L498.5 720.4L498.5 720.6L498.5 721.0L498.5 721.5L498.5 724.3L502.3 724.3L502.3 725.1L502.3 728.1L502.2 728.1L501.3 728.1L497.8 728.1L497.0 728.1L494.6 728.1L492.6 728.1L491.9 728.1L491.4 728.0L491.3 728.0L490.8 728.0L490.3 728.0L487.2 728.0L487.0 728.0L487.0 728.2L487.0 729.5L487.0 730.3L487.0 730.7L487.0 731.2L487.0 731.6L486.9 732.1L486.9 732.5L486.9 733.0L486.9 733.5L486.9 733.9L486.9 734.0L486.9 734.6L486.9 735.6L486.9 735.8L486.8 735.8L485.2 735.8L484.8 735.8L484.3 735.8L484.3 737.0L484.2 743.5L482.6 743.5L482.1 743.5L482.0 743.5L482.0 743.0L482.0 742.3L482.0 739.6L482.0 735.8L481.6 735.8L481.0 735.8L481.0 736.1L481.0 736.6L481.0 736.9L481.0 737.6L479.4 737.6L479.3 737.6L479.3 738.4L479.2 739.5L479.2 741.2L479.2 742.1L479.2 742.3L479.2 742.3L479.3 742.3L479.4 742.3L480.6 742.3L481.0 742.3L481.0 742.3L481.0 742.7L481.0 743.5L480.9 743.5L480.1 743.5L479.8 743.5L479.5 743.5L479.2 743.5L478.8 743.5L477.1 743.5L476.5 743.5L475.8 743.5L474.7 743.5L473.4 743.5L472.6 743.5L472.0 743.5L471.6 743.5L471.5 743.5L471.5 741.4L471.5 738.5L471.5 738.4L471.5 737.0L471.5 735.7L470.1 735.7L469.6 735.7L469.3 735.7L469.1 735.7L466.8 735.7L463.8 735.7L463.8 736.0L463.8 736.7L463.8 736.9L463.8 738.6L463.8 740.4L463.8 741.3L465.3 741.7L465.4 742.1L466.0 741.9L466.0 742.0L466.0 743.4L464.8 743.4L464.5 743.4L464.0 743.4L463.8 743.4L463.8 744.4L463.8 746.0L462.8 746.0L460.9 746.0L460.9 744.7L461.5 744.7L461.5 743.4L460.4 743.4L460.0 743.4L460.0 741.4L459.6 741.4L459.5 741.4L459.2 741.6L459.1 741.6L458.6 741.8L458.6 741.9L458.5 743.4L458.0 743.4L457.4 743.4L456.2 743.4L456.2 743.4L456.2 743.5L456.2 743.6L456.2 744.1L456.2 744.2L456.2 746.8L456.2 748.7L456.2 750.4L456.2 750.6L456.2 751.2L456.4 751.2L456.4 751.2L457.6 751.2L459.2 751.2L459.8 751.2L462.1 751.2L462.2 751.2L462.9 751.2L463.1 751.2L463.1 751.3L463.1 751.4L463.1 751.7L463.5 751.7L463.6 751.7L463.8 751.7L463.7 752.1L463.7 752.3L463.7 752.8L463.7 753.9L463.7 754.2L463.7 754.7L462.2 754.7L462.2 755.4L462.6 755.4L462.6 755.5L462.6 755.7L462.6 755.9L462.6 756.0L462.9 756.0L462.9 756.7L463.7 756.7L463.7 757.1L463.7 757.7L463.7 758.0L463.7 758.9L462.4 758.9L459.9 758.9L458.7 758.9L456.4 758.9L456.1 758.9L456.1 760.0L456.1 763.4L456.1 766.7L456.8 766.7L463.8 766.7L463.8 768.2L463.8 769.6L463.8 770.3L463.8 771.2L463.9 772.9L463.9 774.1L463.9 774.4L461.8 774.4L461.6 774.4L460.3 774.4L458.4 774.4L457.3 774.4L456.4 774.4L455.2 774.4L454.9 774.4L454.1 774.4L453.3 774.4L453.2 774.4L451.5 774.4L450.0 774.4L448.6 774.4L448.6 774.0L448.6 773.8L448.6 773.2L448.5 771.5L448.5 771.1L448.5 769.6L448.5 769.1L448.5 767.0L448.5 766.7L448.5 766.7L448.4 766.7L448.3 766.7L447.2 766.7L443.5 766.7L441.1 766.7L440.9 766.7L440.9 769.0L440.9 774.4L439.7 774.4L439.4 774.4L439.1 774.4L437.5 774.5L437.2 774.5L436.8 774.5L435.7 774.5L435.1 774.5L434.8 774.5L434.7 774.5L434.0 774.5L430.9 774.5L430.6 774.5L430.2 774.5L430.2 770.6L431.4 770.6L431.4 772.2L433.8 772.2L434.0 772.2L434.0 770.8L434.0 769.1L434.0 768.2L434.0 767.7L434.0 766.9L434.0 766.7L434.0 766.0L430.2 766.0L430.2 766.2L430.2 766.8L426.4 766.8L426.4 766.1L426.4 762.9L426.4 761.5L426.4 759.1L426.2 759.1L426.0 759.1L424.9 759.1L423.8 759.1L419.7 759.1L419.1 759.1L418.8 759.1L418.8 761.4L418.8 764.1L418.8 764.3L418.8 766.9L418.8 766.9L418.7 766.9L418.5 766.9L411.8 766.9L411.1 766.9L403.4 766.9L403.4 766.5L403.4 762.2L403.4 759.1L403.0 759.1L400.2 759.1L399.9 759.1L399.6 759.1L399.6 763.0L395.9 763.0L395.5 763.0L391.6 763.0L391.6 761.9L391.6 759.1L390.9 759.1L390.4 759.1L389.6 759.1L389.3 759.1L389.3 759.0L389.3 758.8L389.3 757.6L389.3 757.0L389.0 757.0L389.0 755.9L389.3 755.5L387.9 755.5L387.9 755.4L387.9 755.0L387.9 754.7L387.9 754.6L387.9 751.7L387.9 751.4L387.9 751.4L384.7 751.4L383.1 751.4L383.0 751.4L382.0 753.4L381.6 754.0L381.1 754.5L380.2 755.3L379.8 755.5L379.3 755.7L378.5 756.0L377.5 756.3L375.6 756.9L374.3 757.3L373.0 757.7L373.0 757.5L373.0 757.4L373.0 757.3L373.0 757.2L373.0 756.8L373.0 756.0L373.0 755.8L373.0 755.7L373.0 755.6L373.0 755.4L373.0 755.3L373.0 754.7L373.0 753.0L373.1 746.2L373.1 743.6L369.1 743.7L367.1 743.7L367.0 743.7L367.0 742.7L365.3 742.7L365.3 743.7L364.5 743.7L362.7 743.7L361.2 743.7L361.2 741.3L361.2 739.8L361.2 737.9L363.9 737.9L365.3 737.9L365.2 736.0L365.2 734.8L365.2 728.3L365.2 728.2L364.8 728.2L364.8 728.2L364.4 728.2L363.8 728.2L363.1 728.2L362.3 728.2L361.8 728.2L361.3 728.2L357.5 728.2L356.8 728.2L355.7 728.2L355.1 728.2L354.9 728.2L354.7 728.2L354.7 728.2L354.7 728.0L354.7 727.4L353.9 727.4L353.5 727.4L353.5 726.0L353.5 723.0L357.4 723.0L357.4 721.4L357.4 720.6L355.5 720.6L355.5 716.9L355.5 715.1L355.5 714.1L355.5 713.2L355.5 712.8L355.7 712.8L355.7 712.8L355.8 712.8L357.2 712.8L357.4 712.8L357.6 712.8L358.4 712.8L358.5 712.8L358.5 711.5L357.4 711.5L357.4 711.4L357.4 711.2L357.4 710.9L357.4 709.4L357.4 708.5L357.4 707.5L357.4 707.2L357.4 706.8L358.0 706.8L358.3 706.8L358.3 705.1L361.3 705.1L364.5 705.1L366.2 705.1L367.0 705.1L367.0 705.2L367.0 706.1L367.0 707.2L367.0 707.3L367.0 707.6L367.0 708.9L368.8 708.9L368.9 708.9L368.9 707.0L368.9 706.5L368.9 706.1L368.9 706.1L368.8 706.1L368.1 706.1L368.1 707.0L368.0 707.0L367.9 707.0L367.9 705.6L368.8 705.6L368.9 705.6L368.9 705.6L368.9 705.1L368.9 704.7L368.9 704.2L368.9 703.9L368.9 703.5L368.9 703.1L368.9 703.0L368.9 702.4L368.9 701.7L368.9 701.5L368.9 701.2L368.5 700.4L367.9 699.4L367.3 699.4L366.5 699.4L365.9 699.4L365.5 699.4L365.5 699.0L365.5 698.8L365.5 698.7L365.5 698.1L365.5 697.9L365.5 697.9L365.6 697.9L365.7 697.9L365.7 697.9L365.7 697.8L365.7 697.4L365.7 697.4L365.8 697.4L365.8 697.4L365.9 697.4L366.7 697.4L366.8 697.4L368.7 697.4L371.9 697.4L372.8 697.4L372.8 697.4L372.8 697.5L372.8 697.5L372.8 697.6L372.8 698.1L376.4 700.4L376.6 700.5L376.6 700.5L376.6 700.4L376.6 700.2L376.6 700.2L376.6 700.2L376.6 699.1L376.6 697.5L376.6 697.4L376.6 697.3L376.6 696.4L376.6 695.6L376.6 695.0L376.6 694.7L376.6 691.2L376.6 691.1L376.6 691.0L376.6 687.3L376.2 687.3L374.7 687.3L374.7 686.8L373.8 686.8L373.8 686.4L372.8 686.4L372.8 685.9L372.8 684.4L372.8 684.0L372.8 683.8L372.8 682.7L372.8 682.0L372.5 682.0L371.8 682.0L371.8 681.8L372.3 681.8L372.6 681.8L372.6 680.9L372.6 680.8L372.6 680.7L372.6 680.6L372.6 680.6L372.6 680.5L372.6 680.4L372.7 680.3L372.7 680.2L372.7 680.1L372.8 680.0L372.8 680.0L372.8 679.9L372.8 679.1L372.8 677.4L372.8 674.3L372.8 672.3L372.9 671.8L372.9 671.3L372.9 671.2L372.9 670.5L372.9 670.4L374.0 670.4L376.4 670.4L376.7 670.4L376.7 670.4L376.7 670.4L376.7 670.1L376.7 669.4L376.7 669.4L376.7 669.1L376.7 669.1L376.7 667.3L376.7 666.8L376.7 666.6L378.0 666.6L378.5 666.8L378.9 667.0L379.0 667.1L379.2 667.2L379.7 667.1L380.1 667.0L380.3 667.0L380.9 667.0L381.1 666.8L381.1 666.7L381.1 666.6L381.0 666.6L380.8 666.6L380.8 666.7L380.5 666.7L380.5 666.7L380.5 666.6L380.5 666.5L380.5 666.4L380.5 666.3L380.5 666.2L380.5 664.6L380.5 664.3L380.5 664.3L380.2 664.3L379.4 664.3L378.9 664.0L376.7 664.0L375.8 664.0L373.7 664.0L373.5 664.0L372.9 664.0L372.9 664.0L372.9 663.7L372.9 663.7L372.9 663.5L372.9 663.5L372.9 663.1L372.9 663.0L372.9 662.7L369.4 662.7L369.1 662.7L366.4 662.7L365.5 662.7L365.2 662.7L365.2 666.4L365.2 666.5L365.2 667.0L365.1 674.3L362.2 674.3L360.4 674.3L357.6 674.3L357.6 674.3L357.6 674.3L357.5 674.3L356.6 674.3L355.7 674.3L349.8 674.3L349.9 666.6L349.9 666.6L349.5 666.6L348.8 666.6L346.0 666.5L346.0 658.8L345.0 658.8L344.8 658.8L344.7 659.0L344.6 659.1L344.5 659.1L344.4 659.1L344.3 659.2L344.1 659.3L344.0 659.5L344.0 659.5L344.0 659.6L344.0 659.6L343.9 659.8L343.9 659.9L343.8 659.9L343.7 660.0L343.6 660.2L343.4 660.4L343.4 660.6L343.3 660.7L343.3 660.8L343.2 661.0L343.1 661.1L343.0 661.1L342.2 661.8L342.1 661.8L342.1 660.7L342.2 658.7L342.2 654.9L337.4 654.9L334.5 654.9L334.5 654.7L334.5 651.8L334.5 651.4L334.5 651.2L334.5 651.1L334.5 650.7L334.5 650.4L334.5 650.2L334.5 648.5L334.5 647.9L334.5 643.3L334.3 643.4L332.9 643.4L332.7 643.3L332.3 643.3L331.3 643.3L330.0 643.3L326.9 643.3L326.9 643.3L326.9 640.0Z" fill="#5bbcc7" stroke="#ffffff" stroke-width="1.2"/><path d="M463.9 774.4L464.4 774.4L465.2 774.4L471.1 774.4L471.3 774.4L472.3 774.4L472.4 774.4L475.9 774.5L475.9 774.5L477.3 774.5L477.7 774.5L479.3 774.5L479.3 774.4L479.3 773.7L479.2 771.8L479.2 769.1L479.2 767.9L479.2 763.6L479.2 763.2L479.2 762.9L479.2 759.0L479.2 758.9L479.2 757.5L479.2 756.0L479.2 754.7L479.2 754.2L479.2 754.0L479.2 751.5L479.2 750.6L479.2 749.3L479.2 748.2L479.2 747.2L479.2 747.1L479.2 746.7L479.2 746.3L479.2 743.5L479.5 743.5L479.8 743.5L480.1 743.5L480.9 743.5L481.0 743.5L481.2 743.5L481.5 743.5L482.0 743.5L482.1 743.5L482.6 743.5L484.2 743.5L484.3 737.0L484.3 735.8L484.8 735.8L485.2 735.8L486.8 735.8L486.9 735.8L486.9 735.6L486.9 734.6L486.9 734.0L486.9 733.9L486.9 733.5L486.9 733.0L486.9 732.5L486.9 732.1L487.0 731.6L487.0 731.2L487.0 730.7L487.0 730.3L487.0 729.5L487.0 728.2L487.0 728.0L487.2 728.0L490.3 728.0L490.8 728.0L491.3 728.0L491.4 728.0L491.9 728.1L492.6 728.1L494.6 728.1L497.0 728.1L497.8 728.1L501.3 728.1L502.2 728.1L502.3 728.1L502.3 725.1L502.3 724.3L498.5 724.3L498.5 721.5L498.5 721.0L498.5 720.6L498.5 720.4L499.4 720.4L500.2 720.4L502.3 720.4L502.3 719.0L502.3 718.2L502.3 717.7L502.3 717.6L502.3 717.3L502.3 717.2L502.3 717.1L502.3 716.7L502.3 716.6L498.5 716.6L498.5 713.2L498.5 712.8L498.4 712.8L498.2 712.8L498.0 712.8L497.0 712.8L495.9 712.8L495.7 712.8L495.7 712.8L495.5 712.8L495.1 712.8L494.8 712.8L494.7 712.8L491.9 712.8L491.9 712.8L488.8 712.8L488.6 712.8L488.5 712.8L487.7 712.8L486.4 712.8L486.1 712.8L485.9 712.8L483.6 712.8L482.1 712.8L482.0 712.8L481.6 712.8L480.6 712.8L479.3 712.8L479.3 712.6L479.3 712.3L479.3 711.7L479.3 710.8L479.3 709.1L479.3 708.3L479.3 707.2L479.3 706.6L479.3 705.5L479.3 705.1L479.3 704.5L479.3 702.5L479.3 701.3L479.3 700.3L479.3 699.6L479.3 698.0L479.3 697.5L479.3 697.4L479.3 697.2L479.3 697.0L479.3 694.4L479.3 693.5L479.3 693.4L479.3 691.1L479.3 689.9L479.3 688.5L479.3 688.0L479.3 686.6L479.3 686.0L479.3 685.7L479.3 684.2L479.3 681.9L479.3 679.3L479.3 679.0L479.3 678.4L479.3 676.6L479.3 673.4L479.3 673.1L479.3 670.6L479.3 668.5L479.3 668.4L479.3 666.4L479.2 666.4L479.2 666.3L479.2 666.3L479.2 664.9L479.2 664.0L479.2 663.1L479.2 663.0L479.2 662.8L479.3 662.6L479.3 662.3L479.3 662.1L479.3 660.6L479.4 658.6L479.4 658.2L479.4 655.7L479.4 654.2L479.4 652.8L479.4 652.5L479.4 652.2L479.5 651.3L479.5 651.0L479.5 650.9L479.7 650.9L479.9 650.9L481.9 650.9L482.1 650.9L482.3 650.9L483.3 650.9L483.3 650.9L483.3 650.7L483.3 650.4L483.3 650.1L483.3 650.0L483.4 649.3L483.4 649.0L483.4 648.9L483.4 648.8L483.4 648.6L483.4 648.5L483.4 648.4L483.4 648.2L483.4 647.9L483.4 647.8L483.4 647.3L483.4 647.2L483.3 646.8L483.3 646.0L483.3 645.6L483.3 645.0L483.3 643.7L483.3 643.5L483.3 643.4L483.3 643.1L482.1 643.1L481.0 642.9L479.9 642.4L479.7 642.3L479.7 643.1L479.4 643.1L479.4 642.5L479.4 642.3L479.4 642.2L479.4 642.1L479.4 641.6L479.4 641.2L479.4 640.8L479.4 640.0L479.4 639.5L479.4 639.3L479.8 639.3L480.2 639.3L480.8 639.3L481.4 639.3L481.9 639.3L482.6 639.3L483.3 639.3L483.3 638.8L483.3 638.6L483.3 638.2L483.3 638.2L483.3 638.0L483.3 637.8L483.3 637.2L483.3 636.8L483.3 636.0L483.3 635.8L483.3 635.5L483.3 635.4L483.4 635.4L483.7 635.4L484.1 635.4L484.4 635.4L484.5 635.4L484.7 635.4L485.3 635.4L485.5 635.4L485.8 635.4L486.3 635.4L487.1 635.4L487.2 635.4L488.0 635.4L488.9 635.4L489.8 635.4L490.7 635.4L491.6 635.4L492.5 635.4L494.8 635.4L494.8 634.1L494.8 633.7L494.8 633.2L494.8 632.5L494.8 631.0L494.8 630.2L494.8 630.1L494.8 629.9L494.8 629.4L494.7 628.6L494.8 628.2L494.8 628.1L494.8 628.1L494.8 627.6L494.8 627.3L494.8 626.5L494.8 626.0L494.7 625.4L494.8 624.9L494.7 624.1L494.8 623.5L494.7 623.1L494.7 621.7L494.7 620.0L494.7 618.2L494.7 616.4L494.7 616.2L494.7 616.0L494.7 615.7L494.7 615.0L494.7 614.9L494.7 614.7L494.7 613.9L494.7 613.8L494.7 613.7L494.7 612.9L494.7 612.8L494.7 612.6L494.7 612.4L494.7 612.3L494.7 612.2L494.7 612.1L494.7 611.5L494.7 610.7L494.7 610.6L497.4 607.0L498.0 606.2L498.1 606.0L498.2 606.0L498.5 605.8L498.5 605.6L498.5 605.6L498.5 604.9L498.5 604.7L498.5 604.6L498.5 604.5L498.6 604.5L498.6 604.5L498.8 604.5L499.1 604.5L499.6 604.5L499.6 604.5L500.0 604.6L500.7 604.6L501.6 604.5L501.9 604.5L502.2 604.5L502.4 604.5L502.8 604.6L502.9 604.6L503.0 604.5L503.6 604.5L504.2 604.6L504.3 604.5L504.9 604.5L505.2 604.5L505.4 604.5L506.1 604.5L506.2 604.5L506.2 604.4L506.2 604.1L506.2 603.8L506.2 601.4L506.2 600.7L506.3 600.7L506.5 600.7L507.2 600.7L508.2 600.7L508.2 600.7L509.1 600.7L509.2 600.7L509.3 600.7L509.9 600.7L510.0 600.7L510.1 600.7L510.1 600.6L510.1 599.7L510.1 599.7L510.1 599.5L510.1 598.3L510.1 597.4L510.1 596.8L510.1 596.2L510.1 595.6L510.1 595.3L510.0 593.0L510.0 592.2L510.0 590.1L510.0 590.0L510.0 589.4L510.0 589.1L510.0 589.0L510.0 588.2L510.0 587.7L510.0 587.6L510.0 587.5L510.0 587.3L510.0 587.2L510.0 586.4L510.0 584.7L510.0 583.3L510.0 582.5L510.0 581.3L512.9 581.3L513.4 581.3L513.5 581.3L514.3 581.3L514.7 581.3L515.0 581.3L515.2 581.3L515.5 581.3L515.8 581.3L516.0 581.3L516.7 581.3L516.9 581.3L517.3 581.3L517.3 581.3L517.4 581.3L517.6 581.3L517.9 581.3L518.0 581.3L518.1 581.3L518.2 581.3L518.3 581.3L519.2 581.2L519.7 581.3L519.9 581.3L520.0 581.3L520.7 581.3L521.0 581.3L521.7 581.2L522.3 581.2L522.5 581.2L524.1 581.2L525.4 581.2L525.4 580.9L525.4 580.6L525.4 580.2L525.4 580.2L525.4 579.6L525.4 579.3L525.4 578.4L525.4 577.8L525.4 577.1L525.4 576.9L525.4 576.8L525.4 576.1L525.4 576.0L525.4 575.9L525.4 575.8L525.4 575.7L525.4 575.4L525.4 575.1L525.4 573.8L525.4 573.5L525.4 573.3L525.4 572.9L525.4 572.8L525.4 572.4L525.4 571.0L525.4 569.9L525.4 569.0L525.4 568.2L525.4 565.7L528.9 565.7L529.0 565.7L529.2 565.7L531.1 565.7L531.6 565.7L531.6 565.7L531.7 565.7L531.8 565.7L531.8 565.6L531.9 565.7L532.0 565.7L532.3 565.7L532.9 565.7L533.1 565.6L533.1 565.0L533.1 562.9L533.1 562.7L533.1 561.8L533.2 561.8L533.2 561.3L533.2 560.9L533.1 560.0L533.1 559.0L533.1 558.6L533.2 558.5L533.1 558.0L533.1 558.0L533.1 557.3L533.1 554.7L533.3 554.7L533.3 554.1L533.2 554.1L533.1 554.1L533.1 553.6L533.2 553.3L533.1 553.0L533.1 553.0L533.1 552.9L533.1 552.8L533.2 552.8L533.0 552.4L533.0 552.4L533.2 552.4L533.1 551.9L533.1 551.9L533.1 551.9L533.1 551.6L533.1 551.6L533.1 551.6L533.1 551.2L533.1 550.8L533.1 550.8L533.1 550.8L533.1 550.7L533.1 550.7L533.1 550.4L533.1 550.3L533.1 550.3L533.1 550.2L532.8 550.2L532.8 550.1L532.8 550.1L532.8 548.3L532.8 547.9L532.8 547.6L532.8 547.6L532.8 547.5L532.8 547.4L532.8 547.1L532.8 547.0L532.8 546.6L532.8 546.5L532.8 546.0L532.8 545.1L532.8 544.7L532.8 544.3L532.8 544.2L532.8 543.5L532.7 543.3L532.7 542.5L530.5 542.5L530.1 542.5L529.2 542.5L529.2 542.3L529.2 542.2L529.2 541.7L529.2 541.4L528.3 541.5L528.2 541.5L528.1 541.5L527.8 541.5L527.0 541.5L526.7 541.5L525.4 541.5L525.4 541.5L525.4 540.7L525.3 539.8L525.3 539.5L525.4 537.9L525.4 537.6L525.4 537.5L525.4 536.9L525.4 536.7L525.3 536.6L525.4 536.4L525.4 536.1L525.3 536.0L525.3 535.8L525.4 534.8L525.3 534.3L525.3 533.5L525.3 532.3L525.3 531.0L525.3 530.8L525.3 529.9L525.3 529.6L525.3 528.0L525.3 527.1L526.2 527.1L526.3 527.1L527.1 527.1L527.3 527.1L527.3 527.1L527.4 527.1L527.7 527.1L528.1 527.1L528.2 527.1L528.4 527.1L529.4 527.1L529.6 527.1L529.7 527.1L529.8 527.1L530.0 527.1L530.4 527.1L530.6 527.1L530.7 527.1L530.7 527.1L531.5 527.1L532.2 527.1L533.1 527.1L533.2 527.1L533.3 527.1L533.4 527.1L533.8 527.1L534.0 527.1L535.0 527.1L535.1 527.1L535.5 527.1L535.8 527.1L536.0 527.1L537.1 527.1L537.2 527.1L537.3 527.1L537.9 527.1L538.0 527.1L538.3 527.1L538.5 527.1L538.9 527.1L539.8 527.1L540.2 527.1L540.8 527.1L540.8 527.7L540.8 528.1L540.8 528.3L540.6 528.3L538.0 529.3L536.5 529.8L535.8 530.0L535.1 530.3L535.2 530.5L535.2 530.6L535.4 530.9L535.5 531.0L535.6 531.3L535.8 531.5L536.0 531.7L536.1 531.8L536.3 532.2L536.4 532.2L536.5 532.3L537.0 532.9L537.2 533.2L537.3 533.3L537.4 533.4L537.5 533.6L538.0 534.2L538.1 534.3L538.2 534.4L538.4 534.6L538.5 534.7L539.0 535.3L539.1 535.5L539.3 535.7L539.3 535.7L539.5 536.1L539.6 536.3L539.8 536.7L540.0 537.0L540.1 537.4L540.3 537.8L540.3 538.0L540.4 538.4L540.5 538.6L540.5 538.8L540.6 539.6L540.6 539.8L540.6 540.0L540.6 541.0L540.6 541.2L540.6 542.6L540.8 542.6L540.8 543.0L540.8 543.7L540.8 543.9L540.8 544.5L540.8 544.9L540.8 545.1L540.8 548.1L540.8 548.9L540.8 549.1L540.8 550.2L540.8 550.3L540.8 550.7L540.9 552.1L540.9 554.1L540.9 556.6L540.9 557.6L540.9 557.8L540.9 558.0L541.5 558.0L543.2 558.0L543.6 557.9L544.7 557.9L546.9 557.9L548.5 557.9L548.5 558.0L548.5 558.1L548.5 559.0L548.5 559.2L548.5 559.3L548.5 559.4L548.5 559.5L548.5 560.0L548.5 560.1L548.5 560.4L548.5 560.6L548.5 561.0L548.5 561.9L548.5 562.5L548.5 562.9L548.5 563.8L548.5 564.7L548.5 564.8L548.5 565.8L548.6 565.8L550.4 565.8L551.2 565.8L551.5 565.8L552.4 565.8L552.5 565.8L553.0 565.8L554.2 565.8L555.2 565.8L555.3 565.8L556.2 565.8L556.2 567.7L556.2 569.6L556.0 569.7L554.2 569.6L554.3 570.6L554.3 571.4L554.3 571.5L554.3 571.6L554.3 571.9L554.3 572.5L554.2 573.4L554.2 573.5L555.2 573.5L555.3 573.5L556.2 573.5L556.2 573.7L556.2 574.4L556.2 575.1L556.2 575.3L556.2 575.5L556.2 575.7L556.2 576.1L556.2 576.9L556.2 577.0L556.2 577.3L556.2 577.9L556.2 579.1L556.2 579.6L556.2 580.8L556.2 581.2L554.7 581.2L554.3 581.2L553.8 581.2L552.3 581.2L550.9 581.2L550.7 581.2L549.9 581.2L549.8 581.2L549.3 581.2L548.5 581.2L547.2 581.2L546.2 581.2L546.2 583.0L546.2 583.1L546.2 583.9L546.2 585.1L546.6 585.1L546.6 586.0L546.6 586.5L546.6 586.9L546.6 587.0L546.7 587.0L548.5 587.0L548.5 587.4L548.5 588.7L548.5 588.9L548.5 589.0L548.5 589.7L548.5 591.0L548.5 591.9L548.5 592.8L548.5 593.7L548.5 594.7L548.6 595.6L548.6 596.6L548.6 596.6L549.5 596.6L549.7 596.6L550.5 596.6L551.4 596.6L551.5 596.6L551.5 596.6L552.9 596.6L553.6 596.6L553.7 596.6L553.8 596.6L553.9 596.6L554.8 596.6L555.6 596.6L555.8 596.6L556.2 596.6L556.2 597.6L556.2 598.5L556.2 599.5L556.2 600.5L556.2 600.8L556.2 601.0L556.2 601.4L556.2 602.3L556.2 602.4L556.2 603.2L556.2 603.2L556.2 603.3L556.2 603.4L556.2 603.5L556.2 604.3L556.3 604.6L556.2 605.3L556.2 606.7L556.2 607.5L556.2 607.7L556.2 610.1L556.2 610.9L556.2 611.7L556.2 611.9L556.2 612.0L556.2 612.1L556.2 612.6L556.2 613.1L556.2 613.3L556.2 613.7L556.2 615.4L556.2 616.4L556.2 617.1L556.2 617.9L556.2 618.4L556.2 619.6L556.2 619.8L556.3 619.8L557.2 619.8L557.6 619.8L557.7 619.8L557.9 619.7L559.5 619.7L562.6 619.7L563.2 619.7L564.4 619.7L565.3 619.7L565.7 619.7L566.8 619.7L567.7 619.7L568.6 619.7L569.3 619.7L569.6 619.7L569.9 619.7L570.4 619.7L570.9 619.7L571.6 619.7L572.2 619.7L572.8 619.7L573.6 619.7L575.7 619.7L576.5 619.7L576.7 619.7L577.9 619.7L578.6 619.7L578.8 619.7L578.8 619.7L579.2 619.7L579.2 620.5L579.3 621.5L579.3 625.2L579.3 625.6L579.3 626.8L579.3 627.5L578.9 627.5L577.6 627.5L577.5 627.5L575.9 627.5L575.0 627.5L574.4 627.5L573.9 627.5L573.4 627.5L572.2 627.5L571.7 627.5L571.6 627.6L571.6 627.9L571.6 628.2L571.6 628.3L571.6 629.2L571.7 630.0L571.7 630.2L571.7 631.1L571.7 631.9L571.7 632.1L571.7 632.9L571.7 633.0L571.7 633.8L571.7 634.2L571.7 634.3L571.7 634.6L571.7 634.9L571.7 635.1L571.7 635.3L571.7 635.5L571.7 635.7L571.7 637.5L571.7 637.7L571.7 638.3L571.7 638.9L571.7 640.0L571.7 641.3L571.7 642.0L571.7 642.8L571.7 643.6L571.7 643.9L571.7 644.9L571.7 645.1L571.7 645.2L571.7 645.3L571.7 645.9L571.7 646.0L571.8 646.2L571.8 646.3L571.8 646.4L571.9 646.7L572.0 646.7L571.7 646.8L571.7 647.0L570.9 647.2L570.7 647.2L570.6 647.3L570.5 647.3L570.3 647.5L569.5 647.6L569.5 647.7L569.1 647.7L568.0 648.4L567.8 648.5L567.6 648.8L567.4 649.1L567.4 649.3L567.3 649.4L567.3 649.6L567.2 650.2L567.2 650.6L567.1 650.7L567.1 650.8L566.8 650.8L565.9 650.8L565.5 650.8L564.7 650.8L564.1 650.8L564.0 650.8L563.8 650.8L561.2 650.8L559.7 650.8L559.3 650.8L558.3 650.8L558.2 650.8L556.3 650.8L556.3 651.1L556.3 651.3L556.3 652.7L556.3 653.1L556.3 653.3L556.3 653.5L556.3 653.7L556.3 653.9L556.3 654.1L556.3 654.4L556.2 655.6L556.2 656.1L556.2 656.8L556.2 658.3L556.2 659.7L556.2 660.2L556.2 660.5L556.2 661.8L556.2 662.4L556.2 663.8L556.2 665.1L556.1 666.3L557.3 666.3L559.2 666.3L561.5 666.3L562.5 666.3L563.8 666.3L563.8 666.4L563.8 666.5L563.8 668.5L563.8 668.6L563.8 668.9L563.8 668.9L565.1 668.8L565.2 669.4L566.5 669.4L566.6 669.4L566.6 670.0L566.6 670.4L566.6 670.9L566.6 671.2L566.2 672.6L565.4 672.9L564.9 673.0L564.5 673.4L564.2 673.5L564.0 673.5L563.8 673.6L563.5 673.7L563.2 673.9L562.9 674.1L562.8 674.3L562.7 674.8L562.4 675.2L562.3 675.4L562.1 675.4L562.1 675.4L562.0 675.2L561.9 674.8L561.8 674.6L561.6 674.5L561.3 674.5L561.1 674.5L560.8 674.3L560.6 674.2L560.5 674.3L560.2 674.6L560.1 674.7L559.9 674.9L559.9 675.1L559.9 675.5L559.8 675.8L559.4 676.1L559.3 676.6L559.2 676.6L559.0 676.7L558.8 677.1L558.6 677.9L558.6 677.9L556.1 677.9L556.1 678.5L556.1 678.7L556.1 680.0L556.1 680.8L556.1 681.8L556.1 682.2L556.0 684.5L556.0 685.4L556.0 685.7L556.0 686.1L556.0 686.3L556.0 686.9L556.1 687.4L556.1 687.7L556.1 688.0L556.1 688.1L556.1 688.4L556.1 689.6L558.2 689.5L559.6 689.5L559.9 689.5L559.9 691.0L559.9 691.4L559.9 692.0L559.9 693.2L559.9 693.3L559.9 693.4L559.9 693.5L559.9 693.5L559.9 693.6L558.3 693.6L558.2 693.5L558.1 693.6L558.1 693.6L558.0 693.6L558.0 693.6L558.0 693.8L558.0 697.3L557.7 697.3L557.7 697.3L556.0 697.3L556.0 697.4L556.1 697.5L556.0 699.0L556.0 699.7L556.1 701.3L556.0 703.2L556.0 703.9L556.0 704.8L556.0 705.0L556.2 705.0L556.2 705.0L556.6 705.0L559.8 705.0L563.1 705.0L563.7 705.0L563.7 705.5L563.7 705.5L563.7 706.0L563.7 707.8L563.7 708.9L563.6 708.9L563.3 708.9L563.0 708.9L562.9 708.9L562.8 708.9L560.5 708.9L560.1 708.9L559.7 708.9L559.5 708.9L558.5 708.9L558.0 708.9L557.8 708.9L557.0 708.9L556.7 708.9L556.0 708.9L556.0 708.9L556.0 709.1L556.0 709.4L556.0 709.5L556.0 709.9L556.0 710.7L556.0 711.2L556.0 712.7L556.0 714.6L556.0 714.9L556.0 715.5L556.0 715.9L556.1 716.5L556.1 716.5L556.1 716.8L556.1 718.1L556.1 718.9L556.1 719.2L556.1 721.0L556.1 721.2L556.1 722.4L556.1 723.8L556.1 724.1L556.1 724.3L556.0 724.3L555.8 724.3L555.2 724.3L554.9 724.3L554.2 724.3L553.6 724.3L553.1 724.3L552.4 724.3L552.3 724.3L552.3 724.5L552.3 725.4L552.3 726.6L552.3 728.1L553.4 728.2L554.3 728.2L554.8 728.2L554.9 728.2L555.6 728.1L556.1 728.1L556.1 728.3L556.1 728.9L556.1 729.1L556.1 730.8L556.1 731.6L556.1 732.5L556.1 733.5L556.1 735.0L556.1 735.3L556.1 735.3L556.8 735.3L556.8 735.6L556.8 735.9L557.3 735.9L557.8 735.9L558.3 735.9L562.7 735.8L563.3 735.8L563.8 735.8L564.9 735.8L566.2 735.8L568.8 735.8L569.9 735.8L571.5 735.8L571.5 735.6L571.5 734.3L571.5 733.9L571.5 733.2L571.5 732.7L571.5 732.6L571.5 732.1L572.7 732.1L572.8 732.1L572.8 732.2L572.8 732.5L572.8 732.6L572.9 732.8L573.2 732.7L573.5 732.8L573.7 733.0L573.7 733.2L573.8 733.3L573.8 733.4L573.8 733.5L573.8 733.6L573.8 733.7L573.8 733.8L573.8 733.8L573.9 733.8L574.0 733.8L573.9 733.7L574.0 733.7L574.0 733.7L574.0 733.7L574.1 733.7L574.1 733.7L574.1 733.7L574.1 733.7L574.2 733.6L574.2 733.6L574.2 733.6L574.2 733.6L574.2 733.6L574.3 733.6L574.3 733.6L574.3 733.5L574.4 733.5L574.4 733.5L574.4 733.6L574.5 733.6L574.5 733.6L574.4 733.7L574.4 733.7L574.3 733.7L574.3 733.7L574.3 733.7L574.2 733.8L574.2 733.8L574.2 733.8L574.2 733.8L574.4 734.3L575.0 734.3L575.4 734.3L577.6 734.3L578.5 734.3L578.5 733.6L578.5 732.6L578.5 731.2L578.5 730.5L578.6 730.4L578.9 730.4L579.1 730.4L579.1 730.0L579.1 729.6L579.1 729.2L579.1 728.7L579.9 728.6L579.9 728.2L579.9 728.0L579.7 728.0L579.6 728.0L579.4 728.0L579.2 728.0L579.2 728.0L579.1 724.6L579.1 724.1L581.0 724.1L581.3 724.1L581.7 724.1L581.7 724.2L582.1 724.2L583.0 724.1L584.0 724.1L584.2 724.1L585.8 724.1L586.3 724.1L586.8 724.1L586.8 723.5L586.8 723.1L586.8 722.6L586.8 720.2L586.8 719.2L586.8 717.5L586.8 717.3L586.8 716.9L586.8 715.8L586.8 715.2L589.0 715.2L589.4 715.2L590.0 715.2L590.0 715.2L590.0 715.6L590.0 720.3L590.0 721.0L590.0 721.1L590.0 721.2L590.0 721.7L590.0 721.9L590.0 722.6L590.0 722.6L590.0 723.0L590.0 723.1L590.0 723.8L590.0 723.9L590.0 726.3L590.0 726.4L590.0 726.4L590.0 727.8L590.0 727.8L590.0 727.8L590.0 728.0L590.0 728.0L590.0 728.2L590.0 728.7L590.0 728.8L590.0 728.9L590.0 729.0L590.0 729.1L590.1 729.7L590.1 729.8L590.1 729.8L590.0 732.8L590.0 732.9L590.0 733.0L590.0 733.1L589.9 733.1L589.7 733.1L589.4 733.0L589.3 732.8L589.2 732.8L589.1 732.6L588.9 732.4L588.7 732.3L588.7 732.3L588.6 732.3L588.2 732.3L588.0 732.3L587.9 732.3L587.8 732.3L587.7 732.4L587.6 732.5L587.4 732.6L587.4 732.7L587.3 732.7L587.3 732.8L587.2 732.9L587.2 733.1L587.2 733.1L587.1 733.2L587.1 733.5L587.1 733.7L587.2 733.8L587.1 734.0L587.1 734.2L587.1 734.3L587.1 734.5L587.0 734.8L587.1 735.0L587.1 735.2L587.1 735.4L587.1 735.5L587.2 735.7L587.2 735.9L587.2 736.0L587.2 736.1L587.3 736.3L587.4 736.4L587.6 737.3L587.6 737.6L587.7 737.9L587.7 738.0L587.7 738.1L587.7 738.1L587.7 738.4L587.6 738.7L586.9 739.0L586.8 739.0L586.8 739.0L586.8 739.2L586.8 740.1L586.8 740.5L586.8 741.4L586.8 741.9L586.8 742.0L586.8 741.8L586.8 741.7L586.7 741.6L586.6 741.5L586.6 741.5L586.5 741.4L586.3 741.3L586.3 741.2L586.2 741.3L586.2 741.4L585.3 742.5L584.7 742.8L583.6 743.4L583.6 743.4L583.5 743.4L583.5 743.5L583.5 743.5L583.2 745.4L583.1 745.4L583.0 745.4L583.0 745.4L583.0 745.5L582.8 745.8L582.8 745.8L582.6 745.9L582.4 745.9L582.3 746.2L581.9 746.4L581.9 746.4L581.6 746.4L581.1 746.1L580.7 745.8L580.5 745.7L580.1 745.5L579.7 745.4L579.5 745.4L579.2 745.3L579.1 745.3L579.1 745.4L579.2 747.1L579.2 747.2L579.2 747.4L579.4 747.4L579.8 747.4L579.9 747.4L579.9 748.3L579.6 748.7L580.1 749.0L580.2 749.1L580.2 749.0L580.2 749.1L580.4 749.2L580.5 749.2L580.7 748.9L580.7 749.0L580.8 749.0L580.9 749.0L580.9 749.1L581.0 749.1L581.0 749.1L581.0 749.1L581.0 749.1L581.0 749.1L581.1 749.1L581.1 749.1L581.1 749.1L581.2 749.1L581.2 749.1L581.3 749.1L581.3 749.1L581.3 749.1L581.3 749.1L581.4 749.1L581.4 749.1L581.4 749.1L581.4 749.1L581.5 749.1L581.5 749.1L581.5 749.0L581.6 749.0L581.7 749.0L581.8 749.0L581.9 749.0L582.0 749.0L582.1 749.0L582.3 749.0L582.4 749.1L582.6 749.1L582.7 749.2L582.8 749.2L582.9 749.2L583.0 749.6L583.1 749.7L583.2 749.7L583.3 749.8L583.4 749.9L583.5 749.9L584.0 750.1L584.3 750.2L584.4 750.6L584.5 750.7L584.5 750.7L584.6 750.7L584.6 750.7L584.8 751.2L584.9 751.2L585.3 751.2L585.7 751.2L585.7 751.7L585.7 751.9L586.8 751.9L586.8 752.0L586.8 752.3L588.4 752.3L590.0 752.3L590.0 752.5L590.1 752.5L590.3 752.5L590.3 754.6L590.0 754.9L590.0 755.0L590.0 755.1L589.8 755.1L589.8 756.9L586.8 756.9L586.8 758.7L586.8 758.9L586.6 758.9L584.8 758.9L579.9 758.9L578.8 758.9L577.1 758.9L577.0 758.9L576.9 758.9L576.7 758.9L576.6 758.9L576.4 759.0L576.2 759.0L576.2 759.0L576.1 759.0L575.8 759.0L575.7 759.0L575.5 759.0L575.4 759.0L575.4 759.0L575.3 758.9L575.3 757.2L575.3 755.1L573.8 755.1L573.5 755.1L573.4 755.1L573.3 755.1L573.1 755.1L573.1 754.7L573.1 754.6L573.1 754.0L572.7 753.6L572.6 753.5L572.3 753.7L572.0 753.7L572.0 753.6L571.8 753.6L571.6 753.6L571.6 753.7L571.6 753.7L571.6 753.7L571.5 753.7L571.5 753.6L571.5 753.6L571.5 753.4L571.5 753.1L571.5 752.8L571.5 752.7L571.5 752.4L571.5 752.2L571.5 751.7L571.5 750.9L571.5 750.2L571.5 750.0L571.5 748.6L571.5 748.2L571.4 748.5L571.0 749.3L570.3 750.9L570.2 751.2L567.6 751.3L567.6 752.4L567.6 752.4L567.7 752.5L567.8 752.5L567.8 752.5L567.8 752.5L567.8 752.5L567.9 752.6L567.9 752.6L567.9 752.6L568.0 752.6L568.0 752.7L568.0 752.7L568.0 752.8L568.1 752.8L568.1 752.9L568.1 752.9L568.1 753.0L568.1 753.0L568.1 753.6L567.9 754.6L567.9 754.7L567.9 754.7L567.8 754.8L567.8 754.8L567.8 754.9L567.8 754.9L567.8 755.0L567.8 755.1L567.8 755.1L567.9 755.2L567.9 755.2L567.9 755.3L567.9 755.3L567.9 755.4L567.9 755.4L567.9 755.5L568.0 755.5L568.0 755.6L568.0 755.6L567.9 755.6L567.9 755.7L567.8 755.7L567.7 755.8L567.6 755.9L567.6 757.9L567.6 758.8L567.6 759.0L563.8 759.0L562.9 759.0L561.7 759.0L558.4 759.0L557.4 759.0L556.8 759.0L556.8 759.0L556.7 759.0L556.7 759.0L556.7 759.0L556.6 759.0L556.6 759.0L556.6 759.0L556.5 759.0L556.5 759.0L556.5 759.0L556.4 759.0L556.3 759.0L556.3 759.1L556.2 759.1L556.0 759.1L556.1 759.0L556.1 759.0L556.1 758.9L556.1 757.7L556.1 755.5L556.1 754.7L556.1 753.7L556.1 753.3L556.1 752.2L556.1 752.0L556.1 751.7L556.1 750.3L556.1 750.0L556.1 749.6L556.1 748.7L556.1 746.5L556.1 745.6L556.1 745.2L556.1 744.8L556.1 744.0L556.1 743.6L555.0 743.6L554.5 743.6L554.2 743.6L553.8 743.6L553.6 743.6L552.9 743.6L552.2 743.6L552.2 743.7L552.2 743.7L552.2 743.8L552.2 744.3L552.2 744.8L552.2 745.3L552.2 745.6L552.2 745.9L552.2 746.4L552.2 747.0L552.2 747.5L552.2 747.5L552.2 748.0L552.2 748.6L552.2 749.1L552.2 749.7L552.3 750.2L552.3 750.7L552.3 751.3L552.0 751.3L551.0 751.3L550.3 751.3L549.5 751.3L549.4 751.3L549.0 751.3L548.4 751.3L548.4 751.1L548.4 750.5L548.4 750.5L548.4 749.9L548.4 749.0L548.4 748.0L548.4 747.7L548.4 747.5L548.4 747.2L548.4 746.8L548.4 746.4L548.4 746.0L548.4 745.9L548.4 745.5L548.4 744.7L548.4 744.4L548.4 744.2L548.4 743.8L548.4 743.7L548.4 743.7L548.4 743.6L546.9 743.6L545.6 743.6L544.6 743.6L544.6 744.2L544.6 746.1L544.6 747.5L544.6 748.5L544.6 751.3L541.5 751.4L540.8 751.4L540.8 752.3L540.8 754.2L540.8 755.3L540.8 756.7L540.8 757.2L540.8 758.0L540.8 759.1L540.8 759.3L540.8 759.6L540.8 762.1L540.8 763.1L540.8 763.4L541.0 765.0L541.0 765.4L541.1 765.7L541.3 766.4L541.4 766.7L541.6 767.7L541.8 768.4L541.9 768.8L541.9 769.0L542.0 769.5L542.1 769.6L542.1 769.8L542.1 769.9L542.2 770.2L542.2 770.5L542.2 770.7L542.2 771.0L542.2 771.4L542.2 771.9L542.1 772.2L542.0 772.5L541.9 772.8L541.8 773.3L541.5 773.9L541.0 775.3L540.9 775.6L540.8 775.7L540.8 775.8L540.7 776.0L540.6 776.3L540.5 776.7L540.5 776.8L540.4 777.2L540.4 777.6L540.4 777.8L540.4 778.2L540.4 778.6L540.4 778.8L540.5 779.3L540.5 779.6L540.6 780.1L540.7 780.7L540.7 781.1L540.7 781.4L540.7 782.1L540.7 782.3L540.7 782.9L540.7 784.0L540.7 784.3L540.7 785.7L540.7 786.3L540.8 787.3L540.8 788.9L540.8 789.3L540.8 790.0L540.7 790.0L540.6 790.0L538.8 790.0L538.1 790.0L536.4 790.0L534.2 790.0L534.0 790.0L533.7 793.9L533.6 795.2L533.1 801.0L533.0 802.7L532.8 805.4L532.6 807.1L532.6 807.6L532.6 808.0L532.6 808.4L532.7 818.3L532.7 819.3L532.7 820.3L532.7 820.9L532.7 821.6L532.7 823.5L532.8 828.1L532.8 828.7L532.6 828.7L532.2 828.7L527.4 828.6L525.6 828.6L525.5 828.6L525.5 828.5L525.5 827.7L525.5 827.4L525.5 826.1L525.5 824.6L525.5 824.6L525.5 824.4L525.6 823.8L525.6 823.6L525.6 823.5L525.5 823.1L525.5 822.7L525.5 822.4L525.5 822.3L525.5 821.8L525.5 821.0L525.5 820.9L525.5 820.8L525.5 817.8L525.5 815.3L525.5 814.2L525.5 812.9L525.5 812.2L525.5 812.1L525.5 810.5L525.5 810.4L525.5 810.3L525.5 810.2L525.5 810.1L525.5 809.9L525.5 806.3L525.5 805.6L525.4 805.5L525.2 805.5L524.6 805.5L522.8 805.5L521.4 805.5L520.5 805.5L520.4 805.5L520.3 805.5L519.8 805.5L516.4 805.5L516.1 805.5L516.0 805.5L515.5 805.5L515.2 805.5L514.9 805.4L514.0 805.4L512.3 805.5L511.8 805.5L511.5 805.5L510.7 805.4L510.4 805.4L510.3 805.4L510.2 805.4L510.2 805.6L510.2 806.5L510.2 807.2L510.2 807.5L510.2 807.6L510.2 807.9L510.2 808.5L510.2 809.2L510.2 809.3L510.2 811.2L510.2 812.9L510.2 813.1L510.2 813.1L510.0 813.0L509.9 813.0L509.8 813.0L509.6 813.0L509.1 813.0L508.9 813.0L508.8 813.0L508.7 813.0L508.5 813.0L508.3 813.0L507.6 812.9L507.4 812.9L507.3 812.9L507.1 813.0L507.0 813.0L506.9 813.0L506.7 813.0L506.2 812.9L505.1 813.0L504.9 813.0L504.7 812.9L504.3 813.0L501.3 813.0L499.9 813.0L499.5 813.0L498.7 813.0L498.6 805.5L497.7 805.5L497.0 805.5L495.7 805.5L495.0 805.5L494.9 805.5L494.8 805.5L493.3 805.5L492.7 805.5L492.1 805.5L491.0 805.5L489.3 805.4L489.1 805.4L488.1 805.4L487.3 805.4L487.1 805.4L486.9 805.4L485.8 805.4L485.1 805.4L483.4 805.4L481.6 805.4L481.0 805.4L479.5 805.5L479.5 805.4L479.5 805.3L479.5 805.2L479.5 804.7L479.5 803.8L479.5 801.1L479.5 800.4L479.5 798.5L479.5 797.6L479.5 797.3L479.5 795.6L479.4 793.7L479.4 793.7L479.4 792.9L479.4 792.3L479.4 791.7L479.4 791.3L479.4 790.0L479.2 790.0L477.0 789.9L476.8 789.9L475.8 789.9L474.9 789.9L474.6 789.9L474.4 789.9L473.6 789.9L471.8 789.9L471.5 789.9L470.0 789.9L468.5 789.9L467.6 789.9L467.0 789.9L467.0 789.9L465.7 789.9L464.8 789.9L464.0 789.9L464.0 786.3L464.0 785.2L464.0 784.5L464.0 784.2L464.0 782.4L463.9 781.4L463.9 778.2L463.9 776.5L463.9 775.3L463.9 774.6L463.9 774.4Z" fill="#28a5b1" stroke="#ffffff" stroke-width="1.2"/><path d="M459.9 269.2L460.1 267.8L460.5 265.9L461.0 263.3L461.2 262.6L461.8 259.5L462.0 259.1L463.1 255.2L464.1 253.0L465.2 250.0L465.7 248.7L465.9 247.9L466.0 247.4L466.5 246.7L467.0 245.8L467.1 245.8L467.7 244.7L469.6 244.4L471.1 244.5L471.1 244.2L471.1 244.1L469.5 244.1L468.9 244.0L468.3 243.7L467.8 243.4L467.6 243.4L467.7 240.9L467.1 241.0L468.2 234.3L468.2 234.2L469.9 223.2L470.0 222.6L470.1 222.2L471.4 214.1L471.5 213.9L471.6 213.9L472.3 214.0L472.4 214.0L472.6 214.0L472.8 214.0L473.1 214.0L473.3 213.9L474.3 213.5L474.5 213.5L474.8 213.4L475.0 213.4L475.4 213.4L478.7 213.4L478.7 211.0L478.7 210.7L478.7 210.4L478.7 210.0L478.7 209.7L478.7 209.1L478.8 209.1L479.5 209.1L479.9 209.1L480.0 209.1L481.5 209.1L486.7 209.1L486.6 205.6L486.6 203.1L486.6 198.1L486.6 198.1L486.6 198.0L486.6 197.9L486.6 197.8L486.6 197.4L487.0 197.4L487.2 197.4L498.8 197.3L513.7 197.2L514.3 197.2L518.0 197.1L518.0 197.1L518.2 197.1L518.9 197.1L524.9 197.0L531.8 197.0L533.5 197.0L533.5 195.3L534.3 195.3L534.3 197.1L540.9 197.4L545.8 197.2L545.8 197.7L546.0 212.9L545.9 219.3L556.5 219.5L569.0 219.9L570.1 220.0L572.1 220.0L579.3 220.2L587.4 220.2L596.0 220.1L599.9 220.2L608.6 220.1L609.4 220.1L609.5 220.1L610.0 220.1L617.6 220.3L617.6 220.3L618.2 220.3L618.3 220.3L618.4 220.3L618.6 220.3L621.2 220.3L622.3 220.3L624.1 220.3L624.7 220.3L627.3 220.2L627.4 220.2L628.6 220.3L629.1 220.3L629.1 220.8L629.1 222.6L629.1 225.4L629.1 227.0L629.1 228.2L629.1 228.5L629.1 230.1L629.1 231.8L630.3 231.8L632.2 231.8L633.0 231.8L633.0 232.3L633.0 235.7L640.0 235.7L640.0 235.9L643.7 235.9L646.3 236.0L654.5 236.0L667.6 236.1L685.6 236.4L685.8 236.4L686.2 236.4L686.1 238.7L686.1 240.2L693.8 240.4L693.8 243.6L693.9 244.3L701.0 244.4L701.0 243.6L701.0 243.3L705.1 243.3L705.5 243.5L705.9 243.9L707.4 244.3L707.9 244.5L708.5 245.0L708.7 245.0L708.7 245.0L708.7 245.8L708.6 248.7L708.6 250.6L708.6 250.8L708.6 251.2L708.6 252.0L709.1 252.0L712.5 252.0L720.6 252.1L724.0 252.2L724.5 252.2L724.5 259.7L724.5 260.3L724.4 267.5L726.3 267.5L727.4 267.5L727.4 268.1L730.8 268.1L730.8 268.3L730.9 268.3L730.9 269.4L730.8 275.1L730.8 275.7L725.0 275.7L724.2 275.7L724.1 275.7L724.0 275.6L723.8 282.4L723.8 282.6L723.8 283.0L723.8 283.4L723.3 283.4L723.3 283.7L723.3 286.9L722.9 286.9L722.9 287.2L722.4 290.9L722.4 291.0L722.4 291.1L722.3 291.8L722.0 291.6L721.8 291.4L721.5 291.2L721.3 291.0L721.1 290.9L720.5 290.7L720.0 290.4L718.7 289.8L717.0 289.0L716.8 288.9L716.5 288.7L716.5 290.5L716.5 290.9L716.1 290.9L715.9 290.9L715.6 298.2L715.5 300.8L715.3 306.4L715.3 307.8L715.3 308.1L715.2 311.0L715.1 312.7L715.0 312.7L714.8 312.8L714.6 312.7L714.6 312.7L714.3 314.1L711.7 319.9L711.4 320.6L706.9 329.1L705.7 331.1L705.6 331.3L705.1 332.3L704.7 332.9L704.7 333.0L704.7 333.0L703.5 335.3L702.6 336.7L702.4 336.7L701.6 336.7L700.7 336.7L699.8 336.7L699.8 336.7L699.0 336.6L696.1 336.6L695.3 336.6L694.3 336.7L693.6 336.6L692.1 336.7L690.8 336.6L687.9 336.6L684.8 336.6L684.8 336.6L684.8 336.7L684.8 339.7L684.8 342.3L684.8 343.3L684.8 344.0L684.8 344.3L684.7 347.6L684.7 348.1L684.7 348.6L684.7 351.2L684.7 351.8L684.7 351.8L681.3 351.8L680.7 351.9L680.5 352.0L680.1 352.2L679.9 352.3L679.9 352.4L679.9 352.9L679.8 353.1L679.7 353.4L679.3 353.6L679.1 353.6L678.8 353.6L678.6 353.3L678.4 353.2L678.1 353.1L677.8 353.1L677.5 353.2L677.0 353.4L676.5 353.7L676.3 353.7L676.0 353.6L675.6 353.5L675.5 353.4L675.5 353.1L675.6 352.7L675.6 352.5L675.6 352.3L675.6 352.3L675.3 352.1L675.0 352.1L674.8 352.1L674.5 352.2L674.2 352.3L674.1 352.2L673.9 352.2L673.6 352.1L673.3 352.2L673.0 352.1L673.1 354.4L673.1 354.6L673.1 354.8L673.1 355.0L673.1 355.6L673.1 356.2L673.1 356.5L673.1 356.9L673.1 357.3L673.1 359.2L673.1 359.3L673.1 360.1L673.1 360.7L673.1 361.0L673.0 361.3L673.0 361.6L673.1 362.2L673.1 362.4L673.0 363.9L673.0 365.7L673.0 366.7L673.0 366.9L675.7 366.8L676.7 366.8L676.8 366.8L677.1 366.8L680.7 366.8L682.5 366.8L684.5 366.7L684.5 366.7L684.5 364.9L684.5 364.1L684.5 363.4L684.5 363.2L685.0 363.2L685.1 363.1L685.8 363.2L686.4 363.2L687.2 363.2L687.6 363.2L688.1 363.2L688.2 363.2L692.0 363.2L692.0 363.7L691.7 366.9L693.7 367.0L694.6 367.0L695.3 367.0L695.8 367.0L696.1 367.0L696.4 367.0L697.4 367.0L699.5 367.1L700.7 367.1L701.2 367.1L701.8 367.1L702.2 367.1L704.5 367.1L704.6 367.2L704.6 367.4L704.6 367.6L704.6 367.9L704.5 368.2L704.4 368.4L704.3 368.5L704.2 368.7L704.1 369.0L704.0 369.2L703.8 369.3L703.7 369.4L703.6 369.6L703.6 369.8L703.6 370.1L703.6 370.2L703.6 370.3L703.6 370.4L703.8 370.5L703.9 370.6L704.0 370.8L704.3 370.9L704.6 370.9L704.8 370.9L705.0 371.1L705.3 371.3L705.5 371.5L705.8 371.7L705.9 371.8L706.2 372.0L706.4 372.2L706.7 372.4L707.0 372.5L707.3 372.8L707.6 373.1L707.8 373.3L708.0 373.4L708.0 373.5L708.2 373.5L708.3 373.4L708.5 373.3L708.7 373.3L708.9 373.3L709.1 373.3L709.2 373.4L709.4 373.5L709.6 374.0L709.7 374.1L709.7 374.6L709.8 374.8L709.9 374.9L710.1 375.1L710.4 375.2L711.1 375.5L711.2 375.5L711.3 375.7L711.4 375.8L711.4 376.0L711.3 376.3L711.3 376.4L711.2 376.6L711.2 376.8L711.2 376.9L711.3 376.9L711.3 377.0L711.4 377.1L711.4 377.3L711.5 377.6L711.6 377.7L711.6 377.8L711.7 378.1L711.7 378.2L711.9 378.4L712.1 378.5L712.2 378.7L712.5 378.8L712.7 379.0L712.9 379.3L713.2 379.6L713.3 379.8L713.3 380.0L713.4 380.6L713.4 380.7L713.5 380.8L713.9 380.9L714.5 381.1L714.5 381.5L714.9 381.6L715.0 381.7L715.2 381.7L715.7 382.0L718.4 383.7L718.4 383.5L718.4 383.6L718.6 383.7L718.7 383.9L718.8 384.0L719.0 384.1L719.3 384.3L719.5 384.4L719.6 384.6L720.1 385.0L720.2 385.0L720.4 385.3L720.6 385.5L720.7 385.9L720.9 386.5L721.1 386.9L721.1 387.1L721.2 387.3L721.4 387.3L721.4 387.3L721.5 387.3L721.6 387.4L721.7 387.3L721.9 387.3L722.0 387.3L722.1 387.2L722.1 387.1L722.2 386.9L722.2 386.6L722.2 386.2L722.2 385.8L722.3 385.3L722.3 385.0L722.4 384.7L722.4 384.3L722.5 384.0L722.5 383.8L722.6 383.7L722.7 383.6L722.7 383.5L722.6 383.4L722.6 383.4L722.6 383.3L722.6 383.2L722.6 383.1L722.6 383.1L722.6 383.0L722.6 382.7L722.6 382.5L722.6 382.3L722.6 382.1L722.6 381.9L722.6 381.7L722.6 381.5L722.6 381.2L722.6 381.1L722.7 380.8L722.7 380.7L722.8 380.5L723.0 380.2L723.1 380.1L723.1 379.9L723.1 379.5L723.1 379.3L723.1 379.0L723.1 378.7L723.2 378.3L723.2 377.9L723.3 377.6L723.3 377.4L723.5 377.1L723.6 377.1L723.9 376.8L724.2 376.4L724.5 376.3L725.0 375.9L725.3 375.6L725.5 375.4L725.5 374.9L725.6 374.7L725.7 374.4L725.9 374.0L726.0 373.6L726.1 373.5L726.8 373.5L726.9 373.4L727.2 373.1L727.4 373.0L727.6 372.9L727.9 372.7L728.5 372.4L728.8 372.2L729.2 372.0L729.7 371.8L730.1 371.6L730.3 371.5L730.5 371.3L730.8 371.1L731.1 370.8L731.3 370.6L731.4 370.4L731.5 370.0L731.6 369.8L731.6 369.5L731.7 369.4L731.9 369.1L732.0 369.0L732.2 368.8L732.4 368.5L732.6 368.3L732.9 368.1L733.2 368.0L733.6 367.9L733.9 367.8L734.4 367.7L735.0 367.5L735.5 367.3L735.9 367.3L736.3 367.3L736.8 367.3L737.2 367.3L737.4 367.4L737.6 367.5L737.6 367.7L737.8 368.0L737.9 368.1L738.2 368.2L738.5 368.3L739.1 368.4L739.2 368.5L739.3 368.7L739.7 368.9L739.8 369.1L739.9 369.2L740.1 369.2L740.4 369.1L740.6 369.0L740.8 369.0L741.3 368.9L741.8 369.0L742.1 369.1L742.2 369.3L742.2 369.5L742.4 369.7L742.4 369.9L742.4 370.4L742.4 370.5L742.4 370.5L742.5 370.7L742.6 370.9L742.8 371.0L742.9 371.3L743.0 371.5L743.2 371.6L743.6 371.7L744.4 371.9L744.6 371.9L744.8 371.8L745.0 371.7L745.2 371.6L745.3 371.4L745.3 371.2L745.4 370.8L745.4 370.7L745.3 370.5L745.4 370.2L745.4 369.9L745.4 369.6L745.4 369.4L745.5 369.2L745.6 369.0L745.7 368.9L745.9 368.9L746.0 368.8L746.1 368.6L746.3 368.5L746.4 368.4L746.6 368.4L746.9 368.3L747.6 368.2L748.3 368.1L748.7 368.1L749.3 367.9L749.9 367.8L750.4 367.7L750.9 367.7L751.4 367.8L751.5 367.7L754.3 368.4L754.0 370.0L758.9 380.7L759.3 381.6L759.3 381.7L759.4 381.8L759.5 382.1L759.5 382.3L759.5 382.4L761.1 387.1L761.5 388.4L760.4 395.7L760.1 396.8L759.5 399.0L758.0 400.1L756.8 401.3L754.0 404.8L751.8 407.2L751.0 408.4L748.5 411.3L746.6 413.5L745.4 415.4L744.9 416.0L744.1 417.4L743.3 418.8L742.1 421.0L740.2 423.4L736.4 427.4L735.4 428.1L729.5 433.6L729.1 434.0L727.9 435.1L727.4 435.3L726.9 435.6L726.2 435.9L724.9 436.5L723.7 437.1L722.8 437.4L721.6 437.6L720.4 437.7L718.9 437.8L717.6 437.8L715.8 437.9L710.2 436.8L709.0 436.3L708.6 435.9L707.9 435.4L706.4 434.8L706.4 434.7L706.3 434.6L706.0 434.5L705.9 434.4L705.9 436.4L705.6 436.2L705.2 436.0L704.8 435.7L704.3 435.2L704.3 436.3L704.3 436.6L704.3 437.0L704.3 437.1L704.4 437.5L704.9 439.3L705.2 440.2L705.2 440.7L705.4 440.9L705.5 441.3L705.7 441.4L705.8 441.4L705.8 442.0L705.8 443.8L705.8 443.9L705.7 444.3L705.7 445.3L705.7 445.5L705.7 445.7L705.7 445.8L705.7 446.4L705.7 446.5L705.5 450.8L705.6 451.1L705.5 451.5L705.5 451.7L705.5 452.5L704.6 452.4L704.6 452.4L703.2 452.5L703.2 452.8L703.2 453.4L703.3 453.7L703.3 453.8L703.3 453.8L703.3 453.9L703.3 454.3L703.4 454.6L703.4 454.7L703.4 454.8L703.4 454.9L703.4 455.0L703.3 455.2L703.2 455.4L703.2 455.5L703.0 455.8L702.8 455.9L702.7 455.9L702.1 455.5L701.8 455.3L701.7 455.3L701.5 455.2L701.4 455.2L701.2 455.2L701.1 455.2L700.9 455.2L700.8 455.3L700.7 455.4L700.7 455.4L700.6 455.4L700.6 455.5L700.5 455.6L700.4 455.7L700.4 455.7L698.7 455.1L698.4 454.9L698.1 454.8L697.7 454.6L697.7 454.8L697.7 455.8L697.2 455.9L697.2 455.8L694.4 455.8L694.4 456.0L694.4 456.7L694.3 457.8L694.3 459.2L695.8 458.7L696.3 458.5L696.4 459.4L696.3 460.0L696.3 460.8L696.2 461.7L696.2 461.9L696.2 462.1L696.3 462.3L696.4 462.6L697.5 463.7L697.5 463.8L697.9 464.7L698.3 465.6L698.5 466.1L698.6 466.8L698.5 467.7L698.0 468.5L697.3 468.4L697.3 468.5L695.5 468.3L694.0 468.3L692.4 468.2L690.5 468.1L690.0 468.1L689.8 475.1L689.8 475.2L689.8 475.4L689.8 476.4L689.8 476.9L689.8 479.0L689.7 479.3L689.7 485.3L689.5 486.7L690.0 486.6L690.0 486.6L690.1 486.7L691.3 486.8L691.7 486.7L692.5 486.8L693.1 486.8L694.4 486.9L695.9 487.0L695.9 486.4L696.5 486.5L696.6 486.5L702.8 486.7L703.6 486.8L703.6 487.4L703.6 487.6L703.5 489.6L703.5 492.5L703.4 495.1L703.4 495.5L703.1 495.5L703.1 496.1L703.1 496.7L703.1 497.1L703.2 497.3L703.5 498.1L703.8 498.9L703.9 499.1L703.9 499.2L703.9 499.2L704.0 499.3L704.7 500.3L705.0 500.8L705.0 500.9L705.0 501.0L705.0 501.2L704.6 503.0L702.7 502.8L701.8 502.8L699.9 502.7L699.9 504.5L699.9 505.8L699.7 508.3L699.6 508.7L699.7 508.7L699.6 509.5L700.7 510.5L701.7 511.2L702.7 511.7L703.7 512.2L705.3 513.0L709.4 515.2L710.5 515.8L711.0 516.0L714.7 517.9L716.6 519.0L718.1 519.8L719.9 520.9L720.0 521.0L720.0 521.0L721.2 521.7L721.4 521.9L722.2 522.1L724.7 523.4L724.8 523.4L724.8 523.4L725.2 523.7L725.3 523.7L725.6 523.9L726.3 524.3L729.4 526.3L731.4 527.4L733.5 529.2L734.0 529.6L733.8 531.5L733.8 531.7L733.6 531.7L733.4 531.7L732.1 531.6L732.0 532.0L732.0 532.7L732.0 533.5L731.9 534.3L731.9 534.4L731.8 535.2L731.8 535.6L731.8 535.8L731.2 535.7L731.0 535.7L730.7 535.7L730.7 536.2L730.8 536.4L730.7 536.3L730.6 537.1L730.6 537.2L730.6 538.2L730.6 539.2L730.6 540.0L730.4 541.7L730.4 541.8L730.4 542.9L729.7 542.8L728.7 542.8L726.0 542.6L725.8 542.6L725.4 542.6L724.9 542.6L724.7 542.7L722.6 542.5L721.5 542.4L720.8 542.4L720.8 542.6L720.8 542.7L720.7 544.9L720.6 545.6L719.9 545.6L719.0 545.5L718.1 545.5L716.5 545.4L715.6 545.3L714.8 545.3L714.2 545.3L713.7 545.3L709.9 545.0L707.0 544.8L704.3 544.7L704.0 544.7L702.8 544.6L702.6 544.6L702.3 544.6L702.3 544.6L701.4 544.5L700.9 544.6L700.6 544.6L699.3 544.5L697.4 544.4L696.6 544.4L695.6 544.3L695.4 544.3L695.3 544.2L694.5 544.2L694.3 544.2L694.2 544.2L693.8 544.2L693.8 545.6L693.7 548.6L693.7 548.6L693.6 552.5L693.5 556.2L693.4 558.4L693.4 559.2L693.3 560.9L693.2 563.6L692.9 570.2L692.9 570.2L692.9 571.3L692.9 571.9L692.9 572.3L692.9 572.6L692.9 572.9L692.8 575.1L692.8 577.1L692.7 577.5L692.6 577.9L692.6 578.3L692.7 578.7L692.8 579.0L693.0 580.4L693.0 580.5L693.2 581.2L693.2 581.6L693.1 581.9L693.0 582.4L692.8 582.7L692.5 583.6L692.4 584.4L692.4 585.3L692.3 586.1L692.3 586.5L692.3 586.8L693.1 586.8L693.4 586.8L693.3 588.2L693.2 591.7L692.8 592.7L691.2 594.4L689.0 596.9L688.0 598.2L686.9 599.4L684.7 601.8L683.4 603.3L683.1 604.3L683.1 605.1L683.0 605.2L682.9 605.9L682.7 606.4L682.4 606.8L681.8 607.4L681.2 607.9L680.2 608.9L679.8 609.5L679.7 610.0L680.6 610.0L681.7 610.1L683.0 610.1L683.0 610.2L683.4 610.2L683.4 610.2L684.5 610.3L688.8 610.5L689.7 610.5L690.7 610.6L690.7 610.6L691.6 610.6L692.6 610.6L693.6 610.7L694.4 610.7L696.0 610.9L699.8 611.0L701.8 611.1L702.8 611.2L703.6 611.2L703.7 611.2L704.4 611.2L704.5 611.2L707.2 611.4L707.5 611.4L714.1 611.7L718.1 611.9L719.8 612.0L722.1 612.2L724.5 612.4L727.0 612.5L727.4 612.4L727.4 612.3L727.5 611.4L727.5 610.2L727.6 609.0L727.6 605.2L727.7 601.7L727.7 598.5L727.9 594.9L727.9 594.0L728.0 593.2L728.1 591.2L728.2 588.9L728.2 588.1L727.3 588.0L726.5 588.0L726.3 588.0L724.1 588.0L724.1 587.6L724.1 585.3L724.4 583.9L724.4 582.9L724.5 582.2L724.5 581.8L724.5 581.1L724.5 579.3L724.6 578.8L724.6 577.8L724.8 573.6L724.8 573.3L724.9 572.9L724.9 570.7L724.9 570.3L724.9 570.2L724.9 569.3L724.9 568.0L725.0 565.6L725.1 565.0L725.1 564.4L725.1 564.2L725.1 563.3L725.2 561.5L725.2 560.7L725.2 560.6L725.2 559.7L725.2 559.1L725.2 558.0L725.3 556.8L725.3 555.6L725.5 552.2L725.5 550.3L725.6 548.0L725.6 548.0L726.7 547.7L727.0 547.4L727.2 547.1L727.3 546.8L727.4 546.5L727.5 546.2L727.6 545.9L727.8 545.6L727.9 545.4L728.1 545.4L730.4 545.5L731.1 545.5L732.9 545.6L734.0 545.7L736.7 545.8L737.6 545.8L738.5 545.9L739.6 545.9L740.5 546.0L740.6 544.9L740.6 543.4L740.6 543.4L740.7 540.8L740.7 539.8L740.7 539.4L740.7 537.7L740.8 536.5L742.9 536.6L748.5 536.7L749.3 536.7L749.4 536.1L749.5 535.2L755.0 535.5L759.1 535.8L760.0 535.8L760.6 535.8L760.6 535.8L761.3 535.9L761.9 535.9L765.5 536.1L771.3 536.4L772.1 536.5L772.1 537.4L771.9 542.3L771.7 545.9L771.7 548.4L771.6 550.3L771.5 551.1L771.3 552.0L771.2 552.3L771.3 553.3L771.6 553.9L771.7 554.2L772.2 555.1L772.3 555.5L772.8 556.0L773.1 556.6L773.1 556.8L773.2 557.2L773.1 557.7L773.1 558.1L773.1 559.0L772.8 560.4L772.8 560.6L772.5 561.8L772.3 563.0L772.3 563.3L772.3 563.7L772.0 565.8L771.9 566.5L771.9 566.8L771.6 567.3L771.5 567.5L771.5 567.5L771.3 567.8L771.2 568.3L771.2 568.5L771.3 569.2L771.4 569.6L771.5 570.0L771.6 570.3L771.5 570.7L771.5 571.1L771.4 573.0L771.0 575.6L771.0 576.1L770.8 577.2L770.8 578.1L770.8 579.3L770.9 580.8L770.8 581.8L770.9 582.9L771.0 584.8L771.1 585.8L771.1 587.2L771.1 587.9L771.1 589.4L771.1 591.5L770.9 592.6L770.9 592.6L770.7 595.3L770.7 595.5L770.2 599.1L770.1 599.5L769.9 603.3L770.3 603.3L773.4 603.5L773.3 604.3L773.3 604.5L773.3 605.4L773.2 607.0L773.1 609.9L773.0 616.6L773.0 616.8L772.9 618.3L770.9 618.3L770.3 618.4L767.6 618.3L765.2 618.3L765.0 618.3L765.1 618.1L765.0 616.0L765.0 615.4L765.1 615.1L761.3 615.0L761.3 614.9L761.3 614.0L761.0 614.0L760.2 614.0L759.8 613.9L759.6 613.9L759.0 612.7L758.8 612.4L758.7 612.4L758.5 612.1L758.5 612.1L757.6 610.4L757.6 610.3L757.6 610.2L757.0 610.2L756.2 610.2L755.7 610.1L755.8 610.9L755.8 611.3L755.7 611.9L756.6 611.9L757.2 612.0L757.6 612.0L757.5 614.0L755.9 615.5L755.2 616.3L754.0 617.7L753.8 617.7L753.8 617.8L753.1 617.8L752.9 620.7L752.9 621.3L752.6 621.3L752.4 621.2L752.3 621.2L749.6 621.0L749.6 621.2L749.3 624.9L749.3 625.3L749.3 625.5L749.2 625.8L750.0 626.3L750.9 627.0L751.3 627.4L751.9 628.2L752.3 628.7L752.2 628.8L752.3 629.0L752.6 629.5L752.8 629.9L752.8 630.1L753.1 632.0L753.2 632.3L753.3 632.6L753.5 633.1L753.5 633.6L753.5 634.0L753.6 634.9L753.5 635.1L753.1 636.6L752.8 636.6L747.9 636.4L741.8 636.1L741.5 636.1L741.2 636.0L739.2 635.8L739.2 635.8L739.1 635.8L737.5 635.7L737.2 635.8L735.6 635.6L735.1 635.6L733.9 635.6L731.0 635.5L730.1 635.3L729.5 635.4L728.8 635.5L722.3 635.1L721.9 635.1L721.8 636.4L721.7 638.9L721.7 639.9L721.7 640.2L721.7 640.8L721.7 640.9L721.7 641.4L721.7 641.5L721.7 641.6L721.7 642.1L721.7 642.2L721.7 644.0L721.7 644.4L721.5 646.1L721.5 646.3L721.5 646.4L721.5 646.6L721.4 647.4L721.4 648.1L721.2 650.2L721.1 650.2L720.5 650.2L720.5 650.4L720.5 650.4L720.5 650.5L720.4 650.8L720.4 651.7L720.4 652.6L720.3 653.5L720.2 654.6L720.2 654.8L720.1 656.4L719.8 660.0L719.8 660.6L719.7 661.5L719.7 662.0L719.6 663.5L719.5 664.2L719.5 664.5L719.5 664.9L719.6 665.3L719.6 666.1L719.6 666.2L719.6 666.3L719.6 666.4L719.6 666.6L719.2 666.6L719.1 666.6L713.6 666.2L712.6 666.2L711.5 666.1L708.5 666.0L704.7 665.9L704.7 666.1L704.3 674.1L704.2 675.1L704.2 675.6L704.0 679.0L704.0 679.2L703.9 680.8L703.9 684.9L703.7 692.4L703.6 695.1L703.6 696.9L703.4 707.8L703.3 711.3L706.7 711.5L709.8 711.6L722.2 712.1L725.4 712.3L726.9 712.2L729.7 712.4L732.6 712.5L733.5 712.5L734.5 712.5L734.8 712.5L736.0 712.6L736.2 712.6L736.6 712.7L736.9 712.7L737.1 712.7L737.0 713.2L736.9 717.4L736.9 718.2L736.9 718.7L736.9 719.2L736.7 727.1L736.7 727.8L736.7 728.7L736.7 728.8L736.6 730.6L736.1 744.1L735.9 744.1L735.7 744.1L735.6 744.1L734.8 744.1L731.6 744.0L731.2 744.0L731.2 744.0L731.1 744.0L731.0 743.9L730.0 743.9L727.5 743.8L727.3 743.8L723.6 743.6L721.7 743.5L716.1 743.3L712.6 743.1L708.4 742.9L708.3 742.9L705.1 742.7L704.8 742.7L704.2 742.7L701.7 742.6L694.9 742.2L693.8 742.2L687.3 741.9L687.3 741.9L687.2 741.9L686.5 741.9L685.5 741.9L686.1 729.7L686.2 726.9L686.2 726.4L686.2 725.9L686.2 725.8L686.6 716.8L686.7 713.6L686.8 712.6L686.9 711.0L687.1 708.1L687.3 703.0L687.3 701.5L687.3 701.4L687.4 698.7L687.4 698.2L687.5 695.3L687.5 695.2L687.4 692.4L687.4 692.0L687.5 690.6L687.9 682.8L688.0 681.6L688.1 680.1L688.2 678.1L688.2 677.9L688.3 676.1L688.3 675.6L688.4 672.4L681.4 672.1L680.9 672.1L679.2 671.9L678.1 671.9L677.2 671.9L676.3 671.8L675.1 671.8L674.2 671.7L669.6 671.4L669.6 671.4L667.1 671.2L666.9 671.2L666.4 671.2L665.9 671.1L664.9 671.1L663.7 671.0L662.6 670.9L660.2 670.7L660.1 670.7L659.9 670.6L659.5 670.6L659.4 670.6L659.4 670.1L659.4 670.1L659.1 670.1L659.1 670.1L659.1 670.1L659.0 670.1L659.0 670.1L658.7 670.0L657.8 670.0L656.7 669.9L655.8 669.8L651.5 669.6L647.6 669.4L645.2 669.2L644.6 669.2L643.6 669.1L643.6 669.6L643.6 669.7L643.5 670.2L637.3 669.9L636.9 669.8L634.8 669.7L629.5 669.3L628.9 669.3L628.7 672.3L628.4 679.7L628.4 680.3L628.3 680.8L628.2 684.2L628.0 688.1L627.9 688.6L627.9 688.8L627.8 691.8L627.2 703.8L627.0 706.9L627.0 707.4L626.8 709.8L626.6 712.7L626.4 715.1L626.9 715.1L627.0 715.1L629.2 715.2L629.7 715.2L631.8 715.3L631.8 715.3L631.9 715.3L639.6 715.8L641.2 715.9L650.7 716.5L653.3 716.6L656.4 716.8L656.8 716.8L656.8 717.7L656.7 718.5L656.7 719.2L656.6 719.6L656.6 719.8L656.5 720.7L656.2 722.6L656.0 723.9L655.9 724.6L655.9 724.7L655.8 724.9L655.5 726.8L655.5 726.9L655.3 728.7L655.3 729.9L654.8 737.1L654.7 739.8L654.2 739.8L653.8 739.8L653.1 739.7L652.5 739.7L652.0 739.7L651.6 739.6L650.2 739.6L647.8 739.4L646.8 739.4L646.4 739.4L646.2 739.4L645.2 739.5L644.6 739.5L644.6 739.5L644.5 740.6L644.5 740.8L644.5 741.0L644.4 745.9L644.3 746.6L644.2 746.7L644.2 746.7L644.2 746.8L644.2 746.8L644.2 746.8L644.0 748.1L643.7 748.2L643.4 748.2L643.2 748.2L643.2 748.3L641.4 748.8L639.6 749.5L639.3 749.6L638.5 749.9L638.4 749.8L638.3 749.3L637.2 749.6L637.0 749.7L635.8 749.3L635.3 749.1L634.8 748.9L634.2 748.6L633.7 753.7L632.9 753.7L632.3 753.7L630.3 753.5L629.5 754.2L628.9 756.8L628.8 757.3L628.0 760.2L628.0 760.3L624.4 760.4L624.4 760.0L624.6 757.2L624.6 756.8L624.7 754.5L625.0 753.2L625.7 749.7L626.0 748.1L626.7 744.6L627.2 742.2L627.9 738.4L627.7 738.4L627.4 738.4L627.4 738.4L627.2 738.4L626.9 738.3L626.4 738.3L625.8 738.2L625.5 738.2L624.9 738.1L624.6 738.1L624.2 738.1L623.5 738.0L621.9 737.9L617.7 737.6L617.3 737.6L617.2 737.6L617.2 737.6L610.9 737.2L609.1 737.1L608.7 737.1L608.5 737.1L607.8 737.1L601.7 736.7L599.2 736.6L591.6 736.1L590.0 736.1L590.0 733.2L590.0 733.1L590.0 733.0L590.0 732.9L590.0 732.8L590.1 729.8L590.1 729.8L590.1 729.7L590.0 729.1L590.0 729.0L590.0 728.9L590.0 728.8L590.0 728.7L590.0 728.2L590.0 728.0L590.0 728.0L590.0 727.8L590.0 727.8L590.0 727.8L590.0 726.4L590.0 726.4L590.0 726.3L590.0 723.9L590.0 723.8L590.0 723.1L590.0 723.0L590.0 722.6L590.0 722.6L590.0 721.9L590.0 721.7L590.0 721.2L590.0 721.1L590.0 721.0L590.0 720.3L590.0 715.6L590.0 715.2L590.0 715.2L590.0 714.8L590.0 714.0L590.0 713.9L590.0 712.7L590.0 712.4L590.0 712.1L590.0 709.9L590.0 709.1L590.0 707.8L590.0 706.8L590.0 705.4L590.0 702.4L590.0 701.1L590.0 699.7L590.0 698.7L590.0 698.2L590.0 697.2L590.0 694.2L590.0 692.1L590.1 690.5L590.1 689.6L590.0 687.0L590.0 686.7L590.0 686.4L590.0 686.4L590.0 686.2L590.0 686.1L590.0 685.7L590.0 683.8L590.0 683.3L590.0 681.9L590.0 681.4L590.0 681.0L590.0 680.7L590.0 680.5L590.0 680.0L590.0 679.8L590.0 679.6L590.0 679.1L590.0 678.9L590.0 678.1L590.0 677.4L590.0 677.3L590.0 676.9L590.0 676.4L590.0 676.3L590.0 676.1L590.0 675.0L590.0 674.0L590.0 673.6L590.0 672.9L590.0 672.0L590.0 671.5L590.0 670.8L590.0 670.4L590.0 669.7L590.0 668.3L590.0 667.5L590.0 667.0L590.0 666.6L590.0 666.3L590.0 666.2L590.0 666.1L590.0 665.7L590.0 659.6L590.0 659.5L590.0 659.4L590.0 659.2L590.0 659.0L590.0 658.9L590.0 658.5L590.0 658.3L590.0 657.9L590.0 657.6L590.0 657.3L590.0 656.3L590.0 656.2L590.0 655.6L590.0 655.2L590.0 655.1L590.0 654.8L590.0 654.4L590.0 654.1L590.0 653.3L590.0 652.8L590.0 652.3L590.0 651.5L590.0 651.4L590.0 651.3L590.0 650.8L590.0 650.6L590.0 649.0L590.0 648.7L590.0 647.3L590.0 646.9L590.0 645.6L590.0 645.1L590.0 644.1L590.0 642.7L590.0 642.4L590.0 641.8L590.0 641.7L590.0 641.4L590.0 640.9L590.0 640.7L590.0 640.5L590.0 640.3L590.0 639.9L589.9 639.3L589.9 639.2L589.9 639.1L589.9 639.0L589.9 638.1L589.9 637.6L589.9 637.5L589.9 637.4L589.9 636.9L589.9 636.6L589.9 636.5L589.9 635.4L589.9 634.4L589.9 634.4L589.9 634.2L589.9 633.2L589.9 631.1L589.9 630.3L589.9 628.4L589.9 627.7L589.9 625.2L589.9 625.0L589.9 624.9L589.9 623.2L589.9 621.4L589.9 620.8L589.9 620.4L589.9 620.3L589.9 619.8L589.9 619.1L589.9 618.3L589.9 616.4L589.9 615.4L589.9 614.9L589.9 613.4L589.9 613.3L589.9 613.1L589.9 613.0L589.9 612.8L589.9 612.4L589.9 612.0L589.9 611.3L589.9 611.1L589.9 610.6L589.9 609.5L589.9 608.4L589.9 606.7L589.9 605.1L589.9 604.7L589.8 603.6L589.8 602.6L589.8 602.4L589.8 601.7L589.8 601.6L589.8 601.5L589.8 601.4L589.8 600.7L589.8 600.3L589.7 598.8L589.7 598.6L589.7 597.8L589.7 597.5L589.7 597.1L589.7 596.5L589.6 595.9L589.7 595.1L589.7 593.0L589.9 590.9L589.9 590.5L589.9 589.9L589.9 589.6L589.9 589.3L589.9 589.1L590.0 587.1L590.0 587.0L590.0 586.9L590.0 585.4L590.0 583.5L590.1 581.6L590.1 581.5L590.0 581.4L590.1 581.1L590.1 581.0L590.1 580.8L590.1 580.5L590.1 579.8L590.1 579.4L590.1 579.2L590.1 578.4L590.1 577.7L590.1 577.5L590.1 576.9L590.1 576.5L590.1 575.8L590.1 575.5L590.1 575.4L590.1 575.0L590.1 574.7L590.1 574.6L590.1 574.2L590.1 574.0L590.1 573.8L590.1 573.7L590.1 573.6L590.1 573.3L590.1 573.3L590.1 572.7L590.1 571.9L590.1 571.6L590.1 571.0L590.1 570.6L590.1 570.1L590.1 569.3L590.2 569.2L590.2 568.4L590.2 567.5L590.2 567.0L590.2 566.5L590.2 566.3L590.2 565.5L590.2 562.4L590.2 561.9L590.2 561.8L590.2 561.2L590.2 560.8L590.2 560.3L590.2 559.6L590.2 559.1L590.2 559.0L590.2 558.4L590.2 557.8L590.2 557.7L590.2 556.3L590.2 556.2L590.2 556.1L590.3 555.4L590.3 555.2L590.3 555.1L590.3 555.0L590.3 553.4L590.3 551.8L590.3 551.5L590.3 551.4L590.3 551.2L590.3 549.9L590.3 549.8L590.3 549.2L590.3 549.0L590.3 548.3L590.3 548.2L590.3 547.5L590.4 546.2L590.4 543.8L590.4 541.7L590.4 541.1L590.4 541.0L590.4 539.8L590.4 538.5L590.4 537.9L590.4 537.6L590.4 537.4L590.4 537.3L590.4 536.3L590.4 536.1L590.4 535.8L590.4 535.3L590.4 535.0L590.4 534.8L590.4 534.7L590.4 534.6L590.4 534.6L590.4 534.5L590.4 534.3L590.5 534.1L590.5 534.0L590.5 533.9L590.5 533.5L590.5 531.8L590.5 531.7L590.5 530.9L590.5 530.5L590.5 530.5L590.5 530.2L590.5 529.7L590.5 529.4L590.5 528.5L590.5 528.4L590.5 528.3L590.5 527.1L590.5 526.5L590.5 524.6L590.6 522.6L590.6 522.1L590.6 521.3L590.6 520.6L590.6 519.6L590.6 518.4L590.6 517.4L590.6 516.2L590.6 515.1L590.6 513.0L590.6 512.6L590.6 511.6L590.6 511.4L590.6 509.6L590.6 508.2L590.6 507.8L590.6 507.2L590.6 506.3L590.6 506.0L590.7 506.0L590.7 505.3L590.6 505.2L590.6 505.1L590.6 504.1L590.6 503.5L590.6 502.6L590.6 502.2L590.6 500.7L590.6 499.9L590.6 499.8L590.6 498.8L590.6 497.0L590.6 497.0L590.6 496.3L590.6 496.0L590.6 495.5L590.6 495.3L590.6 495.0L590.6 494.9L590.6 494.4L590.6 494.3L590.6 494.2L590.6 494.1L590.6 493.6L590.6 493.4L590.6 493.2L590.6 492.9L590.6 492.3L590.6 491.4L590.6 489.4L590.6 487.2L590.6 487.2L590.6 487.0L590.6 486.9L590.6 486.7L590.7 486.4L590.6 485.6L590.6 485.6L590.6 485.5L590.6 485.0L590.6 482.5L590.6 482.0L590.6 481.0L590.7 478.7L590.6 477.1L590.7 470.9L590.7 469.4L590.7 469.2L590.7 469.0L590.7 468.8L590.7 468.6L590.7 468.6L590.7 468.1L590.6 467.8L590.7 467.8L590.7 467.7L590.7 467.6L590.7 467.3L590.7 467.0L590.7 466.2L590.7 465.8L590.7 465.7L590.7 463.0L590.7 462.1L590.7 462.0L590.7 461.8L590.6 461.4L590.6 460.7L590.7 460.0L590.6 459.8L590.6 459.7L590.7 459.5L590.6 458.9L590.6 458.5L590.6 458.3L590.6 457.2L590.6 456.7L590.6 455.9L590.6 455.3L590.6 454.6L590.5 453.5L590.5 453.3L590.0 451.7L590.0 451.6L589.7 450.9L589.6 450.5L589.8 448.7L589.8 448.6L589.8 448.4L589.8 448.3L589.8 448.3L590.0 447.5L590.3 446.8L590.5 446.2L590.9 445.5L591.3 444.8L591.7 444.1L591.9 444.0L592.1 443.6L592.4 443.1L592.9 442.4L593.3 441.9L593.7 441.4L593.8 441.3L593.8 441.2L593.9 441.1L596.1 438.4L596.4 438.0L601.9 431.2L604.0 428.6L604.6 427.3L604.9 426.4L605.3 424.7L605.7 422.1L605.8 421.0L605.9 420.0L606.2 415.9L606.2 414.8L606.0 413.4L605.7 413.0L604.3 409.6L602.5 408.1L601.7 407.4L600.1 406.6L599.8 406.5L598.6 405.9L598.3 405.8L598.3 405.8L598.1 405.7L597.0 405.4L596.6 405.2L595.8 404.8L595.2 404.5L595.2 404.5L595.2 404.5L595.2 403.3L595.3 402.8L595.3 402.7L595.3 400.2L595.3 399.1L595.3 399.1L595.3 399.0L595.3 397.7L595.3 397.6L595.3 397.4L595.3 397.4L595.3 397.0L595.3 396.2L595.3 394.5L595.4 390.0L595.4 389.4L595.4 388.7L595.4 385.8L595.4 383.1L595.4 382.7L595.4 381.8L595.4 381.7L595.4 381.4L595.4 381.4L595.4 381.0L595.6 380.1L595.6 379.6L595.6 378.7L595.6 377.7L595.6 377.6L595.6 377.1L595.6 376.7L595.6 375.1L595.6 375.1L595.5 374.8L595.5 374.8L595.5 374.8L595.5 374.7L595.5 374.6L595.5 374.1L595.5 373.7L595.5 373.6L594.0 373.6L593.0 373.6L592.0 373.6L591.3 373.6L591.3 373.5L590.0 373.6L589.5 373.5L588.6 373.2L588.0 373.1L586.6 372.7L585.8 372.7L585.7 373.3L585.7 373.6L585.6 373.6L585.5 373.6L585.3 373.6L585.0 373.1L584.4 373.1L583.3 373.5L583.2 373.6L583.1 373.6L583.0 373.6L582.5 373.6L582.3 373.6L582.1 373.6L581.7 373.6L581.3 373.6L579.7 373.6L578.8 373.6L576.2 373.5L574.6 373.5L574.2 373.5L573.7 373.5L573.3 373.5L572.7 373.5L570.5 373.5L570.5 373.8L567.1 373.8L566.7 373.8L564.7 373.8L558.2 373.9L558.3 374.1L558.3 374.2L557.4 374.8L557.1 374.2L557.6 373.9L556.6 373.9L556.6 373.8L556.5 373.8L556.6 373.9L556.3 373.9L555.4 373.9L555.4 373.9L555.3 373.9L548.3 373.8L547.7 373.8L547.7 373.5L547.7 373.4L547.8 357.2L547.8 356.7L547.9 356.6L547.8 355.7L547.9 354.5L547.9 352.7L547.9 351.7L547.8 350.7L547.8 350.6L547.8 350.5L547.8 350.3L547.8 350.1L544.7 350.0L544.7 349.8L544.7 348.6L545.9 348.6L545.9 347.1L547.5 347.1L547.8 347.1L547.8 344.6L547.8 344.4L547.8 343.1L547.8 342.7L547.8 342.5L548.6 342.5L548.9 342.4L548.9 340.2L549.0 340.0L549.0 339.8L549.0 339.6L549.0 339.3L549.0 338.4L549.0 338.3L549.0 336.7L547.8 336.7L547.5 336.7L547.3 336.7L547.0 336.5L546.9 336.5L546.8 336.5L546.7 336.4L546.6 336.4L546.5 336.3L546.0 337.2L545.1 338.7L545.1 338.7L545.1 338.9L545.0 339.0L544.9 339.2L544.8 339.3L544.7 339.4L544.6 339.5L544.4 339.6L544.3 339.7L543.0 340.5L542.2 340.9L540.2 342.1L539.7 342.4L539.5 342.6L539.3 342.5L538.9 342.5L538.7 342.5L537.7 342.5L537.4 342.6L537.2 342.7L536.7 343.0L535.8 343.3L535.8 343.4L535.7 343.5L535.6 343.5L535.3 344.0L533.9 346.0L533.7 346.1L532.4 346.9L532.3 347.0L532.0 347.2L532.0 346.3L532.0 345.2L532.0 344.8L532.0 342.1L532.0 338.7L532.0 333.3L531.9 329.0L531.9 325.6L532.0 321.0L532.0 319.4L531.5 319.4L530.1 319.4L530.1 321.4L529.1 321.4L529.1 319.4L529.1 319.4L528.9 319.4L528.8 319.3L528.8 319.3L528.7 319.3L528.7 319.2L528.7 319.2L528.7 319.2L528.7 317.3L528.7 316.5L528.7 315.1L528.7 314.2L528.7 313.3L528.7 312.4L528.7 311.8L528.0 311.8L525.5 311.7L525.5 311.7L525.4 311.7L524.9 311.7L524.4 311.7L523.4 311.7L521.9 311.6L521.7 311.6L521.2 311.7L521.1 311.6L521.0 311.6L521.0 312.1L520.1 312.1L519.1 312.1L518.2 312.1L518.0 312.1L517.8 312.1L517.8 312.1L515.0 312.0L513.6 312.1L513.6 313.9L513.6 315.4L507.0 315.5L501.9 315.6L499.4 315.7L486.7 315.9L483.8 315.9L483.5 315.9L483.4 315.9L482.7 315.9L482.7 315.9L482.6 315.9L482.6 315.9L480.9 315.9L480.0 315.9L474.6 315.8L474.6 315.5L474.6 313.7L474.6 313.6L474.6 313.6L474.6 312.2L474.6 310.7L474.8 304.0L474.8 290.5L474.8 283.0L471.6 282.8L471.6 282.4L463.3 282.4L463.0 281.6L462.8 280.8L462.5 280.0L460.0 270.4L459.9 269.2Z" fill="#1e8892" stroke="#ffffff" stroke-width="1.2"/>
  </g>
  <text x="434.8" y="550.7" text-anchor="middle" font-size="17" font-weight="700" fill="#0f172a" font-family="Georgia, serif" style="paint-order:stroke;stroke:rgba(255,255,255,0.9);stroke-width:3px">Shawnee</text><text x="434.8" y="568.7" text-anchor="middle" font-size="12.5" fill="#64748b" font-family="-apple-system, Helvetica, Arial, sans-serif" style="paint-order:stroke;stroke:rgba(255,255,255,0.9);stroke-width:3px">20/mo · 10%</text><text x="442.1" y="613.4" text-anchor="middle" font-size="17" font-weight="700" fill="#0f172a" font-family="Georgia, serif" style="paint-order:stroke;stroke:rgba(255,255,255,0.9);stroke-width:3px">Lenexa</text><text x="442.1" y="631.4" text-anchor="middle" font-size="12.5" fill="#64748b" font-family="-apple-system, Helvetica, Arial, sans-serif" style="paint-order:stroke;stroke:rgba(255,255,255,0.9);stroke-width:3px">20/mo · 10%</text><text x="780.9" y="488.7" text-anchor="middle" font-size="17" font-weight="700" fill="#0f172a" font-family="Georgia, serif" style="paint-order:stroke;stroke:rgba(255,255,255,0.9);stroke-width:3px">Independence</text><text x="780.9" y="506.7" text-anchor="middle" font-size="12.5" fill="#64748b" font-family="-apple-system, Helvetica, Arial, sans-serif" style="paint-order:stroke;stroke:rgba(255,255,255,0.9);stroke-width:3px">20/mo · 10%</text><text x="416.5" y="693.1" text-anchor="middle" font-size="17" font-weight="700" fill="#0f172a" font-family="Georgia, serif" style="paint-order:stroke;stroke:rgba(255,255,255,0.9);stroke-width:3px">Olathe</text><text x="416.5" y="711.1" text-anchor="middle" font-size="12.5" fill="#64748b" font-family="-apple-system, Helvetica, Arial, sans-serif" style="paint-order:stroke;stroke:rgba(255,255,255,0.9);stroke-width:3px">60/mo · 30%</text><text x="539.5" y="677.6" text-anchor="middle" font-size="17" font-weight="700" fill="#ffffff" font-family="Georgia, serif" style="paint-order:stroke;stroke:none;stroke-width:3px">Overland Park</text><text x="539.5" y="695.6" text-anchor="middle" font-size="12.5" fill="rgba(255,255,255,0.92)" font-family="-apple-system, Helvetica, Arial, sans-serif" style="paint-order:stroke;stroke:none;stroke-width:3px">150/mo · 75%</text><text x="656.9" y="485.6" text-anchor="middle" font-size="17" font-weight="700" fill="#ffffff" font-family="Georgia, serif" style="paint-order:stroke;stroke:none;stroke-width:3px">Kansas City</text><text x="656.9" y="503.6" text-anchor="middle" font-size="12.5" fill="rgba(255,255,255,0.92)" font-family="-apple-system, Helvetica, Arial, sans-serif" style="paint-order:stroke;stroke:none;stroke-width:3px">200/mo · 100%</text>
</svg>