<svg xmlns="http://www.w3.org/2000/svg" viewBox="0 0 1240 779" role="img" width="100%" height="auto">
  <rect x="0" y="0" width="1240" height="779" rx="20" fill="#ffffff" stroke="#e7eef2" stroke-width="1.5"/>
  <text x="48" y="58" font-size="34" font-weight="700" fill="#0f172a" font-family="Georgia, serif">Where Omaha HVAC searches actually live</text>
  <text x="48" y="92" font-size="19" fill="#64748b" font-family="-apple-system, Helvetica, Arial, sans-serif">Darker = more monthly Google searches for &quot;hvac [area]&quot; · US · Ahrefs, June 2026</text>
  <line x1="48" y1="110" x2="1192" y2="110" stroke="#eef2f6" stroke-width="1.5"/>
  <path d="M585 533L585 527L531 504L524 497L524 497L522 492L520 484L522 474L542 402L532 348L522 345L510 338L498 325L495 319L495 314L511 265L512 262L517 216L473 132L894 133L1192 134L1191 534L992 533L585 533Z" fill="#eef2f6" stroke="#d8e3ea" stroke-width="1" fill-rule="evenodd"/><path d="M520 650L408 642L277 723L180 666L173 498L320 497L524 497L524 497L531 504L585 527L585 533L573 658L554 650L520 650Z" fill="#eef2f6" stroke="#d8e3ea" stroke-width="1" fill-rule="evenodd"/><path d="M524 497L320 497L173 498L152 411L48 263L171 263L510 263L511 265L495 314L495 319L498 325L510 338L522 345L532 348L542 402L522 474L520 484L522 492L524 497Z" fill="#eef2f6" stroke="#d8e3ea" stroke-width="1" fill-rule="evenodd"/>
  <path d="M335.9 549.4L336.4 549.3L336.4 549.2L336.4 549.1L336.4 548.8L336.4 547.7L336.4 547.5L336.4 547.2L336.4 546.5L337.0 546.5L337.0 546.0L338.4 546.4L340.6 547.1L343.0 547.1L344.8 546.7L344.8 543.7L344.8 539.5L353.1 539.5L353.2 539.6L353.2 537.7L353.2 534.4L353.2 531.6L353.2 531.2L353.2 530.8L353.2 527.1L353.2 525.8L353.1 525.8L352.3 526.0L351.5 526.5L349.1 526.4L349.1 525.9L349.1 525.6L352.3 523.4L353.1 523.4L353.2 523.4L353.2 522.8L353.3 522.8L353.7 522.8L361.4 522.7L361.5 522.7L361.7 522.7L363.8 522.7L364.5 522.7L369.9 522.7L372.2 522.7L373.2 522.7L374.3 522.7L376.4 522.6L378.0 522.7L378.2 522.7L378.4 522.7L378.5 523.8L380.8 523.7L382.1 523.7L382.1 522.6L386.6 522.6L386.6 520.1L386.6 518.0L386.6 517.9L386.6 517.5L386.6 516.2L386.6 515.5L386.6 515.1L386.8 515.3L387.2 515.5L387.3 515.6L389.6 517.3L389.6 517.4L389.7 517.7L389.8 517.8L393.0 519.9L393.6 520.3L395.7 521.8L396.2 522.1L396.8 522.6L397.1 522.8L398.0 523.4L398.6 523.8L398.9 524.0L399.2 524.3L399.2 524.3L399.2 524.3L399.4 524.4L399.5 524.5L399.6 524.5L399.6 524.5L399.7 524.6L399.9 524.8L400.0 525.0L400.2 525.3L400.3 525.4L400.6 525.8L401.0 526.2L401.2 526.4L401.3 526.5L401.5 526.6L401.9 526.9L402.4 527.1L402.8 527.3L403.0 527.3L403.2 527.3L403.3 527.3L403.4 527.3L403.5 527.3L403.5 527.3L403.6 527.3L403.8 527.4L403.8 527.2L403.9 527.2L404.0 527.3L404.1 527.3L404.1 527.4L404.2 527.4L404.3 527.4L404.3 527.4L404.4 527.5L404.5 527.5L404.5 527.5L404.6 527.6L404.7 527.6L404.7 527.6L404.8 527.7L404.9 527.7L404.9 527.7L405.0 527.8L405.1 527.8L405.1 527.9L405.2 527.9L405.3 527.9L405.3 528.0L405.4 528.0L406.6 528.6L406.9 528.7L408.1 529.3L409.0 529.7L410.0 530.2L410.1 530.2L410.2 530.3L410.3 530.3L410.4 530.3L410.5 530.4L410.6 530.4L410.8 530.5L410.8 530.5L410.9 530.6L411.0 530.6L411.1 530.6L411.2 530.7L411.3 530.7L411.4 530.7L411.6 530.7L411.5 526.1L410.6 526.1L410.1 526.1L410.1 526.2L409.3 526.2L409.3 526.8L409.0 526.8L408.1 526.7L408.1 525.4L403.8 525.4L403.5 525.4L403.5 524.8L403.5 523.3L403.5 522.8L403.5 522.2L403.5 521.7L403.5 521.5L403.5 521.3L403.5 521.2L403.5 520.9L403.5 519.3L403.5 517.6L403.5 517.5L403.5 517.1L403.5 517.0L403.5 516.5L403.5 514.5L403.5 514.3L403.5 514.2L403.7 514.2L404.4 514.2L405.1 514.2L405.4 514.2L406.0 514.2L406.2 514.2L406.8 514.2L407.5 514.2L408.4 514.2L409.1 514.2L409.2 514.2L411.1 514.2L411.8 514.2L412.2 514.2L414.7 514.2L416.9 514.2L417.3 514.2L417.7 514.2L418.1 514.2L418.4 514.2L419.7 514.2L419.8 514.2L421.3 514.2L422.2 514.2L422.9 514.2L423.9 514.2L424.4 514.2L424.6 514.3L425.6 514.3L426.8 514.3L428.1 514.3L429.7 514.3L431.1 514.3L431.8 514.3L432.0 514.3L432.2 514.3L432.4 514.3L432.9 514.3L433.2 514.3L433.4 514.3L433.9 514.3L434.4 514.3L435.6 514.3L436.3 514.3L436.6 514.3L437.9 514.3L438.7 514.3L440.7 514.3L440.8 517.7L440.8 517.8L440.8 517.9L440.8 520.0L440.8 521.8L440.8 521.9L440.8 521.9L440.8 522.0L440.8 522.7L438.3 522.7L437.8 522.7L437.8 522.7L437.7 522.7L437.5 522.8L437.4 522.8L437.3 522.8L436.9 522.7L436.7 522.7L436.7 523.6L436.7 523.7L436.7 527.0L437.3 527.3L437.8 527.2L438.6 526.8L439.3 526.8L439.9 527.2L440.2 527.7L440.3 527.9L440.3 528.5L440.3 529.1L440.3 529.3L440.3 529.5L440.6 530.1L440.6 530.3L440.6 531.1L440.7 531.1L442.2 531.1L442.9 531.1L444.9 531.1L444.9 531.8L444.9 532.9L444.9 533.1L444.9 533.4L445.0 534.3L445.0 534.4L445.0 535.3L445.0 536.4L445.0 538.3L445.0 538.6L445.0 539.0L444.1 539.0L442.8 539.0L441.8 538.9L440.1 538.9L440.1 538.9L440.1 539.0L440.1 539.0L439.8 539.0L438.8 539.0L438.8 536.9L438.8 534.6L438.8 534.5L438.8 534.0L438.8 533.9L438.8 533.5L438.8 532.3L438.8 532.0L438.8 531.1L437.7 531.1L437.6 531.1L436.9 531.1L436.8 531.1L436.8 531.4L436.9 532.1L437.1 533.4L437.2 533.5L437.2 533.5L437.4 533.5L437.4 533.8L437.2 533.8L437.3 534.1L437.4 534.6L437.4 534.9L437.5 535.5L437.5 537.0L437.5 538.7L437.6 538.7L437.6 539.0L437.6 540.3L437.6 540.9L437.5 540.9L437.4 540.9L437.3 540.9L437.2 540.8L437.1 540.8L437.0 540.8L436.9 540.8L436.8 540.7L436.7 540.7L436.6 540.7L436.5 540.7L436.2 540.6L436.0 540.6L435.7 540.4L435.5 540.4L435.4 540.4L435.2 540.4L435.0 540.4L434.6 540.3L434.0 540.1L434.0 540.1L433.7 540.0L433.7 540.0L433.5 540.0L433.5 540.0L433.4 540.0L433.4 540.4L433.4 542.4L433.4 544.9L433.4 545.0L433.4 545.1L433.4 545.5L433.4 545.5L433.4 545.5L433.4 545.7L433.4 545.8L433.4 545.9L433.4 546.0L433.4 546.1L433.4 546.2L433.4 546.2L433.4 546.4L433.4 546.4L433.4 546.6L433.4 546.8L433.4 547.0L433.4 547.4L433.4 547.7L436.1 547.8L436.2 547.8L436.7 547.8L436.9 547.8L437.1 547.8L437.2 547.8L437.2 547.8L437.4 547.8L437.4 547.8L437.5 547.8L437.5 548.5L437.2 549.6L436.9 550.9L436.9 551.1L436.9 551.8L436.9 551.9L437.1 551.9L437.5 551.9L437.6 551.9L439.0 551.9L439.0 551.9L440.6 551.9L440.8 551.9L440.8 552.1L440.8 552.2L440.8 554.8L440.8 555.1L440.8 555.9L440.8 557.7L440.8 558.1L440.8 558.9L440.8 559.2L440.8 559.8L440.8 560.0L440.8 560.2L440.8 560.5L439.6 560.5L439.2 560.5L439.1 560.6L438.3 562.1L438.3 562.2L438.3 562.4L436.8 562.4L436.8 562.4L436.6 562.4L436.6 562.4L436.6 562.6L436.6 562.6L436.6 562.7L436.6 562.9L436.6 563.1L436.6 564.0L436.6 564.7L436.6 564.8L436.5 564.8L435.4 564.8L435.3 564.9L435.3 564.9L435.2 564.9L434.8 565.0L434.7 565.0L434.3 565.1L434.0 565.2L433.8 565.3L433.4 565.5L433.0 565.6L432.7 565.6L432.4 565.7L432.2 565.7L431.8 565.8L431.8 565.8L431.3 565.8L428.9 565.8L428.9 565.8L428.8 565.8L428.5 565.8L428.3 565.8L428.3 565.8L428.3 565.7L428.3 565.5L428.3 565.0L428.3 564.9L428.2 564.8L428.1 564.8L428.0 564.8L428.0 564.8L427.5 564.9L427.1 565.0L427.1 565.2L426.9 565.5L426.8 565.7L426.6 566.3L426.0 567.7L426.0 567.8L425.9 567.8L425.8 568.0L425.7 568.3L425.5 568.7L425.3 569.0L424.9 569.5L424.6 569.9L424.3 570.2L424.1 570.4L423.9 570.5L423.7 570.6L423.5 570.8L423.3 570.9L423.2 571.0L423.0 571.1L422.9 571.1L422.7 571.2L421.4 571.9L421.4 572.3L421.4 573.3L421.4 573.3L421.4 573.5L420.2 573.6L420.0 573.6L419.8 573.6L419.8 573.5L419.8 573.4L419.8 573.3L419.8 573.2L419.8 572.8L419.8 572.7L419.8 572.5L419.8 572.4L419.8 572.3L419.8 571.4L419.7 568.4L419.8 568.3L419.8 568.0L419.7 567.7L419.7 567.7L419.7 567.2L419.8 567.1L419.8 567.1L419.8 567.1L419.7 565.5L419.7 565.0L419.6 564.8L419.3 564.8L419.3 564.8L419.3 564.7L417.9 564.7L413.0 564.7L413.0 564.7L411.6 564.7L411.5 564.7L411.4 564.7L411.4 564.5L411.4 564.3L411.4 564.0L411.4 563.9L411.4 563.6L411.4 563.5L411.4 563.3L411.4 563.1L411.4 563.0L411.4 562.9L411.4 562.5L411.4 562.0L411.4 561.9L411.4 561.8L411.4 561.6L411.4 561.6L411.4 561.3L411.4 560.9L411.4 560.8L411.4 560.7L411.6 560.7L412.0 560.8L412.3 560.8L412.6 560.8L412.6 560.8L412.8 560.8L412.8 560.8L413.3 561.1L413.4 561.1L413.4 561.0L413.6 560.9L413.6 560.8L413.6 560.9L413.8 561.1L414.7 561.1L414.7 560.8L415.3 560.8L415.7 560.8L415.7 558.9L415.7 556.6L415.7 556.5L415.7 556.4L415.7 556.4L415.7 556.4L415.6 556.4L415.2 556.4L414.3 556.4L413.4 556.5L412.6 556.5L411.6 556.4L411.1 556.4L410.6 556.4L409.5 556.1L408.9 555.9L408.3 555.7L407.9 555.5L407.1 555.0L406.8 554.8L405.5 553.8L403.3 552.1L403.0 552.1L402.8 552.1L402.5 552.1L402.2 552.1L401.8 552.1L401.4 552.1L401.4 552.1L401.2 552.1L401.2 552.2L401.2 552.2L401.2 552.6L401.2 552.6L401.2 552.9L401.3 553.4L401.6 554.0L402.4 556.1L402.6 556.1L403.0 556.1L403.0 556.3L402.9 557.4L403.0 557.8L403.1 558.6L403.2 559.4L403.2 560.0L403.2 560.5L403.1 560.5L402.8 560.5L402.5 560.5L402.3 560.5L402.0 560.5L402.0 560.7L402.0 560.9L402.0 561.0L402.0 561.3L402.0 561.5L402.0 561.9L402.0 562.4L402.0 562.7L402.0 563.0L402.0 563.7L402.0 564.3L402.0 564.5L401.9 564.6L401.3 564.6L401.3 564.6L400.8 564.6L400.8 564.8L400.9 565.1L400.9 565.3L400.9 565.5L400.9 565.7L401.0 565.9L401.0 566.0L401.1 566.2L401.2 566.4L401.2 566.4L400.5 566.5L400.5 566.4L400.4 566.3L398.8 564.8L398.7 564.6L398.5 564.6L398.2 564.7L398.0 564.7L397.4 564.7L397.0 564.7L397.0 564.5L397.0 564.4L397.0 563.5L397.0 562.9L397.0 562.8L397.0 562.3L396.7 562.1L396.2 562.1L395.4 562.2L395.3 562.2L394.7 562.2L394.5 562.2L393.7 562.2L393.6 562.4L393.2 562.9L393.2 563.1L393.0 563.7L392.9 564.4L392.9 564.5L392.9 564.7L392.6 564.7L392.4 564.7L392.0 564.6L391.7 564.6L391.4 564.7L391.4 564.5L391.4 563.3L390.7 563.0L389.5 562.6L389.4 562.5L389.3 562.4L389.2 562.4L388.8 562.3L388.5 562.6L386.8 564.4L386.8 564.7L386.8 564.8L386.8 564.8L386.2 564.8L385.8 564.8L385.8 564.7L385.8 564.7L385.8 563.9L385.9 563.5L386.2 562.7L386.3 562.4L386.3 560.2L386.3 557.8L386.3 557.0L386.4 548.2L386.4 548.1L386.4 547.6L386.4 547.4L386.4 547.0L386.6 547.0L387.1 547.0L387.8 547.0L388.3 547.0L388.8 547.0L389.7 547.2L390.8 547.1L393.8 546.9L395.2 547.2L397.6 547.4L397.7 547.2L397.9 547.2L397.9 547.7L398.2 547.8L398.6 547.8L399.1 547.9L399.3 547.8L399.6 547.8L399.6 547.8L402.5 547.8L402.5 547.1L402.5 546.4L402.5 543.1L402.5 542.8L402.5 542.5L402.5 542.3L402.4 542.0L402.2 541.3L401.8 541.4L401.6 540.8L401.6 540.6L401.5 540.4L401.5 540.1L401.6 539.5L401.6 539.3L401.9 539.3L402.0 539.3L402.1 539.2L402.2 539.1L402.2 539.0L402.2 538.9L402.2 538.7L402.3 538.7L402.3 538.6L402.3 538.5L402.3 538.5L402.3 538.4L402.3 538.3L402.3 538.2L402.4 538.2L402.4 538.1L402.4 538.0L402.4 538.0L402.5 537.9L402.5 537.8L402.5 537.7L402.5 537.7L402.6 537.6L402.7 537.3L402.8 537.2L402.8 537.1L402.9 537.0L402.9 536.9L402.8 536.9L402.9 536.7L403.0 536.4L403.0 536.2L403.0 536.0L403.1 535.8L403.1 535.6L403.1 535.5L403.1 531.0L402.8 530.9L402.5 530.5L402.4 530.5L402.3 530.5L399.3 529.2L398.8 528.8L397.8 528.2L395.0 525.7L395.0 525.8L395.0 527.6L395.0 527.7L394.9 527.6L394.8 527.4L394.6 527.0L394.5 527.0L394.4 527.0L394.3 527.1L394.3 527.1L394.1 527.1L393.9 526.9L393.7 526.7L393.6 526.6L393.6 526.6L393.5 526.6L393.3 526.5L393.1 526.3L393.1 526.2L393.1 526.2L393.1 526.1L393.4 526.0L393.5 525.9L393.6 525.8L393.6 525.6L393.5 525.6L393.4 525.5L393.2 525.4L393.1 525.4L392.9 525.3L392.9 525.3L392.8 525.3L392.8 525.3L392.7 525.2L392.6 525.1L392.5 525.0L392.3 524.9L392.3 524.9L392.3 524.9L392.2 524.9L392.2 524.8L392.1 524.7L392.1 524.7L392.0 524.6L391.9 524.6L391.8 524.5L391.7 524.4L391.6 524.4L391.4 524.2L391.3 524.1L391.3 524.1L391.1 524.0L391.1 523.9L391.1 523.9L391.0 523.9L391.0 523.8L390.9 523.8L390.9 523.8L390.8 523.7L390.7 523.7L390.6 523.7L390.4 523.7L390.3 523.6L390.2 523.6L390.1 523.6L389.9 523.6L389.8 523.6L389.7 523.6L388.4 523.7L388.4 527.5L388.4 531.0L386.4 531.1L385.8 531.1L383.9 531.0L382.9 531.0L381.4 531.0L381.1 531.0L378.1 531.1L376.2 531.1L373.3 531.1L371.6 531.1L370.4 531.1L370.3 531.1L369.9 531.1L369.9 529.4L369.9 528.4L369.9 527.0L369.9 525.9L369.9 525.3L369.9 524.9L369.7 524.9L369.0 524.9L367.0 524.9L366.4 524.9L365.7 524.9L365.7 525.4L365.7 525.9L365.6 525.8L365.6 525.9L365.6 527.0L363.8 526.9L363.7 529.6L361.1 529.4L361.0 531.0L361.5 531.0L361.5 531.2L361.5 531.5L361.5 532.2L361.5 533.3L361.5 534.0L361.5 535.1L361.5 535.8L361.5 538.4L361.5 539.3L361.5 539.4L361.5 539.5L361.5 539.6L361.5 539.7L360.0 539.7L359.6 539.6L359.4 539.6L359.2 539.6L359.1 540.1L358.8 541.4L358.7 541.7L358.4 543.1L358.3 543.3L358.2 543.8L358.1 544.5L358.0 545.1L358.0 545.7L357.8 547.4L357.5 547.3L356.7 547.1L356.5 547.1L356.3 547.0L356.2 547.0L356.2 547.0L355.9 547.0L355.5 546.0L355.3 545.8L354.5 545.8L353.5 546.2L353.5 547.2L353.3 547.3L353.3 547.6L353.3 547.7L353.3 547.9L353.3 548.2L353.1 548.2L353.0 548.2L351.1 548.2L350.5 548.2L350.3 548.2L350.1 548.1L349.9 548.1L349.7 548.1L349.6 548.1L349.4 548.1L349.2 548.1L349.0 548.1L348.8 548.1L348.6 548.1L348.4 548.1L348.4 548.1L348.3 548.1L348.1 548.1L347.9 548.1L347.8 548.1L345.0 548.1L344.8 548.1L344.8 549.3L344.8 551.5L344.8 551.9L344.8 552.1L344.9 556.3L345.5 556.3L349.1 556.3L349.1 559.4L349.1 563.9L349.1 564.6L349.1 564.8L348.5 564.8L347.8 564.8L346.1 564.8L344.1 564.8L343.3 564.8L336.4 564.8L336.3 564.8L336.3 563.9L336.2 562.4L336.2 560.9L336.2 559.7L336.3 558.7L336.3 556.2L336.0 556.2L336.0 554.4L336.0 552.9L336.0 551.4L335.9 550.5L335.9 549.4Z" fill="#cfeaee" stroke="#ffffff" stroke-width="1.2"/><path d="M449.1 497.5L449.3 497.5L449.6 497.5L449.7 497.5L449.8 497.5L450.6 497.6L451.1 497.6L451.8 497.6L451.8 497.6L452.1 497.6L452.7 497.6L452.7 497.6L452.9 497.6L452.9 497.6L454.4 497.6L455.5 497.6L456.4 497.6L457.4 497.6L457.8 497.6L457.8 497.6L458.6 497.6L458.9 497.6L459.1 497.6L459.4 497.6L460.0 497.6L461.6 497.5L461.6 497.5L462.1 497.5L462.8 497.5L462.9 497.5L463.2 497.5L463.3 497.5L463.4 497.5L464.0 497.5L464.1 497.5L464.1 497.5L464.4 497.5L464.4 497.5L464.6 497.5L464.7 497.5L465.1 497.5L465.8 497.5L466.0 497.5L466.2 497.5L466.4 497.5L466.5 497.5L467.1 497.5L468.1 497.5L468.8 497.5L468.8 497.5L469.1 497.5L469.5 497.5L470.7 497.5L470.9 497.5L472.4 497.4L472.5 497.4L472.9 497.4L473.0 497.4L473.2 497.4L473.9 497.4L474.4 497.4L474.5 497.4L475.0 497.4L475.1 497.4L476.2 497.4L476.3 497.4L476.6 497.4L476.6 497.4L476.8 497.4L476.9 497.4L477.2 497.4L478.0 497.4L478.0 497.4L478.9 497.4L479.2 497.4L479.2 497.4L479.3 497.4L480.2 497.4L480.4 497.4L480.5 497.4L481.4 497.4L483.1 497.4L483.5 497.4L484.3 497.4L485.5 497.4L485.5 497.4L486.4 497.4L487.6 497.4L488.5 497.3L488.9 497.3L489.8 497.3L489.8 497.3L489.8 497.3L490.8 497.3L491.1 497.3L491.9 497.3L492.9 497.3L492.9 497.3L494.0 497.3L496.1 497.3L496.2 497.3L496.4 497.3L496.5 497.3L497.5 497.3L498.2 497.3L498.2 497.3L500.3 497.3L500.3 497.3L500.6 497.3L500.6 497.3L500.6 497.3L500.7 497.3L501.2 497.3L501.5 497.3L502.3 497.2L502.4 497.2L502.5 497.2L504.1 497.2L504.5 497.2L504.6 497.2L505.9 497.2L506.2 497.2L506.6 497.2L506.7 497.2L506.7 497.2L506.8 497.2L507.0 497.2L507.6 497.1L507.7 497.1L508.0 497.1L508.0 497.1L508.2 497.1L508.7 497.1L508.8 497.1L508.9 497.1L509.2 497.1L509.2 497.1L509.5 497.1L509.5 497.1L509.5 497.1L509.7 497.1L509.8 497.1L510.6 497.1L510.7 497.1L510.8 497.1L510.8 497.1L510.8 497.1L510.9 497.1L511.0 497.1L511.5 497.1L511.6 497.1L512.1 497.2L512.9 497.2L514.9 497.2L515.0 497.2L515.0 497.2L515.0 497.1L515.1 497.1L516.5 497.1L517.5 497.2L517.5 497.2L521.5 497.2L521.5 497.2L522.1 497.2L522.3 497.2L522.3 497.2L522.4 497.2L522.4 497.2L523.5 497.3L523.7 497.4L523.8 497.7L524.0 498.0L524.5 498.7L524.7 499.1L524.8 499.4L525.5 500.0L525.6 500.2L525.5 500.3L524.9 501.0L524.5 501.3L524.5 501.4L523.5 501.4L523.5 501.6L523.5 504.4L523.5 506.7L524.4 506.9L524.6 506.9L524.9 507.0L525.1 507.1L525.2 507.2L525.3 507.2L525.4 507.3L527.6 507.3L527.6 507.8L527.6 508.0L527.6 508.3L527.6 508.6L527.6 509.0L527.6 509.2L527.6 509.9L527.6 510.2L527.6 510.2L527.7 510.3L527.7 510.4L527.8 510.6L527.8 510.8L527.7 510.9L527.8 510.9L528.9 510.9L528.9 511.2L528.9 511.5L528.9 511.8L529.1 511.8L529.7 511.8L531.8 511.8L531.8 511.9L531.8 512.7L532.1 512.7L532.2 512.7L532.2 512.7L533.1 512.7L533.5 512.7L533.9 512.7L534.5 512.7L536.0 512.7L536.0 514.0L536.0 514.2L536.0 515.9L538.4 515.9L538.5 515.9L539.8 515.9L540.4 515.9L541.0 515.9L541.0 516.3L541.0 517.7L541.0 517.7L540.7 517.7L540.4 517.6L540.3 517.5L539.8 517.3L539.2 516.9L539.2 516.8L538.6 516.6L538.5 517.5L538.5 518.0L538.6 518.6L538.6 518.9L538.6 519.7L538.6 519.9L538.6 521.2L538.6 522.3L538.8 522.3L540.9 522.3L541.4 522.3L541.7 522.2L541.9 522.2L543.1 521.9L543.9 521.6L543.9 521.6L544.0 521.6L544.2 521.6L545.4 521.5L545.6 522.3L546.1 523.0L546.0 523.7L546.2 523.8L545.7 524.3L545.6 524.4L545.6 524.5L544.7 524.5L544.7 524.7L544.7 526.4L545.3 526.4L546.9 526.5L546.8 526.7L546.8 528.5L546.9 528.5L546.9 528.7L546.9 530.6L548.0 530.6L548.0 530.7L548.7 530.8L549.1 530.8L549.6 530.8L549.6 530.8L550.3 530.9L550.0 533.3L551.2 533.4L551.0 535.8L552.0 535.9L552.1 534.9L552.2 534.9L552.3 534.9L552.3 534.8L552.4 533.5L552.9 533.6L553.4 533.6L553.6 533.6L554.1 533.7L554.8 533.8L555.3 533.8L555.5 533.9L555.7 536.4L555.9 537.4L556.0 538.6L556.0 538.9L556.1 538.9L556.3 538.9L556.6 538.9L557.9 538.9L559.2 538.9L559.0 539.3L558.9 540.3L558.8 540.8L558.7 541.5L558.8 542.4L558.7 542.9L558.6 543.4L558.8 545.4L558.8 546.0L558.8 546.7L558.9 547.1L559.0 547.4L559.1 547.8L559.1 548.2L559.0 548.5L559.0 548.7L559.1 549.2L559.3 549.5L559.5 550.7L559.7 551.5L559.7 551.5L559.7 552.1L560.4 553.7L560.5 554.2L560.8 555.1L561.0 555.4L561.4 556.2L561.5 556.7L561.8 557.4L562.0 557.7L562.1 557.8L562.1 557.8L562.3 558.1L562.7 558.8L563.0 559.7L563.2 560.0L563.5 560.6L563.7 560.8L563.8 560.9L564.1 561.5L564.7 562.3L564.9 562.9L565.1 563.1L565.3 563.3L565.9 564.2L564.8 564.2L565.9 565.9L565.9 565.9L565.9 566.0L565.9 566.1L566.0 566.2L566.4 566.7L566.5 566.8L566.5 566.9L566.5 567.0L566.8 567.6L566.9 567.7L567.0 567.9L567.4 568.3L567.6 568.6L567.9 568.8L568.2 569.3L568.3 569.5L568.4 569.5L568.4 569.6L568.4 569.6L568.4 569.6L568.4 569.8L568.4 569.8L568.4 569.9L568.4 569.9L568.5 570.0L568.6 570.1L568.6 570.1L568.6 570.1L568.6 570.2L568.6 570.2L568.7 570.4L568.8 570.6L569.0 571.0L569.1 571.2L569.2 571.3L569.2 571.3L569.1 571.3L569.1 571.3L569.1 571.3L569.1 571.3L569.1 571.5L569.1 571.6L569.1 571.7L569.1 571.7L569.1 571.8L569.1 571.8L569.4 572.0L569.5 572.1L569.5 572.1L569.6 572.2L569.6 572.2L569.7 572.6L569.6 572.6L565.8 572.6L565.2 571.5L563.9 569.7L561.1 565.8L561.0 565.5L560.5 565.3L561.1 565.3L561.1 564.2L561.1 564.2L561.1 564.2L560.2 564.2L559.6 564.2L559.0 564.1L556.9 564.1L555.0 564.2L554.6 564.1L555.1 561.1L555.2 560.7L555.2 560.4L555.2 560.2L555.1 560.2L555.0 560.2L554.8 560.3L554.4 560.3L554.3 560.3L554.3 560.4L554.3 560.6L554.3 560.9L554.3 561.2L554.3 561.3L554.3 561.6L554.3 561.9L554.3 562.1L554.3 562.1L554.2 562.3L554.1 562.6L554.0 562.8L553.8 563.2L553.7 563.4L553.7 563.5L553.6 563.8L553.5 564.0L553.4 564.2L553.3 564.3L553.2 564.5L553.2 564.7L553.0 565.0L552.8 565.5L552.6 566.0L552.3 566.7L552.1 567.0L551.8 567.6L551.5 568.3L551.9 568.3L551.5 569.2L551.6 569.5L551.5 570.0L551.4 570.0L551.7 570.2L552.0 570.5L552.1 570.5L552.7 571.1L552.9 571.3L553.0 571.5L553.0 572.6L553.0 573.0L553.0 574.8L553.0 576.9L553.0 580.6L553.0 580.7L553.0 580.7L552.8 580.7L552.4 580.7L552.0 580.7L550.5 580.6L548.5 580.7L546.1 580.6L545.9 580.7L544.6 580.7L544.6 580.2L544.6 580.1L544.6 579.6L544.6 579.5L544.6 579.4L544.6 577.5L544.6 577.0L544.6 576.5L544.6 576.4L544.6 574.8L544.6 574.6L544.6 574.4L544.6 574.1L544.6 573.9L544.6 573.3L543.9 573.3L543.6 573.3L543.1 573.3L542.3 573.3L541.2 573.3L540.4 573.3L540.3 573.3L540.3 573.2L539.4 573.2L539.4 573.9L538.8 573.9L538.0 573.9L537.7 573.9L537.7 573.9L537.7 572.7L537.7 572.2L537.7 572.2L537.7 572.1L537.7 571.9L537.7 571.3L537.7 570.9L537.7 570.6L537.7 570.6L537.7 570.4L537.8 570.1L537.9 569.8L537.9 569.7L538.0 569.5L538.1 569.3L538.3 569.1L538.6 568.7L539.2 567.9L539.2 567.8L539.3 567.7L539.3 567.7L539.4 567.6L539.6 567.4L539.9 567.0L540.0 566.9L540.1 566.8L540.2 566.6L540.3 566.5L540.4 566.2L540.4 566.1L540.4 565.9L540.4 565.6L540.4 565.0L540.4 563.8L540.4 563.2L540.4 563.2L539.4 563.2L539.3 563.2L538.8 563.2L538.8 563.7L538.8 563.8L537.7 563.8L537.6 563.8L537.5 563.8L537.5 563.1L537.5 562.0L537.4 562.0L536.7 562.0L536.7 561.7L536.7 560.9L536.7 560.7L536.6 560.7L534.9 560.7L532.8 560.7L529.2 560.7L529.2 560.8L529.2 560.9L528.8 560.9L528.7 560.9L528.7 561.0L527.6 561.0L527.2 561.0L526.6 560.8L526.6 560.8L526.3 560.8L526.3 560.7L526.1 560.7L526.0 560.6L525.5 560.4L525.4 560.3L525.4 560.5L525.3 560.6L525.3 560.7L525.2 560.8L525.2 560.8L525.1 560.8L525.1 560.9L525.1 560.9L525.0 561.0L524.9 561.0L524.8 561.1L524.7 561.1L524.6 561.1L524.4 561.1L523.3 561.1L522.9 561.1L522.8 561.1L522.7 561.1L522.7 561.1L522.7 561.1L522.6 561.1L522.5 561.1L522.2 561.2L521.9 561.3L521.5 561.4L521.2 561.4L521.2 561.4L521.2 561.6L521.2 562.2L521.2 562.6L521.2 563.5L521.3 563.5L521.4 563.5L521.4 563.7L521.4 564.3L521.3 564.3L521.3 564.6L521.4 568.3L521.4 569.9L521.4 571.9L521.4 572.3L521.4 572.5L521.3 573.1L521.3 573.6L521.3 574.0L521.3 574.5L521.2 575.1L521.2 575.2L521.2 575.7L521.2 576.7L521.2 577.3L521.2 577.5L521.2 578.8L521.2 579.5L521.2 579.5L521.2 580.9L521.2 582.6L521.1 582.6L521.0 582.6L520.8 582.6L520.7 582.6L520.5 582.6L520.5 582.6L519.9 583.0L519.8 583.0L519.7 583.0L519.6 583.0L518.5 583.0L518.3 583.0L518.3 582.9L518.3 582.8L518.4 582.7L518.4 582.5L518.4 582.3L518.5 582.1L518.6 581.8L518.7 581.4L518.8 581.0L518.7 581.0L518.6 581.0L518.4 581.0L518.4 581.4L518.3 581.6L518.3 581.7L518.2 581.8L518.2 582.1L518.1 582.4L518.1 582.5L518.1 582.7L518.0 583.3L518.0 583.6L518.0 583.9L518.0 584.0L518.0 584.1L518.0 584.3L518.0 584.3L518.0 584.4L518.0 584.4L518.0 584.5L518.0 584.5L518.0 584.6L518.0 584.6L518.0 584.8L518.1 585.0L518.1 585.0L518.1 585.2L518.1 585.3L518.2 585.4L518.2 585.5L518.2 585.6L518.3 585.8L517.3 585.8L516.6 585.8L515.7 585.9L515.6 585.9L515.6 585.8L515.6 584.4L515.6 584.1L515.6 583.4L515.6 583.3L515.6 583.3L515.6 583.0L515.6 582.6L515.0 582.6L514.2 582.5L513.9 582.5L513.1 582.4L511.9 582.3L511.5 582.2L511.3 582.2L511.2 582.2L511.1 582.2L508.8 581.7L508.6 581.7L508.5 581.7L508.4 581.7L506.1 581.5L505.7 581.5L505.7 581.8L505.7 581.9L505.7 582.0L505.6 582.1L505.6 582.1L505.6 582.1L504.8 582.0L504.7 582.0L504.6 582.0L504.4 582.0L504.4 581.8L504.4 581.7L504.4 581.5L504.4 581.4L504.0 581.4L503.8 581.4L503.7 581.4L503.4 581.4L503.2 581.4L503.0 581.3L502.9 581.3L502.9 581.3L502.9 581.3L502.3 581.0L502.0 581.0L501.7 580.9L501.4 580.8L501.3 580.8L501.2 580.7L501.1 580.7L500.9 580.6L500.2 580.3L499.9 580.1L499.9 580.2L499.8 581.3L499.8 581.4L499.8 581.6L499.8 582.7L499.8 583.0L500.1 583.0L500.3 583.0L501.0 583.0L501.5 583.0L502.5 582.8L502.9 582.8L503.0 582.8L503.0 583.4L503.0 583.7L503.4 583.7L503.5 583.7L503.9 583.7L503.9 583.7L504.4 583.7L504.7 583.8L505.0 583.9L505.1 584.0L505.3 584.1L505.6 584.3L505.9 584.7L506.2 585.0L506.5 585.3L506.7 585.6L507.0 585.9L507.1 585.9L507.3 586.0L507.7 586.3L508.3 586.7L509.0 587.1L509.4 587.3L509.9 587.6L510.2 587.6L510.5 587.7L510.5 587.6L511.4 587.4L511.4 588.2L511.4 588.6L511.4 588.8L511.4 589.6L509.2 589.6L509.2 589.6L508.6 589.6L507.9 589.6L507.3 589.6L506.8 589.7L506.3 589.7L505.7 589.7L505.2 589.7L504.8 589.7L504.2 589.7L503.6 589.7L503.2 589.7L503.1 589.7L500.3 589.7L498.9 589.7L498.9 589.3L498.9 589.0L498.9 588.7L498.9 588.3L498.9 587.8L498.6 587.8L498.5 587.8L498.3 587.8L498.0 587.8L497.6 587.8L497.3 587.8L497.1 587.8L496.9 587.8L496.7 587.8L496.7 587.7L496.6 587.7L496.6 587.7L494.8 587.7L494.7 587.7L494.7 588.1L494.7 588.2L494.7 588.2L494.7 588.3L494.7 588.5L494.7 588.5L494.7 588.7L494.7 588.8L494.7 588.9L494.7 589.0L494.7 589.1L494.7 589.2L494.7 589.3L494.7 589.4L494.7 589.5L494.7 589.7L494.7 589.8L494.4 589.8L494.3 589.8L494.3 589.8L494.2 589.8L494.0 589.8L494.0 589.8L493.8 589.8L493.8 589.8L493.6 589.8L493.4 589.8L493.4 589.8L493.2 589.8L493.0 589.8L492.9 589.8L492.8 589.8L492.6 589.8L492.6 589.8L492.4 589.8L492.1 589.8L492.1 589.8L491.8 589.8L491.7 589.8L491.5 589.8L491.4 589.8L491.4 589.9L491.4 590.0L491.4 590.1L491.4 590.2L491.5 590.5L491.5 590.6L491.5 590.7L491.5 590.8L491.5 591.0L491.5 591.1L491.5 591.2L491.5 591.3L491.5 591.5L491.5 591.8L491.5 591.9L491.6 592.1L491.6 592.4L491.6 592.6L491.6 592.6L491.6 592.8L491.6 593.0L491.6 593.1L491.6 593.2L491.6 593.4L491.7 593.5L491.7 593.6L491.7 594.0L491.9 594.0L492.0 594.0L492.2 594.0L492.5 594.0L492.7 594.0L493.0 594.0L493.0 594.0L493.2 594.0L493.5 594.0L493.7 594.0L493.9 594.0L494.1 593.9L494.2 593.9L494.3 593.9L494.4 593.9L494.5 593.9L494.6 593.9L494.6 594.1L494.6 594.6L494.6 594.9L494.6 597.1L494.6 597.4L494.6 598.2L494.6 598.3L494.6 598.4L494.6 598.5L494.6 598.8L494.6 599.9L494.6 600.1L494.6 600.3L494.6 601.6L494.6 601.6L494.6 601.7L494.7 602.0L494.7 602.3L494.7 602.6L494.7 602.8L494.7 602.9L494.7 603.1L494.7 603.3L494.7 603.5L494.7 603.8L494.7 604.0L494.7 604.2L494.7 606.3L494.7 606.6L494.2 606.6L492.6 606.5L490.7 606.6L489.7 606.5L488.1 606.5L487.1 606.5L486.3 606.5L486.3 606.2L486.3 603.6L486.3 603.1L486.3 598.7L486.3 598.1L486.2 598.2L486.2 598.1L483.7 598.2L483.9 596.4L483.9 596.2L484.2 596.2L485.6 596.1L486.1 596.0L486.2 596.0L486.3 596.0L486.3 595.3L486.3 594.3L486.2 594.3L486.2 594.3L486.2 594.3L486.1 594.3L485.5 594.3L485.5 594.0L485.4 594.0L485.1 594.0L484.7 594.0L484.2 594.0L483.6 594.0L483.6 593.6L483.9 593.2L484.0 593.1L484.1 593.0L484.3 592.6L484.5 591.9L484.5 591.8L484.8 590.9L484.8 590.8L484.9 590.7L485.4 590.5L485.7 590.4L485.7 590.4L485.7 590.4L485.7 590.4L485.7 590.4L485.8 590.4L485.8 590.4L485.8 590.4L485.8 590.4L485.8 590.4L485.9 590.4L485.9 590.4L485.9 590.4L485.9 590.4L485.9 590.4L485.9 590.4L486.2 590.4L486.2 590.0L486.0 589.9L486.0 589.8L485.6 589.8L485.1 589.8L482.5 589.8L482.1 589.8L482.1 586.7L482.1 584.1L482.1 583.3L482.1 583.2L482.1 581.4L482.1 581.0L482.1 580.7L482.1 580.7L482.1 580.5L482.2 580.2L482.8 579.5L483.5 579.5L483.8 579.4L484.5 579.7L484.6 579.8L484.6 579.9L484.7 580.2L484.8 580.5L484.9 580.7L484.9 581.0L484.9 581.2L484.9 581.4L485.1 581.4L486.1 581.4L486.1 577.3L486.1 576.4L486.1 574.4L483.8 574.4L483.4 574.5L483.1 574.4L483.1 573.4L483.1 572.7L483.1 571.6L483.1 570.2L486.1 570.2L486.1 570.1L485.5 570.1L485.5 570.1L485.4 569.5L485.4 569.1L485.4 568.8L486.0 568.7L486.0 565.7L486.0 565.7L485.9 565.7L485.6 565.9L485.5 566.0L485.5 566.0L485.4 566.0L485.4 566.0L485.4 566.0L485.3 566.0L485.3 566.1L485.1 566.1L485.1 566.1L485.1 566.1L485.0 566.1L485.0 566.0L485.0 566.0L484.9 566.0L484.9 566.0L484.9 565.9L484.8 565.9L484.8 565.9L484.8 565.9L484.7 565.9L484.7 565.9L484.5 565.9L484.4 565.9L484.3 565.9L484.2 565.9L484.1 565.9L484.0 565.9L483.9 565.9L483.8 566.0L483.8 566.0L483.7 566.0L483.5 566.1L483.4 566.2L483.3 566.2L483.2 566.2L483.2 566.2L483.1 566.2L483.0 566.2L483.0 566.2L482.9 566.2L482.9 566.2L482.9 566.2L482.2 566.1L482.1 565.6L482.1 565.5L481.6 565.6L481.2 565.6L480.3 565.6L478.6 565.6L478.0 565.6L478.0 568.8L475.9 568.8L475.3 568.8L474.6 568.8L473.5 568.8L473.0 568.8L472.7 568.8L471.4 568.8L471.1 568.8L470.3 568.8L472.1 564.6L473.4 563.1L473.5 563.1L473.8 563.1L473.8 562.5L473.8 562.2L473.8 561.6L474.4 560.8L474.7 560.5L474.7 560.4L476.3 560.4L478.0 563.5L479.0 562.9L480.3 562.2L480.1 561.8L479.9 561.4L479.5 560.7L479.3 560.4L477.9 560.4L477.9 559.4L477.9 559.2L478.1 558.7L478.7 559.0L478.9 559.0L479.6 559.3L479.8 559.0L480.2 558.5L480.6 558.1L480.8 557.9L481.5 557.1L481.6 556.9L481.4 556.6L481.4 556.5L481.1 556.6L480.8 556.6L480.5 556.6L480.3 556.6L480.3 556.6L480.1 556.5L480.1 556.5L478.8 556.5L478.4 556.5L478.3 556.5L478.1 556.5L477.9 556.5L477.9 556.5L477.7 556.5L474.5 556.5L474.4 556.5L474.2 556.5L473.9 556.5L473.8 556.5L473.5 556.5L471.6 556.5L470.6 556.4L469.7 556.4L469.6 556.4L469.4 556.4L469.3 556.1L469.3 555.9L469.3 555.5L469.4 555.2L469.5 553.4L469.5 552.6L469.7 552.7L470.0 552.7L470.0 552.7L470.2 552.7L470.2 552.7L470.4 552.7L470.4 552.7L470.5 552.7L470.6 552.7L470.7 552.7L470.7 552.7L470.8 552.7L471.0 552.7L471.0 552.7L471.0 552.7L471.2 552.7L471.2 552.7L471.4 552.7L471.4 552.7L471.5 552.7L471.5 552.7L471.6 552.7L471.7 552.7L471.8 552.7L471.8 552.7L471.9 552.7L472.0 552.6L472.2 552.6L472.2 552.6L472.4 552.6L472.4 552.6L472.7 552.6L472.8 552.6L472.8 552.6L472.9 552.6L473.1 552.6L473.3 552.6L473.3 552.6L473.4 552.6L473.4 552.6L473.6 552.6L473.6 552.6L473.7 552.6L473.8 552.6L473.8 552.6L473.9 552.6L474.0 552.6L474.1 552.6L474.2 552.6L474.2 552.6L474.3 552.6L474.4 552.6L474.5 552.6L474.6 552.6L474.6 552.6L474.7 552.6L474.8 552.6L474.8 552.6L475.0 552.6L475.0 552.6L475.2 552.6L475.3 552.6L475.4 552.6L475.6 552.6L475.7 552.6L475.8 552.6L475.9 552.6L476.0 552.6L476.1 552.6L476.3 552.6L476.3 552.6L476.5 552.6L476.5 552.6L476.8 552.6L477.0 552.6L477.2 552.6L477.5 552.6L477.9 552.6L477.9 552.5L477.9 552.4L477.8 552.2L477.7 551.9L477.6 551.6L477.6 551.1L477.6 550.9L477.5 550.8L477.5 550.8L477.5 550.6L477.6 550.5L477.6 550.3L477.7 550.2L477.6 550.2L476.9 550.0L476.5 549.7L476.3 549.4L475.8 549.1L475.8 549.1L475.5 548.6L475.2 548.4L475.6 548.1L475.6 548.1L475.7 548.1L475.9 548.1L476.0 548.0L476.1 548.0L476.1 548.0L476.1 548.0L476.2 548.0L476.2 548.0L476.3 547.9L476.4 547.9L476.5 547.9L476.5 547.8L476.6 547.8L476.8 547.8L476.9 547.7L477.0 547.7L477.1 547.6L477.2 547.6L477.3 547.5L477.4 547.5L477.5 547.4L477.6 547.4L477.7 547.3L477.7 547.3L477.7 547.4L477.8 547.3L477.9 547.3L478.0 547.2L478.1 547.2L478.2 547.1L478.3 547.1L478.9 546.7L479.5 546.4L480.1 546.0L480.1 545.9L480.5 545.7L480.6 545.7L481.7 545.1L482.0 545.1L482.1 545.0L483.2 545.0L483.4 545.0L483.8 545.0L484.3 545.2L484.9 545.6L484.9 545.6L485.6 546.1L486.0 546.1L486.0 546.2L486.0 547.0L486.0 547.2L486.0 547.5L486.0 547.6L486.0 548.6L486.0 549.7L486.1 550.4L486.1 551.2L486.1 551.3L486.1 551.7L486.1 552.3L486.1 552.7L486.1 552.8L486.3 552.9L486.5 553.0L486.6 553.1L487.0 553.2L487.0 553.3L487.5 554.0L487.6 554.0L487.8 554.3L488.1 554.6L488.3 554.8L488.6 555.0L488.8 555.2L489.5 555.6L490.1 555.8L490.4 555.9L490.5 555.9L491.0 556.0L491.3 556.1L491.6 556.1L491.7 556.1L492.0 556.2L492.4 556.3L493.1 556.6L493.2 556.6L493.8 556.8L494.1 556.9L494.1 556.9L494.5 557.0L494.8 557.1L495.2 557.2L495.4 557.2L495.7 557.3L496.1 557.4L496.2 557.4L496.6 557.5L497.1 557.6L498.1 557.7L498.2 558.4L498.7 558.3L499.4 558.2L499.9 558.1L501.7 557.8L502.3 557.7L502.8 557.6L503.1 557.4L503.4 557.4L504.3 557.3L504.4 557.6L504.4 557.7L504.5 557.9L504.4 559.1L504.5 559.8L504.5 560.1L504.8 559.8L505.2 559.3L505.4 559.2L505.5 559.2L505.7 559.3L505.8 559.3L506.1 559.3L506.4 559.4L506.5 559.4L506.7 559.4L507.0 559.3L507.0 560.1L507.1 564.4L504.4 564.5L504.4 565.9L504.4 566.0L504.1 566.0L503.6 566.0L503.3 566.0L503.2 566.0L503.2 566.5L502.9 566.5L498.4 566.5L498.1 566.5L498.1 566.4L495.8 566.5L495.7 566.5L495.3 566.5L495.3 565.7L495.2 564.5L494.9 564.5L494.6 564.5L493.3 564.5L490.8 564.5L490.8 568.7L486.8 568.8L486.4 568.8L486.4 569.1L486.4 570.3L486.4 577.0L486.8 577.0L490.3 577.0L493.2 577.0L494.2 577.0L494.6 577.0L494.6 577.0L494.6 577.1L494.7 577.1L494.8 577.1L494.8 577.2L494.9 577.2L494.9 577.2L495.0 577.2L495.0 577.2L495.1 577.3L495.2 577.3L495.3 577.3L495.3 577.4L495.4 577.4L495.4 577.4L496.5 578.0L496.5 578.1L496.6 578.1L496.7 578.2L496.8 578.2L496.9 578.3L497.0 578.3L497.0 578.4L497.1 578.4L498.8 579.2L499.8 579.7L500.4 580.0L500.8 580.2L500.9 580.2L501.0 580.2L501.0 580.3L501.1 580.3L501.2 580.3L501.3 580.3L501.3 580.4L501.4 580.4L501.5 580.4L501.6 580.5L501.7 580.5L502.4 580.7L502.8 580.7L503.0 580.7L503.4 580.8L503.6 580.8L503.8 580.8L504.1 580.8L504.7 580.9L505.6 580.9L506.6 581.0L506.8 581.0L507.7 581.1L510.7 581.0L510.9 581.0L511.3 581.0L511.4 581.0L511.5 581.0L511.5 581.0L512.1 581.0L513.0 581.0L513.6 581.0L513.7 580.9L514.0 580.9L514.7 580.9L515.8 580.9L518.7 580.8L519.1 580.8L519.7 578.7L519.8 578.3L519.9 578.0L520.0 577.5L520.1 576.9L520.3 576.4L520.4 576.0L520.6 575.2L520.7 574.6L520.8 574.2L520.9 573.8L520.9 573.6L520.9 573.2L520.5 573.2L520.5 573.3L520.5 572.9L520.5 572.6L520.5 572.5L520.5 572.1L520.5 572.0L520.6 571.0L520.6 568.4L520.6 567.7L520.5 567.0L520.5 565.9L520.4 565.2L520.3 564.7L520.2 564.5L520.2 564.4L520.3 563.7L520.2 562.4L520.2 561.9L520.2 561.6L520.6 560.8L520.6 560.7L520.6 558.8L520.6 558.6L520.5 558.5L520.1 557.5L519.8 557.2L519.5 557.1L518.7 556.8L518.3 556.7L517.8 556.8L517.6 556.5L516.5 556.5L516.6 556.0L516.6 556.0L516.6 556.0L516.7 555.5L516.7 555.5L515.5 555.6L515.2 555.6L515.3 556.0L514.6 556.0L513.8 556.0L512.9 556.1L512.0 556.1L511.7 556.1L511.2 556.1L511.2 556.1L511.2 556.0L511.2 554.6L511.2 554.4L511.2 553.2L511.1 552.6L511.1 551.8L511.0 551.8L510.9 551.8L510.8 551.5L510.7 550.4L510.7 549.8L510.6 548.1L510.6 547.7L510.6 547.1L510.6 547.0L510.6 546.7L510.6 546.6L510.3 546.7L510.2 546.8L509.9 546.8L509.7 546.8L509.6 546.8L509.5 546.9L509.4 546.9L509.3 546.9L509.2 546.9L507.5 547.1L507.0 547.2L502.9 547.6L502.7 547.6L502.7 547.5L502.8 546.7L502.8 545.6L502.7 543.8L502.7 541.8L502.7 539.4L502.7 539.2L504.0 539.2L504.7 539.2L505.0 539.2L506.5 539.2L506.9 539.2L506.9 539.2L506.9 538.8L506.9 536.1L506.0 536.1L502.7 536.2L502.7 536.9L502.5 536.9L502.3 536.9L502.0 536.9L501.8 536.9L501.6 536.9L501.4 536.9L501.4 536.9L501.4 536.9L501.4 536.8L501.4 536.6L501.4 536.5L501.4 536.4L501.4 536.2L501.4 536.0L501.4 535.8L501.4 535.8L501.4 535.6L501.4 535.4L501.4 535.1L502.5 535.1L502.6 535.1L502.7 535.1L502.7 535.0L502.7 533.7L502.7 532.7L502.7 532.2L502.7 530.9L502.5 530.9L501.0 530.9L499.7 530.9L499.7 530.7L499.7 530.4L499.7 530.2L499.8 530.2L499.8 530.2L499.8 529.8L500.7 529.7L500.6 529.4L500.6 529.3L500.6 529.3L500.5 529.3L500.5 529.0L500.5 528.9L500.5 528.8L500.5 528.7L500.5 528.6L500.5 528.5L500.5 528.4L500.5 528.3L500.5 528.2L500.5 528.1L500.5 528.0L500.5 527.8L500.5 527.7L500.5 527.5L500.5 527.4L500.5 527.3L500.5 527.2L500.5 527.1L500.5 527.0L500.5 526.9L500.5 526.8L500.5 526.6L500.5 526.4L500.4 526.4L500.4 526.0L500.4 526.0L500.4 525.9L500.4 525.5L500.2 525.5L500.0 525.5L499.8 525.5L499.5 525.5L499.5 525.1L499.5 525.0L499.5 524.9L499.5 524.7L499.5 524.5L496.4 524.4L496.2 524.4L496.1 524.5L496.0 524.6L495.9 524.8L495.9 525.0L495.7 526.7L495.6 527.5L495.5 528.9L495.3 530.7L495.3 530.9L495.2 530.9L494.3 530.9L492.6 530.9L492.6 531.8L492.5 532.0L492.5 532.3L492.4 532.3L492.1 532.2L491.8 532.1L491.6 532.0L490.7 532.0L490.0 531.9L489.7 531.9L489.7 531.9L489.6 531.9L488.6 531.4L488.5 531.4L488.5 531.7L488.5 531.9L488.5 532.8L489.7 532.8L490.0 532.8L490.1 535.1L489.5 535.1L487.9 535.1L487.8 535.1L487.7 535.2L487.6 535.2L487.1 535.2L487.1 535.2L486.4 535.2L486.2 535.2L486.1 535.2L485.9 533.4L485.7 533.4L485.5 530.9L485.4 530.7L485.5 530.3L485.6 529.4L485.7 529.0L485.7 528.9L485.7 528.9L485.7 528.7L485.7 528.5L485.7 528.3L485.7 528.3L485.7 528.2L485.7 527.9L485.7 527.7L485.7 527.5L485.7 527.4L485.7 527.2L485.7 527.0L485.7 526.8L485.7 526.6L485.7 526.4L485.7 526.3L485.7 526.1L485.7 526.0L485.7 525.8L485.6 525.7L485.6 525.5L485.6 525.3L483.7 525.2L483.7 523.6L483.7 523.5L481.6 523.5L481.5 522.6L481.5 520.5L481.5 518.4L481.6 518.4L482.0 518.4L482.5 518.4L483.1 518.4L483.6 518.4L483.6 518.3L485.5 518.3L485.7 518.3L485.8 518.3L487.6 518.3L488.0 518.3L489.9 518.3L490.5 518.3L492.9 518.3L493.9 516.4L494.1 516.0L494.7 515.1L494.9 514.8L495.2 514.4L495.4 514.1L495.3 514.0L495.2 514.0L495.5 513.6L495.6 513.6L495.7 513.6L496.3 512.6L496.4 512.4L496.5 512.3L496.6 512.0L496.8 511.7L496.9 511.6L496.7 511.6L496.5 511.6L496.5 511.7L496.3 512.0L495.8 512.0L495.8 512.4L495.5 512.4L495.3 512.4L495.3 512.0L494.8 512.0L494.3 512.0L494.2 512.0L494.0 512.0L494.0 512.5L494.0 512.9L494.0 513.1L494.0 513.3L493.5 513.3L493.5 513.1L492.0 513.1L491.9 513.1L491.9 511.9L491.9 511.5L492.0 511.5L493.9 511.5L494.0 511.5L494.0 511.0L494.0 510.9L494.0 510.8L494.0 510.0L494.0 509.9L493.9 509.9L493.6 509.9L493.4 509.9L493.2 509.9L492.9 509.9L492.7 509.9L492.5 509.9L492.3 509.9L492.0 509.9L491.9 509.9L491.7 509.9L491.7 509.7L491.7 507.7L491.9 507.7L493.5 507.7L493.5 506.9L493.4 506.9L493.4 506.6L493.5 506.6L493.5 505.7L493.0 505.7L491.9 505.7L490.8 505.7L490.3 505.7L490.0 505.7L489.7 505.7L487.4 505.7L486.1 505.8L485.6 505.8L485.6 506.0L485.6 507.0L485.6 508.0L485.6 508.2L485.6 508.5L485.6 509.0L485.6 509.4L485.6 510.1L485.6 510.3L485.6 510.5L485.6 512.0L485.6 514.1L485.6 514.1L485.6 514.5L485.6 514.6L485.5 514.6L484.6 514.6L484.2 514.6L484.1 514.6L484.0 514.6L483.7 514.6L483.7 514.6L483.6 514.6L482.5 514.7L482.5 514.7L482.3 514.7L482.3 514.7L482.2 514.7L481.6 514.7L481.6 514.7L481.6 514.8L481.5 514.8L481.4 514.8L481.4 514.8L481.2 514.8L480.9 514.8L480.7 514.8L480.4 514.8L480.4 516.3L480.0 516.3L479.8 516.3L479.4 516.3L479.2 516.3L478.8 516.3L478.4 516.3L477.9 516.3L477.3 516.3L477.3 515.8L477.3 515.6L477.3 515.3L475.8 515.3L475.5 515.3L475.2 515.3L475.2 516.4L473.1 516.4L473.1 516.4L473.1 516.4L473.1 516.5L473.1 516.8L473.2 517.0L473.2 517.2L473.2 517.4L473.2 517.5L473.2 517.7L473.2 517.8L473.2 517.9L473.2 518.1L473.2 518.4L473.2 518.4L473.2 518.6L473.2 518.8L473.2 519.0L473.2 519.3L473.2 519.5L473.2 519.7L473.2 519.8L473.2 520.1L473.2 520.3L473.2 520.5L473.2 520.6L473.1 520.6L473.0 520.6L472.7 520.6L472.5 520.6L472.3 520.6L472.2 520.6L471.1 520.6L470.1 520.6L469.1 520.6L469.0 520.6L469.0 520.3L469.0 517.8L469.0 517.5L469.0 517.1L469.0 516.7L468.9 516.7L468.6 516.7L468.3 516.7L468.1 516.7L468.1 516.7L468.1 516.9L467.6 516.9L467.6 516.9L467.5 516.9L467.2 516.9L467.0 516.9L466.8 516.9L466.5 516.9L466.3 516.9L466.1 516.9L465.9 517.0L465.7 517.0L465.4 517.0L465.2 517.0L465.0 517.0L464.8 517.0L464.5 517.0L464.3 517.0L464.1 517.0L463.9 517.0L461.7 517.0L460.3 517.0L460.0 517.0L459.9 517.0L459.9 516.8L459.7 515.4L459.4 514.0L459.1 513.1L458.8 512.5L458.4 511.9L458.4 511.9L457.1 510.1L456.8 509.6L456.4 509.1L456.3 509.0L456.3 508.8L455.3 507.4L455.1 507.0L454.7 506.5L454.6 506.3L454.4 505.9L454.4 505.9L454.8 505.9L454.7 505.8L453.8 504.5L453.2 503.5L453.2 504.0L453.2 504.0L452.1 502.4L451.7 501.9L451.0 500.5L450.7 500.1L450.4 499.5L449.5 498.2L449.2 497.6L449.1 497.5Z" fill="#cfeaee" stroke="#ffffff" stroke-width="1.2"/><path d="M353.2 513.3L354.4 511.9L355.4 510.9L356.9 509.3L357.2 509.0L357.9 508.4L358.1 508.3L358.3 508.2L358.5 508.0L358.7 507.9L358.9 507.8L359.2 507.7L359.4 507.6L359.6 507.5L359.8 507.4L360.1 507.3L360.3 507.3L360.6 507.2L360.8 507.1L361.1 507.0L361.7 506.8L362.3 506.6L362.6 506.6L362.8 506.5L362.8 506.4L362.7 506.2L362.7 506.2L362.5 506.0L361.8 504.7L361.8 504.7L361.7 504.5L361.3 503.6L361.1 503.3L361.1 502.3L361.2 501.1L361.2 500.8L361.2 499.9L361.2 499.9L361.2 499.6L361.2 499.4L361.2 499.2L361.2 499.0L361.2 498.8L361.2 498.6L361.2 498.2L361.2 498.2L361.2 497.6L361.5 497.6L361.6 497.6L362.1 497.6L362.2 497.6L362.3 497.6L362.4 497.6L362.4 497.6L362.5 497.6L362.6 497.7L362.7 497.7L362.8 497.7L362.9 497.7L363.0 497.7L363.1 497.7L363.2 497.7L363.2 497.7L363.5 497.7L364.1 497.7L365.3 497.7L365.4 497.7L366.1 497.7L366.3 497.7L366.9 497.7L367.4 497.7L367.6 497.7L367.9 497.7L368.0 497.7L368.0 497.7L368.2 497.7L368.2 497.7L368.3 497.7L368.4 497.7L368.7 497.7L368.8 497.7L369.1 497.7L369.1 497.7L369.1 497.7L369.3 497.7L369.4 497.7L369.5 497.7L369.6 497.7L369.8 497.7L370.4 497.7L370.4 497.7L370.9 497.7L371.7 497.7L373.6 497.6L373.7 497.6L374.3 497.6L374.7 497.6L374.9 497.6L375.1 497.6L375.5 497.5L376.0 497.5L376.5 497.5L376.9 497.5L377.6 497.5L377.6 497.5L378.2 497.5L378.4 497.5L378.7 497.5L379.1 497.5L379.2 497.5L379.2 497.5L379.3 497.5L379.5 497.5L380.2 497.5L380.2 497.5L380.5 497.5L380.8 497.5L381.2 497.5L381.4 497.5L381.4 497.5L383.5 497.5L384.2 497.5L384.5 497.5L385.6 497.5L386.4 497.5L386.5 497.5L387.1 497.5L387.6 497.5L388.2 497.5L388.2 497.5L390.7 497.5L390.7 497.5L390.7 498.4L390.7 498.9L390.7 499.6L390.7 500.0L390.7 505.2L390.7 505.8L392.1 505.8L392.2 505.8L392.8 505.8L393.5 505.8L394.4 505.8L395.3 505.8L396.1 505.8L396.6 505.8L397.0 505.8L396.8 506.0L396.7 506.2L396.6 506.3L396.5 506.4L396.3 506.6L396.2 506.7L396.1 506.8L395.9 507.0L395.8 507.1L395.6 507.2L395.5 507.3L395.5 507.3L395.3 507.4L395.1 507.6L394.9 507.7L394.9 508.0L394.9 508.3L395.4 508.0L395.7 507.7L395.8 507.7L396.0 507.5L396.2 507.3L396.4 507.2L396.6 507.0L396.7 506.9L396.9 506.7L397.1 506.4L397.5 506.0L397.6 505.9L398.3 505.9L398.7 505.9L399.1 505.9L399.5 505.9L399.7 505.9L399.7 505.9L400.0 505.9L400.1 505.9L400.3 505.9L400.4 505.9L400.6 505.9L400.6 505.9L400.8 505.9L400.8 505.9L401.0 505.9L401.1 505.9L401.2 505.9L401.3 505.9L401.4 505.9L401.5 505.9L401.6 505.9L402.0 505.9L402.0 505.9L402.1 505.9L402.2 505.9L402.4 505.9L402.8 505.9L403.2 505.9L403.2 503.3L403.2 501.8L402.8 501.0L402.8 500.9L402.8 500.8L402.8 500.6L402.7 500.4L402.6 500.1L402.7 499.5L403.0 498.3L403.1 497.7L403.1 497.6L403.1 497.5L403.2 497.5L403.3 497.5L403.3 497.5L403.4 497.5L407.2 497.5L407.3 497.5L407.5 497.5L409.0 497.5L411.3 497.5L411.8 497.5L412.1 497.5L412.1 497.5L412.5 497.5L412.6 497.5L414.5 497.5L414.5 497.5L415.6 497.5L415.7 497.5L416.2 497.5L416.3 497.5L416.3 497.5L417.3 497.5L417.9 497.5L418.5 497.5L419.8 497.6L419.8 497.6L419.9 497.6L420.4 497.5L420.6 497.5L420.7 497.5L420.8 497.5L421.0 497.5L421.3 497.5L421.9 497.5L422.0 497.5L422.9 497.5L423.6 497.5L423.6 497.5L423.9 497.5L425.3 497.5L425.7 497.5L426.6 497.5L427.8 497.5L427.8 497.5L428.2 497.5L428.3 497.5L428.9 497.5L429.0 497.5L429.8 497.5L430.2 497.5L432.1 497.6L432.7 497.5L433.0 497.5L433.4 497.5L433.6 497.5L434.0 497.5L434.1 497.5L434.4 497.6L434.4 497.6L435.2 497.6L435.6 497.6L435.8 497.6L436.5 497.5L436.6 497.5L436.7 497.5L437.9 497.5L438.1 497.5L438.6 497.6L439.1 497.6L439.1 497.5L439.7 497.5L439.8 497.5L440.7 497.5L440.7 500.5L440.7 500.6L440.7 501.7L441.5 501.7L444.9 501.7L448.1 501.7L449.0 501.8L449.0 502.7L449.0 503.6L449.0 505.2L448.6 505.0L448.1 505.0L448.1 505.7L448.1 505.8L448.0 505.8L447.8 505.8L447.6 505.8L446.3 505.8L445.8 505.8L445.8 505.7L445.8 505.0L445.1 505.0L445.0 505.0L445.0 505.0L445.0 504.6L444.9 504.6L441.5 504.6L440.7 504.6L440.7 504.6L440.7 504.9L440.7 506.0L440.7 506.2L440.7 508.0L441.3 508.0L444.9 508.0L445.1 508.0L445.1 508.5L445.1 509.5L445.1 510.2L445.2 510.9L445.4 512.0L445.5 512.2L445.7 513.5L445.7 513.7L445.7 513.8L445.7 514.0L445.6 514.1L445.5 514.2L445.3 514.2L445.1 514.3L445.1 514.3L444.9 514.3L444.8 514.3L443.9 514.3L442.1 514.3L441.5 514.3L441.0 514.3L440.7 514.3L438.7 514.3L437.9 514.3L436.6 514.3L436.3 514.3L435.6 514.3L434.4 514.3L433.9 514.3L433.4 514.3L433.2 514.3L432.9 514.3L432.4 514.3L432.2 514.3L432.0 514.3L431.8 514.3L431.1 514.3L429.7 514.3L428.1 514.3L426.8 514.3L425.6 514.3L424.6 514.3L424.4 514.2L423.9 514.2L422.9 514.2L422.2 514.2L421.3 514.2L419.8 514.2L419.7 514.2L418.4 514.2L418.1 514.2L417.7 514.2L417.3 514.2L416.9 514.2L414.7 514.2L412.2 514.2L411.8 514.2L411.1 514.2L409.2 514.2L409.1 514.2L408.4 514.2L407.5 514.2L406.8 514.2L406.2 514.2L406.0 514.2L405.4 514.2L405.1 514.2L404.4 514.2L403.7 514.2L403.5 514.2L403.5 514.3L403.5 514.5L403.5 516.5L403.5 517.0L403.5 517.1L403.5 517.5L403.5 517.6L403.5 519.3L403.5 520.9L403.5 521.2L403.5 521.3L403.5 521.5L403.5 521.7L403.5 522.2L403.5 522.8L403.5 523.3L403.5 524.8L403.5 525.4L403.8 525.4L403.8 525.5L403.8 525.6L403.8 526.8L403.8 526.8L403.8 527.2L403.8 527.4L403.6 527.3L403.5 527.3L403.5 527.3L403.4 527.3L403.3 527.3L403.2 527.3L403.0 527.3L402.8 527.3L402.4 527.1L401.9 526.9L401.5 526.6L401.3 526.5L401.2 526.4L401.0 526.2L400.6 525.8L400.3 525.4L400.2 525.3L400.0 525.0L399.9 524.8L399.7 524.6L399.6 524.5L399.6 524.5L399.5 524.5L399.4 524.4L399.2 524.3L399.2 524.3L399.2 524.3L398.9 524.0L398.6 523.8L398.0 523.4L397.1 522.8L396.8 522.6L396.2 522.1L395.7 521.8L393.6 520.3L393.0 519.9L389.8 517.8L389.7 517.7L389.6 517.4L389.6 517.3L389.6 517.3L389.7 517.2L389.7 517.2L389.7 517.2L389.7 517.2L389.7 516.8L389.7 515.3L389.7 514.5L389.6 514.5L389.0 514.5L388.4 514.5L387.8 514.5L387.4 514.6L387.0 514.6L387.0 514.6L386.8 514.6L386.8 514.7L386.9 514.8L386.9 514.9L386.9 515.0L386.9 515.1L387.0 515.2L387.0 515.3L387.1 515.4L387.1 515.5L387.1 515.5L387.2 515.5L386.8 515.3L386.6 515.1L386.6 515.5L386.4 515.4L386.1 515.3L385.8 515.2L385.4 515.1L385.0 515.0L384.6 515.0L384.0 514.9L383.6 514.9L383.4 514.8L382.3 514.8L382.3 514.7L381.5 514.7L380.7 514.6L379.9 514.5L379.1 514.4L378.7 514.4L378.5 514.4L378.2 514.4L378.2 514.7L378.2 515.1L378.2 515.4L378.2 516.3L378.2 516.3L378.2 517.9L378.2 518.7L378.1 520.1L378.2 521.3L378.2 522.7L378.0 522.7L376.4 522.6L374.3 522.7L373.2 522.7L372.2 522.7L369.9 522.7L364.5 522.7L363.8 522.7L363.9 522.5L364.6 521.5L365.1 520.7L365.7 519.8L366.4 518.8L366.7 518.4L367.0 518.0L367.2 517.8L367.3 517.7L367.4 517.5L367.4 517.5L367.4 517.4L366.9 517.5L366.8 517.5L366.6 517.6L366.5 517.6L366.4 517.6L366.1 517.7L366.0 517.7L365.8 517.7L365.2 517.7L365.1 517.7L365.0 517.7L365.0 517.7L364.8 517.7L364.6 517.6L364.5 517.6L364.0 517.5L363.7 517.4L363.6 517.4L363.5 517.4L363.3 517.4L363.1 517.3L363.0 517.3L362.9 517.3L362.9 517.3L362.7 517.2L362.6 517.2L362.4 517.1L362.3 517.1L362.1 517.1L362.1 517.1L362.1 517.1L362.0 517.1L361.9 517.1L361.7 517.0L361.7 515.6L361.7 515.5L361.7 515.3L361.7 514.5L361.5 514.5L360.5 514.5L360.4 514.5L358.9 514.6L358.7 514.6L358.7 514.6L358.7 515.1L358.3 515.0L357.9 515.0L357.5 514.8L357.0 514.7L356.2 514.4L355.6 514.2L354.3 513.6L353.2 513.3Z" fill="#cfeaee" stroke="#ffffff" stroke-width="1.2"/><path d="M519.7 483.4L519.8 483.0L519.8 481.1L519.8 480.5L519.9 480.0L520.2 479.5L520.2 479.4L520.3 478.8L520.3 478.7L520.3 478.7L520.3 478.7L520.4 476.9L520.5 476.4L520.7 475.9L520.8 475.7L520.8 475.6L520.8 475.2L520.9 475.0L520.9 474.9L521.0 474.5L521.2 474.2L521.3 474.0L521.3 473.9L521.4 473.6L521.4 473.3L521.6 473.0L521.8 472.7L521.8 472.6L522.0 472.1L522.3 471.4L522.7 471.1L522.7 471.1L522.8 471.0L522.8 471.0L522.9 470.9L523.1 470.5L523.1 470.4L523.5 469.6L523.8 469.0L524.1 468.5L524.3 468.2L524.6 468.0L524.6 468.0L524.7 467.8L524.8 467.8L524.8 467.7L524.8 467.7L524.9 467.6L525.1 467.2L525.9 466.3L526.3 465.9L526.7 465.5L527.3 464.8L527.4 464.7L527.6 464.6L527.6 464.5L528.0 464.0L528.1 464.0L529.1 462.9L529.3 462.5L530.4 461.2L530.6 460.8L530.6 460.7L531.7 459.2L532.1 458.4L532.3 457.9L532.8 456.8L533.0 456.4L533.1 456.1L533.1 455.9L533.4 455.2L533.9 454.0L533.9 453.9L534.1 453.3L534.3 452.3L534.5 451.6L534.5 451.1L534.6 450.3L534.6 450.3L534.7 450.2L534.7 450.2L534.8 449.9L534.8 449.6L534.8 449.0L534.9 448.4L534.8 447.9L534.8 447.5L534.8 447.1L534.9 446.8L534.8 446.3L534.8 444.9L534.6 443.1L534.6 442.8L534.5 442.3L534.3 441.2L534.0 440.5L533.8 439.3L533.5 438.7L533.3 437.9L532.9 437.2L532.8 436.9L532.7 436.7L532.7 436.4L532.6 436.3L532.6 436.3L532.6 436.3L532.5 436.2L532.4 436.0L532.0 435.3L531.8 434.8L531.6 434.3L531.0 433.5L530.8 432.8L530.7 432.8L530.7 432.8L530.4 432.4L530.2 432.1L530.0 431.6L529.9 431.3L529.8 431.2L529.7 431.0L529.6 430.8L529.4 430.3L529.0 429.3L529.0 429.2L529.0 429.2L529.0 429.2L529.0 429.2L529.0 429.2L528.9 429.2L528.9 429.2L528.8 428.8L528.3 427.5L528.2 427.2L528.0 426.9L528.0 426.9L528.0 426.8L527.5 425.8L527.1 424.7L527.1 424.5L527.1 424.5L527.1 424.4L527.1 424.4L527.1 424.2L526.5 422.8L526.5 422.8L526.4 422.4L526.1 421.2L525.6 419.6L525.6 419.6L525.6 419.5L525.5 419.2L525.5 419.2L525.3 418.2L525.3 418.1L525.3 418.1L525.3 418.0L525.3 418.0L525.3 417.8L525.3 417.8L525.3 417.7L525.3 417.6L525.2 417.0L524.9 415.8L524.9 415.4L525.0 415.1L524.7 413.9L524.7 413.0L524.6 412.0L524.7 411.1L524.7 410.9L525.3 409.5L525.3 409.0L525.4 408.6L526.3 407.6L526.6 406.9L526.7 406.8L526.9 406.7L527.0 406.6L527.8 406.0L528.5 405.2L528.7 405.0L528.8 404.9L528.9 404.8L529.6 404.5L529.9 404.1L530.4 403.7L530.8 403.5L530.9 403.5L531.0 403.5L531.0 403.5L531.3 403.4L531.4 403.3L531.9 403.0L532.1 402.9L533.1 402.6L533.5 402.4L534.6 402.0L535.2 401.9L536.6 401.7L537.4 401.6L538.1 401.6L540.3 401.0L541.7 400.8L541.7 400.8L541.7 400.8L541.8 400.8L541.8 400.8L541.8 400.8L541.9 400.7L541.9 400.7L541.9 400.7L542.0 400.7L542.2 400.7L542.4 400.6L542.8 400.4L544.3 399.8L545.5 399.4L545.8 399.2L546.2 398.9L546.8 398.7L547.5 398.5L547.5 398.5L547.6 398.5L547.6 398.5L547.6 398.5L547.6 398.5L548.1 398.2L550.1 397.3L550.6 397.1L550.7 397.1L550.7 397.1L550.8 397.1L551.2 396.9L551.2 396.9L551.2 396.9L551.6 396.7L551.8 396.6L551.8 396.6L551.8 396.6L551.8 396.6L551.8 396.6L551.8 396.6L551.8 396.6L551.9 396.6L551.9 396.6L551.9 396.6L551.9 396.6L552.0 396.5L554.9 395.0L557.6 393.5L558.6 392.8L560.3 391.8L560.9 391.2L561.1 391.1L561.1 391.1L561.8 390.5L562.5 390.0L562.9 389.6L563.7 389.0L563.7 388.9L564.0 388.7L564.0 388.7L564.3 388.4L564.9 387.6L565.3 387.1L565.6 386.6L566.1 386.2L566.4 385.7L566.6 385.4L566.7 385.1L567.0 384.7L567.0 384.6L567.3 384.0L567.3 383.9L567.4 383.8L567.7 383.3L567.7 383.2L567.7 383.2L567.7 383.2L567.8 383.1L567.8 383.1L567.9 382.8L567.9 382.7L567.9 382.7L569.3 382.7L569.7 382.7L572.2 382.7L572.5 382.7L573.5 382.7L574.2 382.8L574.7 382.8L574.8 382.8L575.3 382.8L575.7 382.9L575.9 382.9L577.8 382.8L578.9 382.9L579.0 382.8L579.0 382.8L579.0 382.8L579.1 382.8L580.9 382.7L581.1 382.7L581.9 382.7L591.8 383.0L592.4 383.0L596.5 383.2L597.6 383.1L597.7 383.1L597.7 383.1L597.8 383.1L598.7 383.1L599.3 383.2L599.5 383.2L600.1 383.1L600.9 383.2L601.0 383.2L601.0 383.1L601.2 383.1L601.5 383.1L601.8 383.1L601.9 383.1L602.0 383.1L602.0 383.1L602.1 383.0L602.7 383.1L603.0 383.1L603.0 382.6L603.0 382.4L603.1 382.4L603.3 382.4L603.3 382.1L603.3 382.0L606.8 381.9L606.9 383.0L609.6 383.0L611.2 383.0L611.3 383.0L611.5 383.0L611.8 383.0L613.3 382.9L613.5 382.9L614.6 382.9L616.0 382.9L619.5 382.8L621.8 382.8L623.7 382.8L625.2 382.7L625.6 382.7L625.6 382.7L627.8 382.7L628.5 382.7L628.9 382.7L629.2 382.7L630.1 382.7L632.1 382.7L632.9 382.7L633.9 382.7L634.7 382.7L635.1 382.7L635.5 382.7L635.7 382.7L636.0 382.7L636.7 382.7L637.4 382.7L637.4 382.8L637.5 382.8L638.9 382.8L640.3 382.8L641.5 382.8L643.7 382.9L644.6 382.9L645.0 382.9L645.9 382.9L646.8 382.9L647.3 382.9L648.2 382.9L648.8 382.9L648.8 382.9L649.2 382.9L649.7 382.9L649.8 382.9L650.0 382.9L652.1 382.9L652.4 382.9L652.9 382.9L652.9 387.1L652.9 388.2L652.9 388.6L653.2 393.7L653.3 395.1L652.9 395.5L648.2 399.6L644.5 402.9L644.1 403.3L643.8 403.5L643.8 403.6L643.4 403.9L643.2 404.1L642.8 404.6L642.6 404.8L642.4 405.0L639.7 408.4L639.0 409.1L638.6 409.5L638.2 410.0L637.8 410.4L637.3 410.8L637.2 410.9L637.2 410.9L633.2 414.4L632.9 414.8L632.5 415.1L632.2 415.4L631.9 415.7L631.7 415.9L632.0 415.9L632.1 415.9L632.1 415.9L632.2 415.9L632.4 415.9L632.5 416.0L632.5 415.9L632.7 415.9L632.8 415.9L633.0 416.2L633.1 416.3L634.3 417.5L634.8 418.1L634.6 418.6L634.3 419.1L634.3 419.2L634.5 419.3L634.7 419.4L634.8 419.4L634.8 419.5L634.9 419.5L634.9 419.5L634.8 419.8L634.5 420.4L633.3 420.4L633.3 420.8L633.3 422.2L633.2 424.6L632.7 424.2L630.1 421.7L630.2 421.5L630.3 421.4L629.9 420.2L628.7 419.4L628.5 419.6L628.0 420.3L626.8 421.9L626.8 421.9L627.0 422.0L627.9 422.5L627.7 422.9L627.4 423.2L627.3 423.4L627.0 423.8L626.7 424.3L626.6 424.4L626.3 424.8L626.0 425.3L625.8 425.6L625.7 425.7L625.6 425.8L626.3 426.2L626.5 426.3L626.6 426.2L627.4 424.9L627.9 425.4L628.0 425.5L628.2 425.8L627.9 426.3L627.8 426.4L627.7 426.6L628.2 426.9L628.3 426.9L628.6 427.1L628.7 427.0L630.1 427.9L630.3 428.0L630.1 428.4L630.6 428.7L630.7 428.7L630.9 428.7L631.0 428.7L631.2 428.7L631.3 428.7L631.5 428.7L631.7 428.7L631.8 428.7L631.9 428.7L631.9 428.8L632.7 428.8L633.0 428.9L633.2 428.9L633.7 428.8L634.1 428.8L634.1 424.7L634.4 424.7L634.7 424.7L634.9 424.7L635.3 424.7L635.8 424.7L638.3 424.7L639.3 424.7L642.4 424.7L644.5 424.7L644.8 424.7L645.0 424.7L645.3 424.7L645.9 424.7L646.5 424.7L647.6 424.7L649.3 424.7L649.6 424.7L651.2 424.7L651.8 424.7L652.4 424.7L652.8 424.7L652.8 424.6L652.8 420.6L654.7 420.6L657.0 420.6L657.0 418.5L657.0 418.1L657.0 416.5L657.1 416.4L657.0 416.4L657.0 416.4L657.0 413.5L657.0 412.3L657.3 412.3L657.9 412.2L658.3 412.2L658.6 412.2L658.8 412.2L660.2 412.2L660.2 412.2L660.8 412.2L660.9 412.2L661.3 412.2L661.4 411.2L662.4 410.3L662.4 408.1L662.7 407.2L662.8 405.9L662.9 405.9L665.6 405.8L665.4 401.3L666.4 401.3L669.4 401.5L669.4 401.0L669.4 400.9L669.4 400.4L669.4 400.1L669.4 399.9L669.4 399.7L669.5 399.8L669.6 399.9L670.0 400.2L670.5 400.7L670.5 401.0L670.5 401.8L670.9 401.8L671.4 401.8L671.4 402.4L671.4 402.5L671.4 402.6L671.4 403.5L671.3 408.1L670.7 408.1L670.9 413.5L670.6 413.4L670.6 416.5L670.6 416.5L670.6 417.9L670.6 418.4L670.7 423.1L672.2 424.9L672.9 424.8L673.5 424.8L673.0 425.2L670.7 427.2L670.6 427.2L670.4 427.2L670.3 428.8L670.1 428.8L670.2 433.0L670.2 433.4L669.4 433.4L667.2 433.4L665.5 433.5L664.8 433.5L664.8 433.5L664.8 433.4L664.8 433.1L662.5 433.1L661.1 433.1L658.2 433.1L657.5 433.1L656.9 433.1L657.0 433.5L657.0 433.8L656.9 435.3L656.9 435.9L656.9 436.5L656.2 436.5L656.0 436.5L655.9 436.5L655.9 436.5L655.8 436.5L654.5 436.5L654.5 436.5L654.1 436.5L654.1 436.5L653.5 436.5L650.5 436.6L649.9 436.6L649.9 436.6L646.8 436.6L645.9 436.6L645.3 436.6L645.2 436.6L645.0 436.6L644.4 436.6L644.4 436.6L644.3 436.7L644.2 436.9L643.9 437.3L642.2 439.5L641.8 440.0L641.5 440.5L641.4 440.6L641.4 440.6L641.3 440.8L641.5 440.8L641.4 441.0L641.4 441.1L641.1 441.3L640.9 441.5L640.7 441.6L640.8 440.8L639.8 440.8L638.4 440.8L637.8 440.8L637.7 436.6L635.9 436.6L632.6 436.6L632.1 436.6L632.1 437.2L632.1 437.5L632.1 437.8L632.1 438.5L632.1 439.8L632.1 440.5L632.1 440.7L631.9 440.7L631.5 440.7L631.0 440.7L630.5 440.7L628.7 440.7L628.6 440.7L628.6 440.0L627.9 440.0L627.9 440.4L627.9 440.7L627.8 440.7L628.2 442.9L623.7 442.6L623.5 442.7L621.1 442.7L621.1 442.9L619.7 442.8L619.7 445.0L618.0 445.0L615.6 443.4L615.6 443.5L615.5 443.8L615.4 444.1L615.4 444.3L615.4 444.5L615.3 444.7L615.3 444.8L615.3 445.1L615.3 445.3L615.3 449.0L615.3 449.1L615.3 451.5L615.3 451.5L615.3 453.0L615.3 453.2L615.3 453.8L615.3 453.9L615.4 454.1L615.4 454.2L615.4 454.2L615.4 454.6L615.3 455.3L615.3 457.3L617.1 457.4L617.1 458.6L617.7 458.6L617.7 459.3L616.9 459.3L616.9 458.8L616.8 458.8L616.6 458.8L616.5 458.8L616.5 458.7L615.8 458.5L615.8 458.9L615.6 458.9L615.6 458.8L615.5 458.8L615.4 458.8L615.3 458.8L615.3 459.2L615.3 460.2L615.3 461.0L615.3 461.2L615.3 461.6L619.5 461.6L619.5 462.7L616.1 462.7L616.1 462.6L615.3 462.6L615.2 462.8L616.1 464.0L616.4 464.4L616.5 464.5L617.1 463.9L617.4 463.7L617.5 463.6L617.7 463.5L618.0 463.6L619.1 463.8L619.4 463.8L619.7 463.7L620.0 463.6L620.3 463.4L620.5 463.1L620.6 462.9L621.5 463.3L621.4 465.9L622.1 465.9L623.8 466.0L623.8 466.6L623.8 469.4L623.7 469.3L623.3 469.1L621.1 468.0L619.5 467.2L618.9 466.9L618.5 466.6L618.2 466.4L617.9 466.2L617.7 465.9L617.5 465.8L617.5 465.7L617.2 465.4L616.9 465.5L616.7 465.5L616.6 465.5L616.1 465.5L615.9 465.5L615.9 465.5L615.7 465.5L615.6 465.5L615.3 465.6L615.1 465.6L614.9 465.7L614.6 465.8L614.4 465.8L614.0 465.9L613.7 466.0L613.7 466.0L613.6 466.0L613.6 466.2L613.6 466.2L613.6 466.3L613.7 466.4L613.7 466.6L613.8 466.7L613.9 466.8L614.0 466.9L614.7 467.7L614.9 467.8L615.0 468.0L615.1 468.2L615.1 468.3L615.2 468.5L615.2 468.6L615.2 468.7L615.2 468.9L615.2 470.9L615.2 473.1L615.2 474.1L615.2 474.3L615.2 476.8L615.1 477.7L615.1 479.9L615.1 480.3L615.1 480.8L612.7 480.6L614.1 482.2L613.8 482.3L613.5 482.2L611.0 482.3L611.0 487.7L610.9 499.0L610.8 506.9L610.8 507.9L610.8 508.3L610.8 508.3L618.1 508.1L618.1 509.0L618.0 510.5L618.0 511.0L617.9 511.4L617.9 511.7L617.9 511.9L617.8 512.2L617.7 512.5L617.6 512.9L617.5 513.1L617.3 513.5L617.1 513.9L616.0 516.0L615.9 516.0L615.9 516.1L615.8 516.2L612.5 516.2L610.6 516.1L610.4 516.1L610.0 516.1L603.8 516.0L603.8 515.9L603.7 515.9L603.4 515.8L603.2 515.8L603.1 515.8L603.0 515.8L596.6 515.6L596.3 515.7L595.4 515.8L594.8 515.9L594.9 515.1L594.8 514.7L594.7 514.6L594.6 514.2L594.6 514.2L594.5 513.6L594.4 512.9L594.2 512.5L593.9 512.1L593.4 510.3L593.1 509.9L592.7 509.4L592.3 509.0L592.1 508.6L591.8 508.0L591.6 507.7L590.8 507.0L590.0 506.0L588.6 504.9L588.2 504.7L587.7 504.4L587.3 504.0L586.9 503.9L586.6 503.8L586.5 503.7L585.6 503.2L584.9 503.0L584.0 502.5L583.4 502.4L583.0 502.2L582.3 501.9L581.6 501.8L580.6 501.4L580.0 501.4L579.6 501.2L578.5 501.0L578.1 500.9L577.5 500.7L577.1 500.6L576.7 500.7L575.6 500.4L574.9 500.4L573.9 500.3L573.4 500.3L572.3 500.2L571.6 500.3L570.6 500.3L570.1 500.3L569.1 500.3L568.4 500.4L567.1 500.4L566.8 500.5L566.3 500.6L565.2 500.6L564.5 500.6L564.0 500.7L563.1 500.7L562.7 500.8L561.9 500.9L561.4 501.0L560.9 501.0L556.7 502.1L556.2 502.3L555.7 502.4L554.7 502.7L553.8 502.8L553.1 503.0L551.8 503.3L549.2 503.7L545.7 504.4L545.0 504.4L544.3 504.5L543.7 504.6L543.4 504.6L543.0 504.5L542.5 504.5L540.5 504.6L540.0 504.7L539.3 504.7L537.5 504.9L536.6 504.8L535.2 504.8L534.8 504.7L534.2 504.5L533.7 504.5L533.3 504.5L532.7 504.5L532.2 504.3L531.8 504.1L531.4 504.0L530.7 504.0L530.1 503.8L529.6 503.5L529.2 503.1L527.7 502.3L527.1 501.9L526.8 501.5L526.6 501.1L526.1 500.6L525.6 500.2L525.5 500.0L524.8 499.4L524.7 499.1L524.5 498.7L524.0 498.0L523.8 497.7L523.7 497.4L523.1 496.6L522.9 495.9L522.3 495.1L522.2 494.8L522.1 494.4L521.6 493.6L521.5 492.9L521.2 492.3L520.9 491.8L520.9 491.2L520.4 490.2L520.4 489.8L520.4 489.3L520.1 487.9L520.0 487.4L519.9 487.1L519.8 486.7L519.8 486.3L520.0 485.8L520.0 485.8L520.0 485.5L520.0 485.5L519.8 484.8L519.8 484.4L519.8 484.2L519.7 483.8L519.7 483.4Z" fill="#9ed5dc" stroke="#ffffff" stroke-width="1.2"/><path d="M224.1 377.3L224.1 377.1L224.1 376.8L225.6 376.8L226.1 376.8L227.7 376.8L228.0 376.8L228.5 376.9L229.4 376.8L230.1 377.0L230.6 377.0L230.7 377.2L231.4 377.1L232.0 377.3L233.3 377.1L233.3 377.2L234.7 378.2L234.7 378.2L236.2 378.8L236.2 378.5L236.4 377.8L236.5 377.6L236.6 377.7L236.9 377.7L237.0 378.1L237.2 378.3L237.4 378.5L237.6 379.2L237.6 379.3L237.8 379.3L238.2 379.5L237.4 377.0L237.3 376.7L237.3 376.7L237.3 376.5L237.3 376.4L237.3 376.3L237.4 376.2L237.4 376.1L237.6 375.8L237.9 375.6L238.2 375.5L238.9 375.4L239.0 375.3L239.2 375.3L240.6 374.7L240.8 374.6L241.1 374.5L241.2 374.3L241.3 374.3L241.7 374.0L241.9 373.8L242.0 373.6L242.2 373.5L242.5 373.4L242.9 373.2L242.9 373.2L243.4 373.0L243.8 373.0L244.0 373.0L244.1 373.1L244.2 373.2L244.3 373.2L244.5 373.3L244.8 373.6L245.0 374.0L245.0 374.1L245.0 374.2L245.1 374.2L245.2 374.2L245.2 374.3L245.5 374.3L245.5 374.3L247.2 374.3L247.2 374.4L247.6 374.4L247.6 374.5L247.6 374.5L247.6 374.7L247.7 374.7L248.1 374.7L248.1 375.0L249.1 375.1L249.2 374.8L249.3 374.1L249.8 374.1L253.0 374.0L253.4 374.0L253.4 374.3L253.4 377.1L253.4 378.5L253.5 380.3L253.5 380.4L253.5 380.5L257.1 380.5L257.9 380.4L258.9 380.4L261.0 380.4L261.1 380.4L261.8 380.4L261.8 380.3L261.8 380.0L262.3 380.0L263.0 380.0L263.3 379.9L264.3 379.9L267.6 379.9L268.1 379.9L269.5 380.0L269.8 380.0L270.4 380.0L270.7 379.9L271.0 379.9L271.4 379.9L272.1 379.9L272.6 380.0L273.1 380.1L273.1 380.1L273.2 380.1L273.4 380.1L273.9 380.1L273.9 380.1L274.0 380.1L274.0 380.1L274.5 380.1L274.9 380.1L275.3 380.1L275.7 380.1L276.3 380.1L277.9 380.1L277.9 380.0L278.0 380.0L278.1 380.0L279.0 380.1L279.7 379.9L280.4 379.9L282.1 380.1L283.5 379.8L284.4 380.0L285.4 380.0L286.1 380.0L286.2 380.0L286.2 380.0L290.2 380.0L290.2 378.8L290.2 377.5L290.2 376.2L290.2 372.3L290.5 372.3L291.5 372.3L291.5 372.3L294.1 372.3L294.3 372.3L294.5 372.3L294.5 374.9L294.6 375.0L294.7 375.1L294.8 375.1L294.8 375.2L294.8 375.3L294.8 376.0L294.8 376.4L294.8 376.9L294.8 379.7L294.8 379.8L299.0 379.8L299.2 379.8L299.2 379.7L299.2 377.9L299.3 376.8L299.2 376.2L302.2 376.2L302.5 376.0L302.6 376.0L302.8 376.0L302.9 376.0L302.9 374.6L302.9 374.6L302.9 374.0L302.9 373.9L302.9 373.1L302.9 372.0L302.9 371.6L303.0 371.6L303.3 371.6L303.7 371.6L303.8 371.6L306.8 371.6L309.3 371.6L309.4 371.6L309.4 371.6L314.0 371.6L314.1 371.6L314.1 371.6L315.2 371.6L315.3 371.6L315.5 371.6L319.8 371.6L319.8 370.4L319.8 370.1L319.8 368.3L319.8 367.3L319.8 363.6L323.6 363.6L323.6 363.6L327.4 363.6L327.4 363.6L331.6 363.5L331.8 363.5L332.2 363.5L332.3 363.5L332.3 363.5L332.3 363.4L332.3 361.5L333.6 360.1L334.4 359.4L334.9 358.3L335.0 358.2L335.4 357.3L335.4 356.9L335.4 355.7L335.4 355.2L335.0 355.2L334.8 355.0L334.7 355.0L334.4 354.6L334.1 354.3L332.2 352.5L331.8 352.5L331.7 352.5L331.6 352.5L331.4 352.3L331.2 352.1L331.3 351.9L331.7 351.5L331.9 351.3L332.3 350.8L332.3 349.8L331.9 349.3L331.7 349.1L331.5 348.7L331.3 348.4L331.0 348.0L331.0 347.9L330.8 347.8L330.7 347.6L330.6 347.4L330.4 347.1L330.3 346.9L330.2 346.9L330.2 346.8L330.2 346.8L329.6 346.8L329.5 346.8L328.0 346.8L328.1 345.7L327.8 345.4L327.6 345.4L327.1 345.5L326.7 345.6L326.7 345.6L326.5 345.5L326.3 345.3L326.3 345.2L326.3 344.6L326.4 343.8L326.4 343.7L326.5 342.7L326.3 342.6L325.8 342.3L325.8 342.0L325.8 341.6L325.5 341.3L325.2 341.2L325.2 341.1L325.2 341.0L325.2 340.9L325.1 340.7L324.9 340.5L324.7 340.4L324.5 340.2L324.2 340.0L323.9 340.0L323.6 340.0L323.4 339.9L323.1 339.9L322.8 339.8L322.7 339.8L322.4 339.6L322.5 339.3L322.6 338.9L322.6 338.4L323.1 338.4L323.3 338.4L325.9 338.4L326.0 338.4L326.2 338.4L326.4 339.3L327.4 340.3L328.0 340.8L328.3 341.2L328.8 341.8L329.1 342.2L329.6 343.0L330.0 343.3L330.0 343.3L330.3 343.7L330.7 344.0L331.0 344.2L331.2 344.3L331.4 344.3L331.5 344.3L331.5 344.3L331.7 344.2L332.3 344.2L332.7 344.5L332.7 344.7L332.7 344.8L332.7 345.3L332.6 345.5L332.4 345.6L332.4 346.2L332.4 346.8L332.9 346.8L333.3 346.8L333.4 346.9L333.5 346.9L335.4 348.8L335.5 349.0L335.5 349.9L335.5 350.6L336.4 350.6L336.5 350.6L336.6 350.6L337.0 350.6L338.0 350.6L338.0 351.3L338.0 352.0L338.4 352.5L339.1 352.7L339.7 352.9L342.1 351.7L344.0 350.9L344.8 349.9L345.9 349.9L346.1 349.7L346.1 349.6L347.1 349.3L348.0 348.8L351.5 348.8L351.6 348.8L353.1 348.8L353.1 348.8L353.2 348.8L353.2 350.3L353.2 351.0L353.2 352.9L353.2 353.8L353.2 354.5L353.2 355.1L353.3 355.1L357.0 355.1L357.2 355.1L357.3 355.1L357.3 355.1L357.8 355.0L358.0 355.0L358.8 355.0L358.8 354.9L359.0 354.8L359.0 354.8L359.1 354.7L359.2 354.7L359.5 354.7L359.7 354.7L359.7 354.6L359.9 354.6L360.1 354.4L360.2 354.2L360.3 354.2L360.4 354.1L360.5 354.0L360.7 353.9L361.1 353.5L361.4 353.0L361.5 353.0L361.7 352.8L361.7 352.8L361.8 352.7L361.9 352.7L362.0 352.7L362.1 352.7L362.2 352.7L362.5 352.7L362.6 352.7L362.8 352.7L362.9 352.7L363.0 352.7L363.1 352.7L363.4 352.7L363.6 352.8L363.9 352.8L364.2 352.8L364.4 352.8L364.5 352.8L364.5 352.8L364.5 352.9L364.5 353.0L364.6 353.2L364.6 353.2L364.7 353.3L364.7 353.4L364.7 353.4L364.7 353.5L364.8 353.6L364.9 353.7L364.9 354.0L365.0 354.3L365.0 354.5L365.0 354.7L365.1 355.2L365.1 355.3L365.1 355.4L365.1 355.4L365.1 355.4L365.1 355.5L365.1 355.7L365.1 355.7L365.1 355.8L365.1 355.9L365.1 356.0L365.1 356.0L365.2 356.1L365.2 356.1L365.2 356.2L365.2 356.3L365.2 356.3L365.2 356.3L365.3 356.5L365.3 356.5L365.2 356.6L365.3 356.6L365.3 356.7L365.4 356.8L365.5 357.6L365.6 358.4L365.7 359.1L365.7 359.1L365.7 359.2L365.7 359.2L365.8 359.4L365.8 359.5L365.8 359.6L365.8 359.7L365.9 359.9L365.9 360.0L365.9 360.1L365.9 360.2L365.9 360.3L365.9 360.4L365.9 360.4L366.0 360.6L366.0 360.8L366.0 360.8L366.0 360.9L366.1 361.0L366.1 361.2L366.1 361.3L366.1 361.4L366.2 361.4L366.2 361.6L366.2 361.6L366.2 361.7L366.2 361.8L366.3 362.3L366.2 362.3L366.4 363.0L366.4 363.3L366.5 363.3L366.5 363.3L366.6 363.3L366.6 363.3L366.6 363.3L366.5 363.4L366.5 363.4L366.5 363.5L369.5 363.5L369.6 363.4L369.6 362.3L369.6 362.0L369.6 358.9L369.6 357.6L369.7 355.2L369.8 355.1L370.0 355.1L375.3 355.1L376.0 355.1L376.8 355.1L378.1 355.1L378.1 351.0L378.1 350.9L378.1 350.9L376.8 350.6L376.1 350.5L375.7 350.4L375.4 350.3L375.3 350.2L375.2 350.1L374.9 349.8L374.3 350.1L374.0 350.1L373.8 350.1L373.2 350.0L372.2 349.9L371.0 349.7L369.8 349.4L369.8 348.1L369.8 347.3L369.8 346.7L370.1 346.7L370.5 346.7L375.0 346.7L375.5 346.7L375.7 346.7L376.7 346.7L377.0 346.7L377.3 346.7L378.2 346.7L378.2 346.8L378.4 346.7L378.6 346.7L378.7 346.7L379.5 346.7L382.4 346.7L383.7 346.7L384.5 346.7L385.9 346.7L386.3 346.7L386.5 346.7L387.5 346.7L388.9 346.7L389.2 346.7L389.4 346.7L389.4 346.7L389.9 346.7L390.1 346.7L390.3 346.7L390.5 346.7L391.4 346.7L391.6 346.6L391.7 346.6L391.9 346.5L392.0 346.5L392.0 346.5L392.3 346.5L392.6 346.4L392.6 346.5L392.6 346.7L392.6 346.8L393.7 346.8L394.8 346.8L394.8 347.0L394.8 347.0L394.8 347.3L395.5 347.3L395.5 346.7L395.5 346.0L395.5 344.5L395.5 343.8L394.8 343.1L394.8 342.7L394.8 342.4L394.8 342.4L395.3 342.4L396.4 342.4L396.7 342.4L397.5 342.5L397.8 342.5L399.7 341.7L400.2 341.1L400.5 341.0L400.7 340.8L400.7 340.8L400.9 340.6L401.1 340.4L401.2 340.3L401.4 340.2L401.5 340.1L401.7 340.0L401.7 339.9L402.0 339.7L402.1 339.6L402.1 339.6L402.2 339.5L402.3 339.5L402.4 339.4L402.4 339.4L402.4 339.3L402.5 339.2L402.6 339.1L402.7 339.1L402.8 339.0L402.9 338.9L402.9 338.9L403.1 338.7L403.6 338.3L407.4 334.8L408.3 334.4L409.8 334.1L411.5 333.2L413.0 332.6L413.0 332.6L413.1 332.5L413.0 332.1L413.1 330.8L412.9 330.0L411.5 330.0L411.1 330.0L407.4 330.0L407.4 329.9L407.4 329.9L407.4 323.6L403.2 323.6L403.2 323.6L403.0 323.6L403.0 321.5L403.0 320.5L403.0 319.7L403.0 319.5L403.2 319.4L403.2 319.4L403.3 319.4L404.0 319.2L405.8 318.8L406.3 318.6L406.3 318.5L406.3 318.0L406.3 317.3L405.4 316.4L404.7 313.3L403.7 313.3L403.2 313.3L403.1 313.3L403.1 313.2L403.1 311.8L403.1 311.8L403.2 311.8L403.3 311.8L403.9 311.8L403.9 311.4L403.9 311.4L403.2 311.4L403.1 311.4L403.1 311.1L403.1 310.9L403.1 309.0L401.0 309.0L399.1 309.0L399.1 305.7L399.1 305.6L399.1 305.5L399.1 304.8L403.2 304.8L406.2 304.8L405.3 302.8L404.2 301.6L403.7 301.6L403.7 301.1L403.7 300.7L403.7 300.6L405.3 300.6L405.3 298.3L405.5 298.3L405.5 298.9L406.6 298.9L406.6 297.4L407.7 297.4L407.6 296.5L407.7 296.3L403.2 296.3L403.2 296.0L403.2 296.0L403.2 296.0L403.2 295.9L402.5 295.9L402.0 295.5L400.3 294.3L399.9 294.0L397.5 292.2L394.7 290.2L394.7 288.0L394.8 288.0L394.8 288.0L395.5 288.0L395.8 288.0L396.5 288.0L397.3 288.0L397.7 288.0L398.8 288.0L398.9 288.0L398.9 289.1L400.2 290.0L401.7 291.2L402.4 291.7L402.6 291.8L402.7 291.9L402.8 292.0L402.9 292.0L403.0 292.1L403.1 292.1L403.1 292.2L403.2 292.2L405.2 292.2L405.2 289.1L404.7 288.1L404.7 286.9L404.1 285.9L405.0 285.1L405.5 285.1L405.7 285.1L405.7 284.4L405.2 284.4L405.2 284.3L405.2 283.1L405.2 282.3L406.2 281.8L406.2 279.8L406.2 279.7L406.2 279.5L406.5 279.5L406.3 277.6L406.2 277.6L405.3 275.9L405.3 275.8L405.1 275.5L406.7 274.4L406.7 271.3L406.2 270.4L405.2 269.0L405.1 268.8L405.1 268.5L405.1 268.1L407.2 268.1L407.7 267.1L407.7 264.2L407.7 264.0L407.7 263.9L407.7 263.9L407.7 263.8L407.7 263.8L407.7 263.7L407.7 263.7L407.7 263.6L407.7 263.6L407.7 263.6L407.7 263.5L407.7 263.5L407.7 263.4L407.8 263.4L409.1 263.4L409.1 263.4L409.2 263.4L409.4 263.4L409.8 263.4L410.5 263.4L411.3 263.4L411.5 263.5L411.5 265.7L411.5 265.7L411.5 271.4L411.5 275.1L411.6 279.4L411.5 279.7L411.4 279.8L410.9 279.8L410.9 280.7L410.4 280.7L410.5 285.9L409.4 287.0L410.5 288.0L410.5 292.3L411.5 292.3L411.6 296.0L415.4 296.1L416.7 296.2L416.7 296.3L416.7 296.4L416.6 296.6L414.6 302.7L412.5 303.7L412.5 306.9L414.6 307.9L415.6 309.0L415.6 310.0L413.0 310.5L412.5 312.1L412.5 313.2L414.1 317.3L414.1 320.5L415.6 320.4L416.6 319.5L417.2 317.3L417.2 317.3L418.8 318.4L419.8 317.3L419.8 313.3L419.8 313.2L419.8 313.1L421.5 313.1L422.9 313.1L423.5 313.1L424.1 313.1L425.5 313.1L425.5 313.2L425.4 313.3L424.0 317.3L424.0 320.3L424.0 321.4L424.0 321.5L424.9 321.5L432.3 321.5L432.3 322.0L432.3 322.7L432.3 323.8L432.3 324.3L432.5 324.2L433.0 323.8L434.5 322.5L434.6 322.4L434.7 322.2L434.8 322.2L434.9 322.0L435.0 321.8L435.0 321.7L435.1 321.6L435.1 321.5L435.6 321.5L435.7 321.5L436.3 321.5L436.3 320.1L436.3 319.5L436.5 319.5L436.8 319.5L436.8 320.5L436.9 321.1L437.1 321.4L437.8 321.3L438.9 320.9L440.6 320.9L444.7 318.5L444.9 318.4L446.8 317.3L448.9 317.3L449.7 317.1L450.4 316.8L451.3 317.0L453.0 317.1L453.1 317.2L453.1 317.2L453.2 317.2L453.3 317.2L454.0 317.1L454.2 317.1L454.4 317.0L454.5 317.0L454.6 317.0L454.6 317.0L454.7 317.0L454.7 317.1L454.8 317.2L454.9 317.2L455.0 317.2L455.4 317.2L455.5 317.2L456.3 317.1L457.3 317.0L458.9 316.8L459.6 316.7L460.8 316.5L461.0 316.5L461.4 316.4L461.7 316.4L462.2 316.3L462.3 316.3L463.1 316.3L463.2 316.1L463.2 316.0L463.2 315.9L463.2 313.4L463.2 313.4L463.3 313.3L463.3 313.3L463.3 313.3L463.4 313.2L463.4 313.2L463.5 313.2L464.3 313.2L465.4 313.2L467.3 313.2L469.8 313.2L469.9 313.2L470.0 313.2L472.5 313.2L472.6 313.2L472.9 313.2L472.9 311.5L473.2 312.3L473.3 312.5L473.7 313.1L473.8 313.2L474.1 313.8L474.2 313.8L474.6 314.2L474.9 314.5L475.2 314.6L475.3 314.8L476.5 316.0L477.3 316.9L477.4 317.0L478.3 317.3L478.2 317.0L478.8 317.1L479.2 317.3L479.4 317.3L480.1 317.5L480.4 317.5L480.3 313.2L480.3 311.4L480.5 310.9L480.5 310.8L480.3 310.3L480.2 309.9L480.2 309.7L480.1 309.5L480.0 309.2L479.8 309.0L479.8 309.0L479.9 309.0L480.1 309.0L480.4 309.0L480.4 309.0L480.4 309.7L481.2 309.7L481.3 309.7L481.8 309.0L484.4 309.0L484.5 309.0L484.9 309.8L486.5 309.8L486.6 309.8L486.7 309.8L486.7 306.3L486.7 305.9L486.7 304.9L489.0 304.9L489.1 304.9L489.1 305.3L489.1 306.9L490.2 306.9L490.6 306.9L490.8 306.9L490.8 306.3L490.9 306.1L490.9 306.0L490.9 306.0L490.8 304.1L490.8 303.7L490.8 302.6L490.8 302.3L490.7 300.6L490.7 300.6L490.7 299.1L490.7 298.5L490.7 297.7L490.7 297.3L490.7 296.5L490.6 294.8L490.6 294.7L490.6 294.6L490.6 292.8L490.7 292.6L490.7 292.3L490.7 291.6L490.7 291.2L490.7 290.2L490.7 289.8L490.7 289.5L490.7 289.1L490.7 288.3L490.7 288.2L490.7 288.2L490.7 288.1L492.6 288.1L492.6 287.1L492.6 286.0L491.8 286.0L489.2 286.0L489.1 286.0L488.9 286.0L486.8 286.0L486.6 286.0L486.4 286.0L486.4 285.6L486.4 284.5L486.4 283.8L486.4 283.3L486.4 283.2L486.4 282.9L486.3 282.6L486.4 282.4L486.5 282.4L486.5 282.4L486.9 282.5L487.7 282.6L489.3 282.8L490.3 282.9L490.9 283.0L491.3 283.0L491.8 283.1L491.9 283.1L492.1 283.0L492.3 283.0L492.4 283.0L492.6 282.9L492.8 282.9L493.8 282.4L494.0 282.3L494.1 282.2L494.2 282.2L494.3 282.2L494.4 282.2L494.5 282.2L494.6 282.3L494.7 282.3L494.7 282.3L494.9 282.4L495.1 282.5L495.2 282.6L495.2 282.3L497.7 284.8L497.7 284.9L497.8 285.0L497.8 285.1L497.8 285.2L497.9 285.4L498.2 285.4L498.0 286.0L498.0 286.2L497.5 288.1L496.9 290.5L494.6 294.9L493.8 296.4L494.8 296.4L498.3 296.3L499.1 296.3L500.6 296.4L501.7 296.4L502.8 296.3L507.0 296.3L511.2 296.3L514.8 296.2L515.0 296.2L516.1 296.2L516.1 296.2L517.3 296.2L517.2 296.6L517.2 296.6L516.9 297.0L516.8 297.1L516.6 297.6L516.2 298.4L515.3 299.3L515.1 299.7L514.9 300.0L513.7 301.2L513.3 301.6L512.6 302.1L512.4 302.4L512.0 302.7L510.8 303.2L510.2 303.7L509.6 303.9L509.3 304.0L508.8 304.2L508.7 304.3L508.2 304.5L506.7 305.1L506.5 305.2L504.9 305.4L504.4 305.5L503.3 305.7L502.2 306.1L501.9 306.3L501.2 306.4L500.8 306.7L500.3 306.8L499.8 307.0L498.6 307.7L497.7 308.7L497.2 309.0L497.0 309.2L497.0 309.3L496.4 310.1L495.7 311.0L495.2 312.1L494.9 312.5L494.5 313.8L494.4 314.6L494.3 316.4L494.5 318.1L494.5 318.2L494.5 318.3L494.6 318.5L494.6 318.5L494.8 319.4L495.4 321.4L495.7 321.9L496.1 322.7L497.7 325.5L498.4 326.4L499.2 327.8L499.6 328.2L500.3 329.1L500.5 329.3L502.2 331.1L502.7 331.7L502.7 331.7L503.7 332.8L505.1 334.1L505.8 334.7L506.2 335.0L506.2 335.0L506.8 335.6L507.8 336.4L507.8 336.4L508.8 337.2L509.3 337.8L509.7 338.1L509.7 338.1L509.9 338.2L510.2 338.3L511.2 339.0L512.5 339.9L513.1 340.5L513.7 340.9L514.2 341.1L515.6 342.2L516.2 342.5L516.2 342.5L516.6 342.7L517.2 343.1L518.6 344.4L520.0 345.1L520.3 345.3L520.5 345.4L521.7 346.2L522.2 346.5L524.4 347.0L525.5 347.5L527.9 347.9L528.3 347.9L528.7 347.9L529.8 347.9L530.6 348.1L531.0 348.1L531.4 348.1L531.9 347.9L533.1 347.9L533.4 347.9L533.4 347.9L534.2 347.8L535.0 347.7L535.7 347.7L536.5 347.5L537.2 347.3L537.4 347.3L537.5 347.3L539.6 346.8L540.5 346.6L541.9 346.5L542.6 346.3L543.4 346.5L544.2 346.3L545.2 346.6L546.5 346.6L546.9 346.8L547.6 346.9L548.3 346.9L548.6 346.9L549.0 347.1L549.5 347.3L549.8 347.4L551.1 347.6L551.5 347.8L552.0 348.1L552.9 348.4L553.5 348.6L553.8 348.8L554.0 349.0L554.1 349.0L554.2 349.1L554.2 349.1L554.3 349.2L554.5 349.2L554.7 349.4L555.2 349.6L555.2 349.6L555.5 349.7L556.0 349.9L556.7 350.2L557.5 351.0L558.2 351.5L558.6 351.7L559.0 351.9L559.6 352.4L559.9 353.0L561.0 354.0L561.3 354.2L561.6 354.5L562.2 355.5L562.7 355.7L563.0 356.0L563.8 357.2L564.3 357.8L564.6 358.3L565.2 359.3L565.4 359.8L565.8 360.2L566.2 361.4L566.4 361.7L566.6 362.0L566.7 362.5L567.0 363.9L567.2 364.4L567.6 365.5L567.9 366.2L568.1 367.2L568.2 367.6L568.6 369.1L568.6 369.6L568.7 370.0L568.8 371.1L569.0 371.8L569.0 372.8L569.1 373.4L569.1 374.3L569.2 375.0L569.2 375.7L569.0 376.8L569.0 376.9L569.0 377.8L568.9 378.1L569.0 378.8L568.8 379.6L568.6 380.0L568.4 381.4L568.0 382.4L567.9 382.7L567.9 382.7L567.9 382.8L567.8 383.1L567.8 383.1L567.7 383.2L567.7 383.2L567.7 383.2L567.7 383.3L567.4 383.8L567.3 383.9L567.3 384.0L567.0 384.6L567.0 384.7L566.7 385.1L566.6 385.4L566.4 385.7L566.1 386.2L565.6 386.6L565.3 387.1L564.9 387.6L564.3 388.4L564.0 388.7L564.0 388.7L563.7 388.9L563.7 389.0L562.9 389.6L562.5 390.0L561.8 390.5L561.1 391.1L561.1 391.1L560.9 391.2L560.3 391.8L558.6 392.8L557.6 393.5L554.9 395.0L552.0 396.5L551.9 396.6L551.9 396.6L551.9 396.6L551.9 396.6L551.8 396.6L551.8 396.6L551.8 396.6L551.8 396.6L551.8 396.6L551.8 396.6L551.8 396.6L551.6 396.7L551.2 396.9L551.2 396.9L551.2 396.9L550.8 397.1L550.7 397.1L550.7 397.1L550.6 397.1L550.1 397.3L548.1 398.2L547.6 398.5L547.6 398.5L547.6 398.5L547.6 398.5L547.5 398.5L547.5 398.5L546.8 398.7L546.2 398.9L545.8 399.2L545.5 399.4L544.3 399.8L542.8 400.4L542.4 400.6L542.2 400.7L542.0 400.7L541.9 400.7L541.9 400.7L541.9 400.7L541.8 400.8L541.8 400.8L541.8 400.8L541.7 400.8L541.7 400.8L541.7 400.8L541.6 400.8L540.8 400.4L540.0 400.2L539.9 400.1L539.7 400.1L539.6 400.0L539.2 399.6L539.0 399.5L538.9 399.4L538.9 399.4L538.5 399.1L538.4 399.0L538.4 399.0L538.3 398.9L538.3 398.9L538.3 398.9L538.3 398.9L538.2 398.8L538.1 398.8L538.1 398.7L537.9 398.6L537.2 398.0L537.1 397.9L537.0 397.9L536.6 397.5L535.6 396.7L533.2 394.8L534.6 393.0L534.7 392.8L535.0 392.5L535.8 391.3L536.3 390.8L537.0 389.8L537.1 389.6L537.4 389.3L537.4 389.2L537.4 389.2L537.5 389.0L537.7 388.8L537.9 388.6L537.9 388.5L537.9 388.4L537.9 388.4L538.1 388.0L538.1 387.9L538.1 387.8L538.1 387.8L538.1 387.8L538.2 387.6L538.2 387.5L538.3 387.2L538.3 387.2L538.3 387.1L538.6 386.4L538.7 385.8L538.8 385.6L538.9 384.5L538.9 384.5L538.9 384.5L538.9 384.4L539.0 384.4L539.0 384.0L539.2 382.3L539.3 382.0L539.4 381.3L539.5 381.3L539.5 381.3L539.7 381.2L539.6 380.9L540.0 379.7L540.0 379.4L540.0 379.3L539.7 379.2L539.4 379.2L539.4 379.0L539.7 378.9L539.9 378.9L539.9 379.0L540.2 379.0L540.2 378.7L540.2 378.1L540.2 378.1L540.2 378.1L540.2 377.9L540.2 377.6L540.3 377.3L540.3 377.1L540.3 377.1L540.3 376.8L540.3 376.8L540.3 376.6L540.3 376.5L540.3 376.4L540.3 376.3L540.3 376.2L540.3 376.2L540.3 376.2L540.4 374.5L540.4 374.2L540.4 374.1L540.5 374.1L540.5 373.9L540.4 373.8L540.4 373.2L540.3 372.8L540.3 372.5L540.3 372.5L540.2 372.3L540.2 372.2L540.2 372.2L540.1 371.9L540.1 371.8L539.9 371.4L539.0 370.0L539.0 370.0L539.0 370.0L538.9 370.0L538.8 370.0L537.9 369.9L537.8 369.9L537.8 369.9L537.7 369.9L537.6 369.9L537.2 369.9L537.1 369.9L537.1 369.9L537.1 369.9L537.0 369.9L537.0 369.9L536.8 369.9L536.7 369.9L536.3 369.9L536.0 369.8L536.0 369.8L535.9 369.8L535.9 369.8L535.9 369.8L535.9 369.8L535.9 369.8L535.8 369.8L535.8 369.8L535.7 369.8L535.4 369.8L534.7 369.8L534.7 369.8L534.4 369.7L534.3 369.7L534.2 369.7L533.9 369.7L533.6 369.7L532.6 369.7L532.1 369.6L526.5 369.8L524.7 370.7L522.7 371.6L521.2 372.4L520.1 373.0L519.9 373.9L519.8 374.1L519.8 374.1L519.8 374.1L519.8 374.1L519.8 374.4L519.7 374.7L519.6 375.2L519.5 375.2L519.5 375.3L519.5 375.3L519.5 375.4L519.1 377.1L519.0 377.5L519.0 377.6L519.0 377.6L519.0 377.6L518.9 377.7L518.9 378.0L518.7 378.6L518.4 380.1L518.4 382.0L518.4 382.2L518.4 388.4L519.2 392.7L520.0 393.4L520.2 393.6L520.2 393.6L520.2 393.6L520.3 393.6L520.3 393.7L520.4 393.7L520.6 393.9L520.6 393.9L521.5 394.7L521.6 394.8L521.6 394.8L522.5 395.7L522.6 395.7L527.7 400.3L528.0 400.6L528.3 400.9L528.4 401.0L528.6 401.1L528.6 401.1L529.5 402.0L530.2 402.6L530.3 402.7L530.4 402.7L530.5 402.7L531.2 402.9L531.9 403.0L531.4 403.3L531.3 403.4L531.0 403.5L531.0 403.5L530.9 403.5L530.8 403.5L530.4 403.7L529.9 404.1L529.6 404.5L528.9 404.8L528.8 404.9L528.7 405.0L528.5 405.2L527.8 406.0L527.0 406.6L526.9 406.7L526.7 406.8L526.6 406.9L526.3 407.6L525.4 408.6L525.3 409.0L525.3 409.5L524.7 410.9L524.7 411.1L524.6 412.0L524.7 413.0L524.7 413.9L525.0 415.1L524.9 415.4L524.9 415.8L525.2 417.0L525.3 417.6L525.3 417.7L525.3 417.8L525.3 417.8L525.3 418.0L525.3 418.0L525.3 418.1L525.3 418.1L525.3 418.2L525.5 419.2L525.5 419.2L525.6 419.5L525.6 419.6L525.6 419.6L526.1 421.2L526.4 422.4L526.5 422.8L526.5 422.8L527.1 424.2L527.1 424.4L527.1 424.4L527.1 424.5L527.1 424.5L527.1 424.7L527.5 425.8L528.0 426.8L528.0 426.9L528.0 426.9L528.2 427.2L528.3 427.5L528.8 428.8L528.9 429.2L528.9 429.2L529.0 429.2L529.0 429.2L529.0 429.2L529.0 429.2L529.0 429.2L529.0 429.3L529.4 430.3L529.6 430.8L529.7 431.0L529.8 431.2L529.9 431.3L530.0 431.6L530.2 432.1L530.4 432.4L530.7 432.8L530.7 432.8L530.8 432.8L531.0 433.5L531.6 434.3L531.8 434.8L532.0 435.3L532.4 436.0L532.5 436.2L532.6 436.3L532.6 436.3L532.6 436.3L532.7 436.4L532.7 436.7L532.8 436.9L532.9 437.2L533.3 437.9L533.5 438.7L533.8 439.3L534.0 440.5L534.3 441.2L534.5 442.3L534.6 442.8L534.6 443.1L534.8 444.9L534.8 446.3L534.9 446.8L534.8 447.1L534.8 447.5L534.8 447.9L534.9 448.4L534.8 449.0L534.8 449.6L534.8 449.9L534.7 450.2L534.7 450.2L534.6 450.3L534.6 450.3L534.5 451.1L534.5 451.6L534.3 452.3L534.1 453.3L533.9 453.9L533.9 454.0L533.4 455.2L533.1 455.9L533.1 456.1L533.0 456.4L532.8 456.8L532.3 457.9L532.1 458.4L531.7 459.2L530.6 460.7L530.6 460.8L530.4 461.2L529.3 462.5L529.1 462.9L528.1 464.0L528.0 464.0L527.6 464.5L527.6 464.6L527.4 464.7L527.3 464.8L526.7 465.5L526.3 465.9L525.9 466.3L525.1 467.2L524.9 467.6L524.8 467.7L524.8 467.7L524.8 467.8L524.7 467.8L524.6 468.0L524.6 468.0L524.3 468.2L524.1 468.5L523.8 469.0L523.5 469.6L523.1 470.4L523.1 470.5L522.9 470.9L522.8 471.0L522.8 471.0L522.7 471.1L522.7 471.1L522.3 471.4L522.0 472.1L521.8 472.6L521.8 472.7L521.6 473.0L521.4 473.3L521.4 473.6L521.3 473.9L521.3 474.0L521.2 474.2L521.0 474.5L520.9 474.9L520.9 475.0L520.8 475.2L520.8 475.6L520.8 475.7L520.7 475.9L520.5 476.4L520.4 476.9L520.3 478.7L520.3 478.7L520.3 478.7L520.3 478.8L520.2 479.4L520.2 479.5L519.9 480.0L519.8 480.5L519.8 481.1L519.8 483.0L519.7 483.4L519.7 483.8L519.8 484.2L519.8 484.4L519.8 484.8L520.0 485.5L520.0 485.5L520.0 485.8L520.0 485.8L519.8 486.3L519.8 486.7L519.9 487.1L520.0 487.4L520.1 487.9L520.4 489.3L520.4 489.8L520.4 490.2L520.9 491.2L520.9 491.8L521.2 492.3L521.5 492.9L521.6 493.6L522.1 494.4L522.2 494.8L522.3 495.1L522.9 495.9L523.1 496.6L523.7 497.4L523.5 497.3L522.4 497.2L522.4 497.2L522.3 497.2L522.3 497.2L522.1 497.2L521.5 497.2L521.5 497.2L517.5 497.2L517.5 497.2L516.5 497.1L515.1 497.1L515.0 497.1L515.0 497.2L515.0 497.2L514.9 497.2L512.9 497.2L512.1 497.2L511.6 497.1L511.5 497.1L511.0 497.1L510.9 497.1L510.8 497.1L510.8 497.1L510.8 497.1L510.7 497.1L510.6 497.1L509.8 497.1L509.7 497.1L509.5 497.1L509.5 497.1L509.5 497.1L509.2 497.1L509.2 497.1L508.9 497.1L508.8 497.1L508.7 497.1L508.2 497.1L508.0 497.1L508.0 497.1L507.7 497.1L507.6 497.1L507.0 497.2L506.8 497.2L506.7 497.2L506.7 497.2L506.6 497.2L506.2 497.2L505.9 497.2L504.6 497.2L504.5 497.2L504.1 497.2L502.5 497.2L502.4 497.2L502.3 497.2L501.5 497.3L501.2 497.3L500.7 497.3L500.6 497.3L500.6 497.3L500.6 497.3L500.3 497.3L500.3 497.3L498.2 497.3L498.2 497.3L497.5 497.3L496.5 497.3L496.4 497.3L496.2 497.3L496.1 497.3L494.0 497.3L492.9 497.3L492.9 497.3L491.9 497.3L491.1 497.3L490.8 497.3L489.8 497.3L489.8 497.3L489.8 497.3L488.9 497.3L488.5 497.3L487.6 497.4L486.4 497.4L485.5 497.4L485.5 497.4L484.3 497.4L483.5 497.4L483.1 497.4L481.4 497.4L480.5 497.4L480.4 497.4L480.2 497.4L479.3 497.4L479.2 497.4L479.2 497.4L478.9 497.4L478.0 497.4L478.0 497.4L477.2 497.4L476.9 497.4L476.8 497.4L476.6 497.4L476.6 497.4L476.3 497.4L476.2 497.4L475.1 497.4L475.0 497.4L474.5 497.4L474.4 497.4L473.9 497.4L473.2 497.4L473.0 497.4L472.9 497.4L472.5 497.4L472.4 497.4L470.9 497.5L470.7 497.5L469.5 497.5L469.1 497.5L468.8 497.5L468.8 497.5L468.1 497.5L467.1 497.5L466.5 497.5L466.4 497.5L466.2 497.5L466.0 497.5L465.8 497.5L465.1 497.5L464.7 497.5L464.6 497.5L464.4 497.5L464.4 497.5L464.1 497.5L464.1 497.5L464.0 497.5L463.4 497.5L463.3 497.5L463.2 497.5L462.9 497.5L462.8 497.5L462.1 497.5L461.6 497.5L461.6 497.5L460.0 497.6L459.4 497.6L459.1 497.6L458.9 497.6L458.6 497.6L457.8 497.6L457.8 497.6L457.4 497.6L456.4 497.6L455.5 497.6L454.4 497.6L452.9 497.6L452.9 497.6L452.7 497.6L452.7 497.6L452.1 497.6L451.8 497.6L451.8 497.6L451.1 497.6L450.6 497.6L449.8 497.5L449.7 497.5L449.6 497.5L449.3 497.5L449.1 497.5L449.1 497.5L449.0 497.5L448.8 497.5L448.7 497.5L448.6 497.5L447.5 497.5L446.8 497.5L446.3 497.5L446.2 497.5L445.0 497.5L444.9 497.5L444.8 497.5L444.5 497.5L444.2 497.5L442.1 497.5L441.9 497.5L441.5 497.5L440.7 497.5L439.8 497.5L439.7 497.5L439.1 497.5L439.1 497.6L438.6 497.6L438.1 497.5L437.9 497.5L436.7 497.5L436.6 497.4L436.6 497.2L436.6 497.1L436.6 496.9L436.6 496.7L436.6 496.4L436.5 494.5L436.5 494.4L436.5 493.3L436.5 489.9L436.5 487.9L436.5 487.0L436.5 486.9L436.5 486.5L436.5 485.2L436.5 484.7L436.5 484.4L436.5 484.0L436.5 483.5L436.5 483.4L436.5 483.2L436.5 482.4L436.5 481.4L436.5 480.7L436.5 478.9L436.5 478.6L436.5 478.3L436.5 477.5L436.5 476.7L436.5 476.6L436.5 476.5L433.8 476.5L433.7 476.5L433.6 476.5L433.2 476.5L433.2 476.3L433.2 476.2L433.2 472.5L433.2 472.3L432.9 472.3L432.8 472.3L432.4 472.3L430.4 472.3L430.2 472.3L429.6 472.3L429.5 472.3L428.9 472.3L428.9 472.5L428.0 472.5L425.3 472.5L424.5 472.5L424.4 472.6L424.1 472.5L422.7 472.5L422.5 472.6L422.4 472.5L421.5 472.5L420.9 472.5L420.7 472.7L419.8 472.6L419.8 472.6L419.8 473.6L419.8 474.3L419.8 476.4L419.8 476.7L419.8 476.8L419.8 477.3L419.8 479.4L419.8 479.6L419.8 479.7L419.8 480.2L419.8 480.7L419.8 480.9L419.8 481.9L419.8 482.7L419.8 484.5L419.8 484.7L419.8 485.0L419.8 485.4L419.8 485.8L419.7 485.8L419.6 485.8L419.5 485.8L419.4 485.8L419.3 485.7L419.2 485.7L419.1 485.6L419.1 485.6L419.0 485.5L418.9 485.3L418.8 485.3L418.8 485.2L418.7 485.1L418.6 485.0L418.5 485.0L418.3 484.9L418.2 484.9L418.1 484.9L417.9 484.9L417.9 482.7L417.8 480.8L417.7 480.8L417.2 480.8L417.3 481.4L417.4 481.5L417.6 481.5L417.7 481.4L417.7 483.0L417.7 483.1L417.7 483.7L417.7 484.2L417.7 484.8L417.7 484.9L417.7 484.9L417.6 484.9L417.4 484.9L412.9 484.9L412.5 484.8L412.1 484.8L411.8 484.7L411.8 484.9L411.8 488.5L411.8 489.0L412.3 489.0L415.6 489.0L415.7 489.0L415.8 488.9L415.8 487.7L415.8 485.2L416.8 485.2L418.1 485.2L418.2 485.2L418.3 485.3L418.4 485.3L418.5 485.4L418.6 485.4L418.6 485.5L418.7 485.6L418.7 485.7L418.8 485.7L418.8 485.7L418.8 485.8L418.9 485.8L418.9 485.9L419.0 486.0L419.1 486.0L419.2 486.0L419.3 486.1L419.6 486.1L419.7 486.1L419.8 486.1L419.8 486.1L419.8 486.6L419.8 487.2L419.8 488.5L419.8 488.6L419.7 488.6L419.6 488.6L419.6 488.9L419.4 489.0L419.4 490.5L419.4 491.7L419.4 493.2L419.4 493.2L418.1 493.2L412.2 493.3L411.6 493.3L411.6 493.6L411.6 494.2L411.6 494.3L411.6 494.9L411.6 495.7L411.6 496.1L411.7 496.3L411.7 496.4L411.8 496.6L411.9 496.7L411.9 496.8L412.1 497.1L412.1 497.2L412.1 497.3L412.1 497.5L411.8 497.5L411.3 497.5L409.0 497.5L407.5 497.5L407.3 497.5L407.2 497.5L403.4 497.5L403.3 497.5L403.3 497.5L403.2 497.5L403.1 497.5L403.1 497.5L402.9 497.5L401.3 497.5L401.3 497.5L399.1 497.5L397.1 497.5L396.8 497.5L396.0 497.5L395.5 497.5L395.3 497.5L395.3 497.5L395.1 497.5L394.8 497.5L394.8 497.5L394.3 497.5L392.6 497.5L392.1 497.5L391.8 497.5L390.7 497.5L390.7 497.5L388.2 497.5L388.2 497.5L387.6 497.5L387.1 497.5L386.5 497.5L386.4 497.5L385.6 497.5L384.5 497.5L384.2 497.5L383.5 497.5L381.4 497.5L381.4 497.5L381.2 497.5L380.8 497.5L380.5 497.5L380.2 497.5L380.2 497.5L379.5 497.5L379.3 497.5L379.2 497.5L379.2 497.5L379.1 497.5L378.7 497.5L378.4 497.5L378.2 497.5L377.6 497.5L377.6 497.5L376.9 497.5L376.5 497.5L376.0 497.5L375.5 497.5L375.1 497.6L374.9 497.6L374.7 497.6L374.3 497.6L373.7 497.6L373.6 497.6L371.7 497.7L370.9 497.7L370.4 497.7L370.4 497.7L369.8 497.7L369.6 497.7L369.5 497.7L369.4 497.7L369.3 497.7L369.1 497.7L369.1 497.7L369.1 497.7L368.8 497.7L368.7 497.7L368.4 497.7L368.3 497.7L368.2 497.7L368.2 497.7L368.0 497.7L368.0 497.7L367.9 497.7L367.6 497.7L367.4 497.7L366.9 497.7L366.3 497.7L366.1 497.7L365.4 497.7L365.3 497.7L364.1 497.7L363.5 497.7L363.2 497.7L363.2 497.7L363.1 497.7L363.0 497.7L362.9 497.7L362.8 497.7L362.7 497.7L362.6 497.7L362.5 497.6L362.4 497.6L362.4 497.6L362.3 497.6L362.2 497.6L362.1 497.6L361.6 497.6L361.5 497.6L361.2 497.6L358.7 497.6L355.6 497.7L354.8 497.7L353.2 497.7L353.0 497.7L352.7 497.7L352.4 497.7L351.8 497.7L351.3 497.6L351.0 497.6L349.2 497.6L348.5 497.6L347.6 497.6L347.0 497.6L347.0 497.6L346.8 497.5L346.5 497.5L345.7 497.5L345.2 497.5L345.0 497.5L344.9 497.5L344.9 497.5L344.5 497.5L344.0 497.5L343.3 497.5L342.6 497.5L341.8 497.5L341.0 497.5L339.6 497.5L339.6 497.5L339.4 497.5L337.8 497.4L337.8 497.4L337.2 497.4L336.5 497.4L336.5 497.4L335.5 497.4L335.4 497.4L334.9 497.4L334.9 497.4L334.4 497.4L334.0 497.4L332.1 497.4L331.2 497.4L330.6 497.4L330.2 497.4L328.9 497.4L328.5 497.4L328.5 497.4L328.1 497.4L327.5 497.4L326.7 497.4L325.2 497.4L325.1 497.4L324.5 497.4L324.4 497.4L323.8 497.4L323.0 497.4L322.4 497.5L322.4 497.5L322.0 497.5L321.8 497.5L321.7 497.5L321.6 497.5L321.1 497.4L320.0 497.5L319.8 497.5L319.6 497.5L319.6 497.5L319.1 497.5L318.8 497.5L318.6 497.5L318.5 497.5L317.7 497.5L317.7 497.5L317.6 497.5L317.3 497.5L317.0 497.5L316.2 497.5L315.6 497.5L315.4 497.5L315.1 497.5L314.5 497.5L314.2 497.5L313.6 497.5L313.5 497.5L313.4 497.5L312.1 497.5L311.7 497.5L311.3 497.5L310.9 497.5L310.3 497.6L310.3 497.6L310.0 497.6L309.6 497.6L308.2 497.6L307.2 497.6L305.7 497.6L305.1 497.6L304.9 497.6L304.9 497.6L304.7 497.6L304.7 497.6L304.6 497.6L304.3 497.6L303.8 497.6L302.9 497.6L302.9 497.6L302.5 497.6L301.9 497.6L300.8 497.6L300.8 497.6L298.9 497.6L298.7 497.6L298.0 497.6L297.3 497.6L297.2 497.6L297.2 497.6L296.8 497.6L296.7 497.6L296.2 497.6L296.0 497.6L294.9 497.6L294.6 497.6L294.3 497.6L294.2 497.6L293.5 497.6L293.2 497.6L292.6 497.6L291.2 497.6L290.8 497.6L290.8 497.6L290.7 497.6L289.3 497.6L288.9 497.6L288.1 497.6L288.0 497.6L287.0 497.6L286.2 497.6L286.2 497.6L286.2 497.6L286.2 497.6L286.2 497.6L284.4 497.6L284.2 497.6L283.2 497.6L282.4 497.6L282.4 497.6L279.7 497.7L279.6 497.7L279.6 497.7L278.0 497.7L278.0 497.3L278.0 497.1L278.0 497.0L278.0 496.9L278.0 495.2L278.0 495.0L278.0 495.0L278.0 491.1L278.0 491.0L278.0 491.0L278.0 490.9L278.0 489.2L278.0 489.2L278.0 488.2L278.1 482.4L278.1 482.4L277.8 482.4L277.5 482.4L277.5 482.4L277.5 482.1L277.5 480.9L278.2 480.9L278.2 472.5L276.0 472.5L274.1 472.5L274.1 470.5L269.8 470.5L269.8 470.1L269.9 467.9L269.9 464.6L269.9 464.4L270.0 464.4L274.4 464.4L276.2 464.4L277.2 464.4L278.2 464.4L278.2 464.2L278.2 463.7L278.2 463.2L278.2 462.9L278.2 462.6L278.2 462.3L278.2 462.2L278.2 462.0L278.2 462.0L278.2 461.9L278.2 461.9L278.2 461.8L278.2 459.7L278.2 458.8L278.2 458.3L278.2 456.0L277.7 456.0L277.1 456.0L275.0 456.0L274.6 456.0L274.5 456.0L274.1 456.0L273.5 456.0L270.6 456.0L270.5 456.0L269.9 456.0L269.9 451.7L269.9 451.2L269.9 450.7L269.7 450.7L269.7 450.7L269.7 450.6L269.7 447.7L269.7 447.6L269.7 447.4L269.7 447.3L269.7 447.2L269.7 445.7L269.7 443.8L269.7 443.7L269.7 443.6L269.7 439.3L269.5 439.3L269.4 439.3L269.3 439.3L269.2 439.2L267.2 439.2L265.2 439.2L264.8 439.2L264.7 439.2L264.4 439.2L264.3 439.2L263.4 439.2L262.1 439.2L262.0 439.2L261.8 439.2L261.7 439.1L261.6 438.9L261.6 438.7L261.6 438.6L261.6 438.2L261.6 437.7L261.6 437.6L261.6 437.3L261.6 437.2L261.6 437.1L261.6 436.9L261.6 436.7L261.6 436.6L261.6 436.4L261.6 436.2L261.6 436.1L261.6 436.0L261.6 435.7L261.6 435.5L261.6 435.2L261.7 434.2L261.6 433.7L261.6 433.5L261.6 432.9L261.7 432.5L261.6 432.1L261.6 431.8L261.6 431.6L261.6 431.1L261.6 430.9L261.4 430.9L261.4 431.0L257.3 431.0L255.7 431.0L253.8 431.0L253.7 431.0L253.7 430.9L253.4 430.9L253.4 431.1L253.3 431.0L253.1 431.0L252.6 431.0L252.4 431.0L252.4 431.0L250.5 431.0L249.8 431.0L249.0 431.0L247.9 431.0L242.7 431.0L242.6 431.0L242.4 431.0L240.7 431.0L239.7 431.0L237.4 431.0L236.8 431.0L236.8 431.2L236.8 431.6L237.1 431.6L237.1 432.1L236.9 432.3L236.9 433.5L236.8 433.5L236.0 433.7L235.9 433.7L235.7 433.7L235.9 434.2L236.3 435.0L236.3 435.1L232.2 435.1L232.2 434.6L231.8 434.6L231.6 434.6L231.4 434.6L231.5 434.5L231.6 434.4L231.6 434.3L231.4 434.2L231.3 434.1L231.2 434.0L231.2 433.9L229.3 433.9L226.0 433.9L226.1 433.9L226.1 433.7L226.9 431.2L227.0 431.0L227.1 430.7L226.3 430.7L226.6 429.6L227.0 428.9L227.1 428.8L227.5 427.9L228.3 426.8L228.4 426.6L228.4 426.5L230.4 423.6L230.9 423.2L232.1 421.8L232.3 421.2L232.5 420.2L232.4 419.3L232.2 419.1L232.0 418.8L231.7 418.2L231.7 418.2L232.3 418.2L232.6 418.2L232.6 415.5L233.1 415.0L233.4 414.7L233.8 414.6L233.9 414.4L234.3 414.1L234.2 413.9L234.2 413.7L234.2 413.5L234.2 413.1L234.1 413.0L234.1 412.9L234.1 412.6L234.1 412.5L234.1 412.3L234.0 411.3L234.0 410.4L234.0 409.8L233.5 409.8L233.2 409.8L232.5 409.8L231.3 409.8L231.3 409.8L231.3 408.8L231.3 408.7L231.3 408.6L231.3 407.7L231.7 407.7L232.2 407.7L232.9 407.7L234.0 407.7L235.8 407.8L236.3 407.8L236.4 407.8L236.6 407.8L236.6 405.6L236.6 403.0L236.6 402.7L236.6 397.3L236.7 397.3L237.2 397.3L241.1 397.3L241.3 397.3L242.0 397.3L242.1 397.3L244.0 397.3L244.5 397.4L244.8 397.4L245.1 397.4L245.3 397.4L245.5 397.4L246.2 397.4L246.4 397.4L246.6 397.4L246.7 397.4L246.8 397.4L246.8 397.4L246.9 397.3L246.9 397.3L247.0 397.2L247.0 397.1L247.1 396.6L247.2 395.5L247.2 395.2L247.3 395.0L247.4 393.7L247.4 393.4L247.5 393.2L247.5 393.2L247.6 393.2L247.7 393.1L247.8 393.1L247.9 393.1L248.0 393.1L248.1 393.1L248.2 393.2L248.5 393.2L249.2 393.3L249.2 393.2L249.2 392.5L249.2 391.8L249.1 391.7L249.1 391.7L249.2 391.6L249.2 391.4L249.2 391.0L249.1 391.0L249.0 390.9L248.9 390.9L248.5 390.8L248.2 390.7L248.1 390.7L248.0 390.7L247.8 390.6L246.7 390.2L245.9 389.9L245.7 389.8L245.0 389.6L244.6 389.4L244.5 389.4L243.9 389.2L243.8 389.1L243.7 389.1L243.6 389.0L243.5 389.0L243.4 389.0L243.3 389.0L243.2 388.9L243.1 388.9L243.0 388.9L242.9 388.9L242.7 388.9L242.6 388.8L242.5 388.8L242.4 388.8L242.3 388.8L242.2 388.8L242.1 388.8L242.0 388.8L241.9 388.8L241.7 388.8L241.6 388.8L241.5 388.8L241.4 388.8L241.3 388.8L241.2 388.8L241.1 388.8L241.0 388.8L240.9 388.8L240.7 388.9L240.6 388.9L240.5 388.9L240.4 388.9L240.3 388.9L240.2 389.0L240.1 389.0L240.0 389.0L239.9 389.1L239.6 389.2L239.6 388.9L239.3 389.0L236.6 388.9L236.6 390.6L236.4 390.7L236.2 390.9L235.7 391.2L235.4 391.4L234.9 391.7L234.4 391.9L233.6 392.2L233.4 392.3L233.0 392.4L232.7 392.5L232.5 392.5L232.5 388.5L232.5 388.0L232.5 385.9L232.2 385.9L231.6 385.9L230.0 385.8L230.0 385.2L229.9 381.7L229.9 380.4L228.4 380.4L227.3 380.4L227.0 380.4L226.6 380.4L226.6 380.4L224.8 380.3L224.1 380.3L224.1 377.3Z" fill="#1e8892" stroke="#ffffff" stroke-width="1.2"/>
  <text x="402.7" y="537.4" text-anchor="middle" font-size="17" font-weight="700" fill="#0f172a" font-family="Georgia, serif" style="paint-order:stroke;stroke:rgba(255,255,255,0.9);stroke-width:3px">Papillion</text><text x="402.7" y="555.4" text-anchor="middle" font-size="12.5" fill="#64748b" font-family="-apple-system, Helvetica, Arial, sans-serif" style="paint-order:stroke;stroke:rgba(255,255,255,0.9);stroke-width:3px">10/mo · 2%</text><text x="503.5" y="545.5" text-anchor="middle" font-size="17" font-weight="700" fill="#0f172a" font-family="Georgia, serif" style="paint-order:stroke;stroke:rgba(255,255,255,0.9);stroke-width:3px">Bellevue</text><text x="503.5" y="563.5" text-anchor="middle" font-size="12.5" fill="#64748b" font-family="-apple-system, Helvetica, Arial, sans-serif" style="paint-order:stroke;stroke:rgba(255,255,255,0.9);stroke-width:3px">20/mo · 4%</text><text x="395.8" y="503.6" text-anchor="middle" font-size="17" font-weight="700" fill="#0f172a" font-family="Georgia, serif" style="paint-order:stroke;stroke:rgba(255,255,255,0.9);stroke-width:3px">La Vista</text><text x="395.8" y="521.6" text-anchor="middle" font-size="12.5" fill="#64748b" font-family="-apple-system, Helvetica, Arial, sans-serif" style="paint-order:stroke;stroke:rgba(255,255,255,0.9);stroke-width:3px">40/mo · 8%</text><text x="592.3" y="434.6" text-anchor="middle" font-size="17" font-weight="700" fill="#0f172a" font-family="Georgia, serif" style="paint-order:stroke;stroke:rgba(255,255,255,0.9);stroke-width:3px">Council Bluffs</text><text x="592.3" y="452.6" text-anchor="middle" font-size="12.5" fill="#64748b" font-family="-apple-system, Helvetica, Arial, sans-serif" style="paint-order:stroke;stroke:rgba(255,255,255,0.9);stroke-width:3px">80/mo · 16%</text><text x="406.9" y="392.6" text-anchor="middle" font-size="17" font-weight="700" fill="#ffffff" font-family="Georgia, serif" style="paint-order:stroke;stroke:none;stroke-width:3px">Omaha</text><text x="406.9" y="410.6" text-anchor="middle" font-size="12.5" fill="rgba(255,255,255,0.92)" font-family="-apple-system, Helvetica, Arial, sans-serif" style="paint-order:stroke;stroke:none;stroke-width:3px">500/mo · 100%</text>
</svg>